<?xml version='1.0' encoding='utf-8'?>
<svg xmlns="http://www.w3.org/2000/svg" xmlns="http://www.w3.org/2000/svg" version="1.1" viewBox="-198.16 -262.45 3478.54 3144.59"><g id="woman_2">
    <path d="M3053.04,1813.92c-3.6,0-7.28-.46-11.06-1.55-12.91-3.74-13.34-10.28-13.79-17.22-.08-1.15-.15-2.35-.29-3.56-1.3-11.67,2.27-37.03,3.75-45.82.45-2.7-.57-5.7-1.75-9.18-1.92-5.67-4.11-12.09-.74-19.66,5.34-12.02,10.18-29.67,8.94-41.99-.65-6.55-6.35-69.72-10.74-128.46-.03-.51-.07-1-.11-1.48v-.13c-4.08-55.06-5.65-88.14-4.68-98.24,1.23-12.96,3.07-35.89,4.22-57.81.87-16.55,1.2-29.55.97-38.64v-.2s0,0,0,0c-.17-6.3-.59-10.63-1.26-12.87-4.02-13.47-10.43-52.15-10.43-66.49,0-12.16,1.77-122.4,3.11-174.45.04-1.98.1-3.84.16-5.63.24-8.81.45-14.95.63-18.22.94-16.84-2.99-49.43-5.59-70.99-.98-8.17-1.83-15.22-2.19-19.48-.98-11.89-.48-31.14-.18-42.64l.07-2.81c.06-2.08.09-3.76.1-4.89v-.31c0-3.71-6.45-10.32-12.49-15.27-.15-.13-.3-.24-.43-.35-.14.13-.3.27-.46.42-6.54,6.11-10.61,11.67-10.88,14.87l-.02.14c-.01.07,0,.13,0,.19,0,1.05.03,2.66.08,4.71l.08,3.11c.31,11.55.82,30.88-.17,42.83-.35,4.28-1.21,11.4-2.2,19.64-2.59,21.51-6.5,54.02-5.56,70.82.18,3.28.39,9.41.63,18.23.06,1.78.11,3.64.16,5.62,1.35,52.09,3.11,162.31,3.11,174.45,0,14.38-6.41,53.06-10.44,66.49-.67,2.24-1.09,6.62-1.25,13.01v.02c-.23,9.05.09,22.04.95,38.64,1.17,22.08,3.01,44.96,4.24,57.86.97,10.09-.6,43.15-4.68,98.27v.1c-.05.49-.09.97-.12,1.46-4.39,58.77-10.09,121.94-10.74,128.48-1.24,12.32,3.6,29.96,8.94,41.99,3.37,7.57,1.19,13.99-.74,19.66-1.18,3.48-2.2,6.49-1.75,9.18,1.48,8.78,5.05,34.14,3.75,45.81-.13,1.21-.21,2.41-.29,3.56-.46,6.93-.88,13.48-13.79,17.22-13.83,4.01-26.4-.51-38.56-4.89-4.5-1.62-8.75-3.15-12.95-4.2-4.08-1.02-7.54-1.68-10.6-2.27-9.04-1.74-14.5-2.78-17.74-10.3-2.53-5.93,3.86-10.58,10.63-15.51,5.53-4.03,11.8-8.59,14.07-14.25l.48-1.19c4.74-11.81,5.86-14.62,4.63-30.66-1.18-15.33-2.33-28-7.37-63.16-4.54-31.77-14.43-86.72-22.53-125.11-.13-.66-.27-1.3-.4-1.93l-.26-1.25c-1.43-6.71-2.77-12.76-3.99-17.96-9.25-39.64-11.64-92.28-10.39-117,.67-13.55,3.8-31.63,6.83-49.12,1.34-7.77,2.62-15.11,3.68-22.08.29-1.84.55-3.63.8-5.36.87-6.27,1.41-11.32,1.64-15.43,1.31-23.48-5.23-72.55-7.76-87.77-.82-4.99-3.75-21.45-7.89-44.63l-.57-3.2c-.24-1.34-.48-2.69-.72-4.05l-.02-.14c-7.76-43.24-18.11-100.56-20.58-113.77-.64-3.4-1.56-8.17-2.66-13.85-5.5-28.45-15.73-81.42-16.81-97.75-.71-10.51-.31-27.47,1.07-45.38v-.08c.15-1.83.3-3.64.46-5.45v-.08c.97-11.21,2.28-21.76,3.68-29.7,3.03-17.19,14.32-77.18,21.54-110.69l.03-.37c.56-2.62,1.09-5.05,1.59-7.27.52-2.31.98-4.29,1.4-6.01l-.55-.52.86-.8c.38-1.52.73-2.78,1.08-4.03l.05-.18c1.75-6.05,5.04-14.65,10.38-27.05.43-1.01.87-2.04,1.32-3.06,2.14-4.92,4.33-9.87,6.4-14.53,4.5-10.14,8.39-18.89,9.84-23.25,3.87-11.57,6.4-33.33,3.86-46.06-1.1-5.46-1.28-12.46-1.5-20.57-.04-1.36-.07-2.75-.12-4.15-.11-3.66-.26-6.96-.46-10.1-.57-8.46-1.56-15.15-3.12-21.02-1.72-6.47-2.19-17.27-2.6-26.79-.27-6.37-.53-12.38-1.14-15.48l-.03-.15s0-.03,0-.04l-.03.03c-2.91,6.22-10.93,41.71-17.65,74.44-.27,1.3-.54,2.59-.8,3.89-1.17,5.72-2.36,11.65-3.53,17.64l-.27,1.41c-.14.72-.28,1.42-.41,2.13-2.93,15.19-4.72,25.57-5.05,29.25-1.3,14.38-9.25,48.78-16.87,80.54-4.26,17.74-16.92,49.13-28.08,76.82-6.76,16.76-13.14,32.6-16.38,42.34-1.06,7.95.05,10.84,1.73,15.21.43,1.13.88,2.29,1.34,3.67.9,2.71,2.67,5.33,4.54,8.11,2.01,2.99,4.09,6.09,5.29,9.59l.47,1.36c2.52,7.27,5.37,15.5,1.45,25.26-1.8,4.52-2.04,7.84-2.41,12.86-.2,2.76-.43,5.89-.97,9.92-1.03,7.71-3.79,12.84-7.77,14.43-1.92.77-5.03,1.04-8.91-2.06-4.12-3.3-4.12-12.83-4.12-22.91,0-7.24,0-17.16-2.62-18.21-5.41-2.18-23.11,18.13-28.09,26.46-2.84,4.72,10.81,31.51,16.64,42.96,2.31,4.54,4.14,8.12,4.84,9.88,1.16,2.9.53,5.5-1.68,6.96-3.67,2.43-10.48.98-14.56-3.09-4.48-4.5-40.88-58.37-39.38-76.13.94-11.33,9.14-31.46,17.07-50.94,3.05-7.49,5.92-14.56,8.26-20.82l.4-1.08h.05c.99-2.9,1.59-4.92,1.87-6.31.17-.84.39-2.22.73-4.62.2-1.36.41-2.93.64-4.71,3.19-24.35,9.92-86.64,14.37-127.86,1.52-14.07,2.81-25.99,3.66-33.67,2.25-20.17,8.41-43.14,13.84-63.41,1.71-6.38,3.32-12.4,4.78-18.16.24-.94.47-1.87.7-2.79,1.98-8.06,3.26-14.21,4.03-19.34,1.13-7.49,3.44-19.39,6.34-34.18.15-.76.3-1.53.46-2.31l.13-.62c4.05-20.62,9.1-46.3,11.82-65.43.27-1.85.5-3.65.73-5.38v-.09c1.06-8.39,1.48-14.66,1.24-18.63-1.36-22.98,1.3-96.22,9.13-118.47,9-25.48,37.28-34.53,49.02-37.24,6.53-1.51,19.08-5.17,32.78-9.57l.92-.38.07.07c1.43-.47,2.87-.94,4.3-1.41l1.43-.47c19.05-6.29,33.01-11.63,36.44-13.93,1.08-.72,2.21-1.44,3.37-2.18,6.86-4.37,14.64-9.32,16.74-17.66.46-1.83.77-4.74.95-8.64l-1.24-.96c-1.41-1.09-2.53-1.96-3.27-2.53-.28-.22-.55-.42-.8-.63-.75-.58-1.52-1.23-2.28-1.87-7.98-6.82-14.23-14.88-18.59-23.95-.74-1.54-1.42-3.1-2.02-4.65-8.48-22.24-1.91-100.57,3.56-122.01,5.28-20.67,20.38-45.92,62.33-48.96.62-.18,2.52-.62,4.67-.16,2.01.03,3.17.14,3.22.15,42.04,2.97,57.17,28.27,62.46,48.96,5.48,21.42,12.07,99.74,3.57,122-.53,1.39-1.16,2.84-1.92,4.44-3.83,8.04-9.23,15.37-16.06,21.78-.7.66-1.45,1.35-2.24,2.02-1.03.92-2.19,1.87-3.62,2.98,0,0-.01.01-.02.02.11,5.5.47,9.65,1.06,12.02,2.09,8.34,9.88,13.3,16.75,17.67,1.15.73,2.27,1.45,3.35,2.16,3.43,2.3,17.4,7.63,36.45,13.93l1.38.46c1.46.48,2.92.96,4.38,1.44l.07-.07.89.37c13.69,4.39,26.24,8.06,32.78,9.57,11.74,2.71,40.02,11.76,49.02,37.24,7.81,22.18,10.48,95.46,9.13,118.47-.23,3.97.18,10.24,1.23,18.63v.11c.23,1.73.47,3.52.74,5.36,2.72,19.11,7.77,44.8,11.82,65.44l.12.62c.16.78.31,1.55.46,2.32,2.9,14.76,5.2,26.66,6.33,34.17.76,5.12,2.04,11.27,4.03,19.34.23.92.45,1.85.7,2.78,1.45,5.77,3.07,11.79,4.77,18.16,5.43,20.27,11.59,43.24,13.84,63.41.85,7.69,2.14,19.62,3.66,33.71,4.45,41.21,11.18,103.48,14.37,127.82.23,1.78.44,3.35.64,4.7.34,2.41.55,3.79.73,4.63.29,1.43.92,3.54,1.98,6.61l.35.78c2.33,6.26,5.21,13.33,8.26,20.82,7.93,19.47,16.12,39.61,17.07,50.94h0c1.49,17.76-34.9,71.63-39.38,76.12-4.09,4.08-10.89,5.53-14.57,3.09-2.21-1.46-2.84-4.06-1.68-6.96.7-1.76,2.53-5.34,4.84-9.88,5.83-11.44,19.47-38.24,16.64-42.95-4.98-8.34-22.67-28.62-28.09-26.47-2.62,1.04-2.62,10.96-2.62,18.21,0,10.09,0,19.62-4.12,22.91-3.87,3.1-6.98,2.84-8.91,2.06-3.98-1.6-6.74-6.72-7.77-14.43-.54-4.03-.77-7.16-.97-9.92-.37-5.02-.61-8.34-2.41-12.86-3.92-9.75-1.06-17.98,1.46-25.25l.47-1.36c1.2-3.5,3.28-6.59,5.29-9.59,1.87-2.78,3.63-5.41,4.53-8.11.46-1.37.91-2.54,1.34-3.67,1.68-4.37,2.79-7.26,1.73-15.22-3.24-9.74-9.62-25.57-16.38-42.33-11.16-27.69-23.82-59.08-28.08-76.82-7.61-31.75-15.57-66.15-16.87-80.54-.33-3.69-2.12-14.07-5.05-29.23l-.03-.15c-.22-1.13-.44-2.25-.66-3.41-1.13-5.82-2.42-12.18-3.52-17.63-.14-.67-.28-1.35-.42-2.03l-.41-2.03c-6.71-32.61-14.7-67.91-17.61-74.23l-.05-.05v.52s-.12.13-.12.13c-.54,3.2-.78,8.93-1.04,14.98-.41,9.54-.87,20.36-2.6,26.83-1.56,5.87-2.55,12.55-3.12,21.03-.19,3.13-.34,6.43-.45,10.1-.04,1.4-.08,2.78-.11,4.13-.21,8.12-.4,15.12-1.5,20.59-2.54,12.71,0,34.47,3.85,46.06,1.43,4.29,5.23,12.85,9.63,22.76,2.16,4.87,4.4,9.91,6.61,15.01l.12.29c.42.93.82,1.87,1.21,2.79,5.32,12.38,8.62,20.97,10.36,27.01l.06.2c.33,1.15.72,2.63,1.17,4.52.48,1.92,1.02,4.23,1.62,6.84.49,2.21,1.02,4.63,1.58,7.21,7.23,33.53,18.54,93.85,21.57,111.12,1.41,8,2.69,18.27,3.69,29.7l.05.59c.14,1.64.28,3.27.41,4.93v.12c1.37,17.94,1.77,34.93,1.07,45.34-1.08,16.2-11.23,68.79-16.68,97.04-1.15,5.99-2.12,11.01-2.79,14.55-2.47,13.22-12.82,70.55-20.58,113.8l-.02.11c-.23,1.33-.47,2.66-.7,3.96-.19,1.07-.38,2.13-.56,3.18l-.02.15c-3.06,17.06-6.91,38.64-7.89,44.58-2.53,15.23-9.07,64.31-7.76,87.78.23,4.1.77,9.15,1.64,15.43.24,1.73.51,3.53.8,5.36,1.07,6.97,2.34,14.31,3.68,22.08,3.03,17.48,6.15,35.56,6.83,49.11,1.25,24.72-1.14,77.36-10.39,117-1.21,5.17-2.55,11.22-3.99,17.97l-.24,1.14c-.14.66-.28,1.33-.41,2.01-8.14,38.62-18.04,93.57-22.53,125.12-5.04,35.15-6.19,47.83-7.37,63.17-1.23,16.03-.11,18.83,4.61,30.64l.49,1.21c2.27,5.65,8.54,10.21,14.07,14.24,6.77,4.93,13.17,9.59,10.63,15.52-3.23,7.52-8.69,8.57-17.73,10.3-3.06.59-6.52,1.25-10.6,2.27-4.2,1.05-8.45,2.58-12.95,4.2-8.84,3.18-17.9,6.45-27.5,6.45ZM2862.14,1170.66c.23,1.31.46,2.62.69,3.91l.57,3.2c4.15,23.19,7.08,39.66,7.9,44.66,2.54,15.3,9.12,64.7,7.8,88.43-.24,4.19-.78,9.32-1.67,15.67-.24,1.75-.52,3.56-.8,5.41-1.07,6.99-2.34,14.35-3.69,22.13-3.01,17.4-6.12,35.39-6.79,48.76-1.24,24.55,1.13,76.82,10.31,116.17,1.22,5.22,2.57,11.29,4,18.03l.26,1.25c.13.64.27,1.29.4,1.94,8.1,38.43,18.01,93.47,22.56,125.29,5.05,35.25,6.21,47.97,7.39,63.36,1.28,16.73-.01,19.97-4.84,32l-.48,1.19c-2.59,6.46-9.23,11.29-15.08,15.56-6.03,4.39-11.23,8.18-9.64,11.91,2.61,6.05,6.67,6.83,15.55,8.54,3.09.59,6.6,1.27,10.76,2.3,4.35,1.09,8.67,2.65,13.24,4.29,11.7,4.21,23.8,8.57,36.71,4.83,10.89-3.15,11.18-7.68,11.63-14.53.08-1.19.16-2.41.3-3.7,1.25-11.28-2.36-36.9-3.73-44.99-.58-3.45.61-6.94,1.87-10.65,1.83-5.4,3.73-10.98.84-17.48-5.5-12.39-10.48-30.64-9.19-43.51.65-6.54,6.35-69.66,10.73-128.38.03-.47.07-.96.11-1.46v-.07c4.07-54.97,5.64-87.88,4.69-97.81-1.22-12.92-3.07-35.86-4.25-57.97-.86-16.58-1.18-29.58-.96-38.66l-.16-.67.18-.18c.18-6.42.63-10.74,1.36-13.19,3.92-13.08,10.32-51.85,10.32-65.63,0-12.13-1.77-122.3-3.11-174.37-.04-1.98-.1-3.83-.16-5.61-.24-8.8-.45-14.91-.63-18.16-.95-17.06,2.82-48.44,5.58-71.34.99-8.21,1.84-15.31,2.19-19.53.98-11.78.47-31.01.16-42.5l-.08-3.09c-.06-2.04-.09-3.7-.09-4.81,0-.22,0-.43.04-.65.52-5.45,7.63-12.83,11.83-16.75.91-.84,1.47-1.32,1.47-1.32l.94-.81.97.77s.55.44,1.45,1.18c5.07,4.16,13.58,11.98,13.58,17.59v.33c-.01,1.17-.04,2.86-.1,4.95l-.07,2.81c-.3,11.44-.8,30.59.17,42.31.35,4.2,1.2,11.23,2.18,19.37,2.61,21.67,6.56,54.41,5.6,71.51-.18,3.25-.39,9.35-.63,18.15-.06,1.79-.11,3.64-.16,5.6-1.35,52.05-3.11,162.24-3.11,174.39,0,13.75,6.39,52.53,10.3,65.63.74,2.47,1.19,6.78,1.37,13.17l.18.17-.16.7c.22,9.13-.1,22.15-.98,38.67-1.15,22-3,44.97-4.23,57.97-.95,9.93.62,42.84,4.69,97.82v.07c.05.49.09.98.12,1.48,4.38,58.69,10.08,121.82,10.73,128.36,1.29,12.86-3.68,31.12-9.19,43.5-2.89,6.5-1,12.08.84,17.48,1.26,3.7,2.45,7.2,1.87,10.65-1.37,8.09-4.98,33.71-3.73,44.99.14,1.28.22,2.51.3,3.7.45,6.85.75,11.38,11.63,14.53,12.9,3.74,25-.62,36.71-4.83,4.57-1.65,8.89-3.2,13.24-4.29,4.16-1.04,7.67-1.71,10.76-2.3,8.88-1.7,12.93-2.48,15.54-8.54,1.6-3.73-3.61-7.52-9.64-11.91-5.86-4.26-12.5-9.1-15.08-15.55l-.49-1.21c-4.81-12.02-6.1-15.26-4.82-31.98,1.19-15.39,2.34-28.12,7.39-63.36,4.5-31.61,14.41-86.65,22.56-125.3.13-.67.28-1.35.42-2.02l.24-1.14c1.44-6.78,2.79-12.85,4.01-18.04,9.18-39.35,11.56-91.62,10.31-116.17-.66-13.37-3.78-31.36-6.79-48.75-1.35-7.79-2.62-15.14-3.69-22.14-.29-1.85-.56-3.65-.8-5.4-.89-6.36-1.43-11.49-1.67-15.67-1.32-23.72,5.25-73.12,7.8-88.43.98-5.95,4.82-27.46,7.88-44.51l.02-.11c.19-1.09.39-2.2.59-3.32.22-1.26.45-2.54.68-3.82l.02-.15c7.76-43.26,18.13-100.69,20.6-113.93.67-3.55,1.64-8.58,2.79-14.57,5.44-28.19,15.56-80.66,16.63-96.67.69-10.28.29-27.11-1.07-45.02v-.07c-.13-1.64-.27-3.24-.41-4.85l-.05-.65c-.99-11.31-2.25-21.47-3.65-29.37-3.03-17.25-14.33-77.52-21.55-111-.56-2.58-1.08-4.99-1.57-7.19-.59-2.59-1.13-4.88-1.61-6.79-.43-1.78-.79-3.17-1.1-4.26l-.07-.23c-1.7-5.92-4.96-14.43-10.27-26.78-.43-1.01-.86-2.03-1.32-3.03l-.13-.32c-2.17-4.99-4.36-9.92-6.48-14.7-4.43-9.98-8.26-18.6-9.74-23.03-3.98-11.94-6.57-34.43-3.95-47.6,1.05-5.21,1.23-12.1,1.44-20.08.04-1.36.07-2.75.12-4.15.11-3.7.26-7.03.46-10.2.59-8.68,1.61-15.55,3.22-21.61,1.64-6.15,2.1-16.8,2.5-26.19.27-6.22.5-11.65,1.04-15.05l-.02-.02.16-.82c.22-1.13.69-3.47,2.47-3.71,1.58-.21,2.54,1.41,3,2.31l.08.08.09.25c3.15,6.42,11.65,44.54,17.98,75.3l.38,1.89c.14.67.27,1.35.42,2.02,1.11,5.47,2.39,11.83,3.53,17.67.23,1.2.46,2.37.69,3.54l.03.16c2.08,10.78,4.63,24.57,5.06,29.39,1.28,14.19,9.21,48.46,16.8,80.11,4.21,17.52,16.82,48.8,27.94,76.4,6.8,16.88,13.23,32.83,16.49,42.64l.06.27c1.2,8.82-.16,12.36-1.88,16.84-.42,1.1-.86,2.23-1.3,3.54-1.03,3.09-2.99,6.01-4.89,8.83-1.9,2.83-3.87,5.76-4.94,8.89l-.47,1.37c-2.46,7.1-5,14.44-1.5,23.16,1.97,4.96,2.24,8.65,2.62,13.76.2,2.72.42,5.8.95,9.74.85,6.4,3.07,10.9,5.92,12.05,1.72.69,3.71.14,5.91-1.62,3-2.4,3-12.05,3-20.57,0-10.3,0-19.2,4.5-20.99,8.92-3.57,28.47,22.18,31.77,27.71,3.41,5.67-5.88,24.92-16.54,45.86-2.28,4.47-4.08,8-4.73,9.63-.94,2.35.18,3.09.55,3.34,2.24,1.48,7.45.62,10.79-2.71,4.28-4.29,39.91-57.19,38.51-73.75h0c-.91-10.87-9.38-31.69-16.86-50.06-2.88-7.08-5.61-13.79-7.88-19.82h-.03s-.47-1.11-.47-1.11c-1.27-3.65-2.02-6.13-2.36-7.81-.19-.9-.41-2.34-.76-4.8-.2-1.35-.42-2.95-.65-4.74-3.19-24.37-9.92-86.66-14.37-127.88-1.52-14.08-2.81-26.01-3.66-33.7-2.23-19.94-8.35-42.8-13.75-62.97-1.71-6.38-3.33-12.41-4.78-18.19-.24-.94-.47-1.87-.7-2.81-2.01-8.17-3.31-14.4-4.08-19.61-1.12-7.44-3.42-19.31-6.31-34.04-.15-.77-.3-1.53-.46-2.29l-.13-.63c-4.07-20.68-9.12-46.42-11.85-65.6-.27-1.89-.52-3.72-.74-5.5v-.11c-1.09-8.64-1.5-14.89-1.25-19.08,1.29-22.2-1.42-95.85-8.97-117.3-8.5-24.08-35.61-32.72-46.86-35.31-6.6-1.52-18.63-5.03-32.3-9.41h0s-.84-.27-.84-.27c-1.74-.57-3.48-1.14-5.23-1.71l-1.39-.46c-9.4-3.11-31.85-10.72-37.17-14.28-1.06-.7-2.16-1.41-3.29-2.12-7.34-4.67-15.67-9.96-18.06-19.47-.67-2.73-1.06-7.25-1.16-13.43v-.73s.55-.47.55-.47c.13-.11.26-.2.38-.29.08-.06.15-.11.22-.17,1.42-1.1,2.53-2.02,3.54-2.91.76-.65,1.48-1.31,2.15-1.94,6.55-6.15,11.74-13.18,15.41-20.88.73-1.52,1.32-2.9,1.82-4.22,8.32-21.81,1.73-99.02-3.68-120.19-5.04-19.74-19.51-43.87-59.8-46.72-.05,0-1.2-.11-3.17-.14l-.32-.04c-1.78-.42-3.39.1-3.41.11l-.37.07c-40.29,2.85-54.76,26.98-59.8,46.72-5.4,21.19-11.97,98.41-3.66,120.19.57,1.47,1.21,2.96,1.92,4.42,4.18,8.7,10.17,16.42,17.83,22.97.72.61,1.46,1.22,2.22,1.81.27.22.51.41.76.6.74.56,1.86,1.44,3.28,2.53l2.46,1.91-.03.77c-.18,4.56-.53,7.84-1.07,10.03-2.4,9.5-10.71,14.79-18.04,19.46-1.14.72-2.25,1.43-3.31,2.14-5.32,3.56-27.77,11.17-37.17,14.28l-1.43.47c-1.39.46-2.78.92-4.16,1.37h-.02c-.34.11-.67.22-1.01.33l-.87.28h0c-13.66,4.37-25.68,7.87-32.27,9.39-11.26,2.6-38.36,11.24-46.87,35.32-7.57,21.51-10.28,95.13-8.97,117.3.25,4.2-.16,10.44-1.24,19.08v.11c-.24,1.78-.49,3.61-.76,5.5-2.73,19.2-7.79,44.92-11.85,65.59l-.13.64c-.16.77-.31,1.52-.45,2.28-2.89,14.75-5.2,26.62-6.32,34.05-.78,5.22-2.07,11.45-4.08,19.61-.23.93-.46,1.87-.7,2.81-1.46,5.78-3.07,11.81-4.78,18.19-5.4,20.17-11.53,43.02-13.75,62.96-.85,7.68-2.14,19.6-3.66,33.67-4.45,41.23-11.19,103.54-14.38,127.92-.23,1.79-.44,3.39-.65,4.75-.34,2.45-.57,3.89-.76,4.8-.34,1.68-1.1,4.16-2.36,7.81l-.39,1.12h-.11c-2.27,6.02-5,12.72-7.88,19.8-7.48,18.37-15.95,39.19-16.86,50.06-1.39,16.56,34.24,69.46,38.52,73.76,3.34,3.33,8.54,4.19,10.79,2.71.37-.24,1.49-.98.55-3.34-.65-1.63-2.45-5.16-4.73-9.63-10.66-20.93-19.94-40.19-16.54-45.86,3.3-5.53,22.83-31.3,31.77-27.71,4.5,1.8,4.5,10.69,4.5,20.99,0,8.52,0,18.17,3,20.57,2.21,1.77,4.2,2.31,5.92,1.62,2.85-1.14,5.06-5.65,5.91-12.05.53-3.94.75-7.02.95-9.74.37-5.11.64-8.8,2.61-13.76,3.5-8.72.96-16.06-1.5-23.16l-.47-1.37c-1.07-3.12-3.04-6.05-4.94-8.88-1.9-2.82-3.86-5.74-4.89-8.83-.44-1.31-.88-2.44-1.3-3.54-1.72-4.48-3.08-8.01-1.88-16.83l.06-.27c3.26-9.81,9.69-25.76,16.49-42.65,11.12-27.6,23.73-58.88,27.95-76.4,7.59-31.65,15.52-65.92,16.8-80.11.43-4.83,3-18.73,5.09-29.53.13-.7.27-1.42.41-2.15l.27-1.4c1.17-6.01,2.36-11.95,3.53-17.67.26-1.29.53-2.6.8-3.9,6.31-30.71,14.78-68.78,17.97-75.29l.08-.24.09-.09c.46-.9,1.42-2.55,3.02-2.33,1.78.25,2.23,2.58,2.45,3.7l.03.16c.62,3.34.87,9.11,1.16,15.78.41,9.38.86,20,2.5,26.15,1.61,6.07,2.63,12.93,3.22,21.6.2,3.18.35,6.52.46,10.21.04,1.41.08,2.79.12,4.16.21,7.97.4,14.86,1.44,20.06,2.63,13.19.03,35.67-3.96,47.6-1.5,4.5-5.41,13.31-9.94,23.52-2.07,4.65-4.26,9.59-6.39,14.51-.44,1.01-.88,2.03-1.31,3.04-5.31,12.35-8.57,20.86-10.28,26.79l-.05.18c-.36,1.26-.71,2.53-1.09,4.07v.56s-.16.17-.16.17c-.44,1.78-.93,3.85-1.48,6.31-.49,2.17-1,4.53-1.55,7.08l-.03.37c-7.21,33.44-18.51,93.54-21.55,110.73-1.38,7.84-2.67,18.27-3.63,29.38v.07c-.16,1.81-.32,3.61-.46,5.44v.06c-1.37,17.8-1.77,34.63-1.07,45.01,1.07,16.15,11.28,68.99,16.76,97.38,1.1,5.68,2.02,10.45,2.66,13.86,2.47,13.24,12.84,70.67,20.6,113.93l.02.15Z" />
    <path d="M2850.37,493.08c-.65,0-1.3-.15-1.91-.46-13.42-6.71-12.63-85.94-12.49-94.95l2.86.04c-.52,34.67,1.96,87.88,10.92,92.35.47.24.9.22,1.44-.06,8.67-4.4,20.22-55.89,25.87-89.42l2.82.47c-1.46,8.68-14.66,85.02-27.39,91.49-.7.35-1.4.53-2.1.53Z" />
    <path d="M2840.32,458.29c-.16.36-.76,1.74-1.73,3.9-6.64,14.61-30.72,64.5-50.54,65.7.19-.97.39-1.94.59-2.93,20.92-2.74,48.77-67.14,49.06-67.8l.36.16,2.27.97Z" />
    <path d="M2846.62,574.47c.8,10.49,4.7,18.25,7.37,22.43-.27,1.3-.54,2.6-.8,3.9-2.61-3.5-8.38-12.61-9.42-26.11-1-13.02,8.58-63.33,13.38-87.39,1.41-7.15,2.41-11.98,2.6-12.82v-.03l2.8.59c-.17.83-17.19,82.92-15.92,99.44Z" />
    <path d="M2807.6,639.63c-.04,4.85-1.26,13.23-3.38,23.87-.01.01-.01.03-.01.04-.94,4.71-2.07,9.88-3.37,15.36,0,.01,0,.03-.01.03-1.01,4.34-2.14,8.88-3.36,13.58-13.09,50.95-36.76,120.13-57.74,139.4.2-1.36.41-2.94.64-4.73,12.24-13.58,26.98-45.76,41.29-90.42,5.1-15.93,9.59-31.77,13.22-46,0-.03.01-.04.01-.07.99-3.84,1.9-7.57,2.76-11.14,0-.01.01-.04.01-.06,4.44-18.69,7.02-33.39,7.08-39.9.29-37.22-20.04-51.33-27.77-55.34.24-.94.47-1.87.7-2.8,7.78,4.03,30.22,19.06,29.92,58.16Z" />
    <path d="M2849.66,618.45c-.23,1.2-.47,2.38-.69,3.55-8.08,4.3-36.61,21.6-48.14,56.91,0,.01,0,.03-.01.03-1.38,4.27-2.53,8.78-3.36,13.58l-2.81-.49c.07-.44.16-.89.24-1.33.73-3.91,1.66-7.64,2.77-11.19,1.78-5.8,4.01-11.12,6.55-16,15.53-30.04,42.2-43.5,45.44-45.06Z" />
    <path d="M2995.15,819.88c-4.66,0-12.05-2.07-18.51-13.05-3.98-6.77-15.66-18.13-28.03-30.15-18.93-18.41-38.5-37.44-38.5-47.31,0-7.9,2.24-11.71,5.94-18.03,3.8-6.48,9.54-16.27,16.24-37.04,12.89-39.94,56.07-132.72,56.51-133.65l2.59,1.21c-.43.93-43.55,93.55-56.38,133.33-6.8,21.07-12.63,31.02-16.5,37.61-3.58,6.1-5.55,9.46-5.55,16.59,0,8.67,20,28.11,37.64,45.27,12.51,12.16,24.32,23.65,28.5,30.75,8.99,15.28,19.15,11.28,19.57,11.1l1.12,2.63s-1.86.76-4.64.76Z" />
    <path d="M2913.11,723.54l-2.53.21-.31.03c-.8-9.42-2.11-19.23-3.75-29.07-.19-1.04-.36-2.08-.54-3.13-6.78-39.05-18.47-78.01-23.98-95.3-.1-3.31-.24-6.71-.46-10.15l.13-.04c.24.74,24.67,72.07,30.9,131.6.21,1.96.4,3.91.56,5.84Z" />
    <path d="M2908.82,693.04c-.74.57-1.51,1.13-2.31,1.66h0c-14.48,9.71-38.9,13.16-44.46,13.85.43-1.01.87-2.04,1.31-3.06,7.72-1.09,30.12-4.9,42.6-13.91.37-.26.73-.53,1.09-.8l1.77,2.26Z" />
    <path d="M2986.49,935.95h0c-7.28,10.84-21.7,26.84-44.83,30.27-.86.13-1.73.24-2.6.34-.94.11-1.9.23-2.86.31-3.63.34-7.32.5-11.05.5-2.46,0-4.93-.07-7.4-.21-.43-.01-.87-.04-1.3-.07-8.35-.54-16.6-1.84-24.19-3.74h-.01c-1.63-.4-3.21-.83-4.77-1.3-15.01-4.4-26.54-11.18-29.34-18.87-3.86-10.62-6.22-35.91-8.32-58.22-.74-7.97-1.46-15.49-2.16-21.44-2.01-17.12-.96-80.21-.34-109.18v-.21c.56-2.61,1.08-5.04,1.58-7.25.57-2.54,1.1-4.8,1.58-6.74-.01.84-.07,3.3-.16,6.97h0c-.27,12.55-.81,39.22-.94,64.26h0c-.01,2.17-.01,4.31-.03,6.44h0c-.04,19.77.23,37.61,1.14,45.39.7,5.98,1.41,13.52,2.16,21.5,1.97,21.04,4.44,47.24,8.17,57.52,4.88,13.42,45.51,26.36,80.39,21.19,24.93-3.7,39.28-22.69,45.2-32.65-.03.16-.03.3-.03.46,0,1.06.03,2.68.09,4.75Z" />
    <path d="M2868.51,1042.3l-2.6.27-.24.03c-.03-.23-2.5-23.4-12.75-63.13-7.38-28.58-22.99-62.38-31.25-79.25h0c.14-1.86.3-3.68.46-5.51,7.45,14.91,25.44,52.58,33.57,84.05,5.23,20.27,8.45,36.28,10.35,47.14,1.84,10.57,2.46,16.29,2.47,16.4Z" />
    <path d="M2892.62,963.25s-.13.04-.34.1h-.01c-2.73.84-19.99,6.7-22.24,22.47-.88,6.18-1.04,27.18-1.24,53.77-.39,49.95-.91,118.28-6.85,138.44-.41-2.36-.86-4.78-1.28-7.24h0c4.38-24.83,4.91-83.25,5.27-128.22,0-1.01,0-2.01.01-3.01.03-4.74.07-9.32.11-13.66t0-.03c.17-20.05.4-35.22,1.16-40.46,1.97-13.81,13.72-20.6,20.3-23.36,2.44-1.03,4.15-1.5,4.4-1.56l.73,2.76Z" />
    <path d="M2910.27,1113.74c4.9,42.35,10.32,89.3,7.4,123.07-.13,1.57-.29,3.13-.46,4.64-.69,5.97-1.67,11.48-3,16.39-1.9,7.04-4.15,13.68-6.64,19.89-.37.99-.77,1.97-1.19,2.93-10.64,25.54-24.63,43.43-31.24,51.05.29-1.84.56-3.64.8-5.38,9.39-11.55,26.5-35.92,35.51-69.23,8.75-32.39,1.97-91.17-4.03-143.03-2.87-24.9-5.58-48.4-6.42-67.26-2.38-53.65,12.44-75.78,15.46-79.72.26-.36.44-.56.5-.63l.8.7,1.34,1.18c-.17.2-17.79,21.23-15.25,78.34.83,18.76,3.54,42.22,6.41,67.06Z" />
    <path d="M2979.42,1096.19c-10.78-16.76-18.89-34.08-25-50.41-1.01-2.71-1.97-5.4-2.87-8.04-11.98-35.01-14.82-64.07-15.35-70.87-.07-.93-.1-1.44-.1-1.5l2.86-.14c0,.06.03.5.1,1.33.71,9.58,6.51,69.17,40.2,124.02.06,1.78.11,3.64.16,5.61Z" />
    <path d="M2971.8,1388.86l-1.77-4.71c-.16-.43-15.7-42.03-19.59-65.32-.89-5.31-3.21-12.46-6.31-20.33-.44-1.17-.91-2.34-1.4-3.54-8.38-20.57-20.89-44.72-25.53-53.51-1.11-2.11-1.77-3.33-1.81-3.41l2.27-1.23.23-.13c1.28,2.37,31.48,58.31,35.38,81.69,2.77,16.68,11.65,42.99,16.39,56.37-.61-13.36-2.56-41.67-8.81-84.55-8.88-60.81-9.28-244.61-9.29-252.45v-.24h2.86c0,.21,0,3.17.01,8.28h0c.17,37.33,1.34,189.81,9.25,243.99,3.66,25.1,5.84,45.23,7.17,60.31-.01.01,0,.04,0,.06-.26,10.14.2,24.14.96,38.72Z" />
    <path d="M2969.07,1546.47c-5.88,0-20.93-1.82-32.71-18.95-10.03-14.59-9.48-36.49-8.57-72.77.41-16.39.93-36.79.51-60.69-1.29-75.03,14.25-98.94,14.91-99.92l2.37,1.6-1.18-.8,1.19.8c-.16.24-15.7,24.37-14.43,98.27.41,23.96-.1,44.39-.51,60.81-.9,35.7-1.44,57.25,8.07,71.08,13.65,19.86,32.27,17.63,32.45,17.6l.38,2.83c-.16.02-1.05.13-2.48.13Z" />
    <path d="M2932.29,1330.64c-7.57-31.71-26.93-51.08-27.12-51.28l2-2.03c.2.2,20.13,20.11,27.9,52.65l-2.78.66Z" />
    <path d="M2931.6,1507.6c-.11.23-.8,1.51-1.94,3.46-4.31,7.4-15.19,24.33-26.73,28.71-4.28,1.63-8.57,2.17-12.38,2.17-4.6,0-8.52-.8-10.89-1.43-.21-1.07-.44-2.13-.66-3.17,2.86.87,13.06,3.5,22.91-.24,12.59-4.8,25.13-27.1,26.94-30.41h0c.13-.26.2-.4.21-.41l2.53,1.33Z" />
    <path d="M2936.89,760.1l-.41.63-1.16,1.76c-.07-.04-1.18-.77-3.08-1.98,0-.01-.01-.01-.01-.01-2.36-1.51-5.92-3.77-10.22-6.44-.94-.57-1.93-1.19-2.94-1.8-14.15-8.67-34.16-20.29-45.7-24.13-4.44-1.48-8.44-1.21-11.89.77-8.07,4.67-10.92,17.29-11.12,18.2h0s-.01.06-.01.06l-1.41-.29c.57-2.54,1.1-4.8,1.58-6.74t0-.03h0s.01-.03,0-.04h0s.01-.03,0-.04t.01-.03c.43-1.76.83-3.18,1.17-4.4.01-.03.01-.06.03-.09,1.91-3.45,4.61-6.92,8.31-9.07,4.2-2.43,8.98-2.77,14.23-1.03,13.01,4.34,35.79,17.85,50.01,26.67,0,.01.01.01.01.01,4.11,2.57,7.51,4.73,9.75,6.17t.01.01c1.6,1.01,2.6,1.67,2.84,1.83Z" />
    <path d="M2849.23,818.11l-2.58-1.23c1.02-2.14,25.11-52.4,45.09-56.39,19.04-3.81,29.56-9.28,29.66-9.34l1.33,2.52c-.44.23-10.95,5.71-30.44,9.61-18.59,3.72-42.83,54.31-43.07,54.82Z" />
    <path d="M2907.63,438.13c-14.42,0-34.19-7.88-35.02-8.22l1.07-2.65c.2.08,20.1,8.01,33.96,8.01,8.37,0,16.05-1.51,20.68-2.66-18.6-6.39-62.29-36.91-67.44-45.93-5.22-9.14-13.37-36.03-13.72-37.17l2.73-.83c.08.28,8.4,27.72,13.46,36.58,4.53,7.92,49.68,40.09,67.44,45.13,1.02.29,1.71,1.2,1.7,2.26,0,1.07-.71,1.99-1.75,2.27-4.41,1.19-13.29,3.2-23.11,3.2Z" />
    <path d="M2880.43,481.1c-1.74,13.92-4.28,31.51-5.78,41.53-.54-2.8-1.37-3.53-2.76-.79,1.48-10.08,4-27.37,5.71-41.09,2.11-16.89-2.14-40.88-3.7-48.67-.14-.77-.27-1.38-.36-1.81-.1-.46-.16-.71-.16-.74l1.11-.24,1.68-.37c.04.2.24,1.09.51,2.53,1.57,7.85,5.92,32.07,3.73,49.66Z" />
    <path d="M2976.18,324.44c-1.97,3.74-3.84,7.28-3.61,9.24,1.53,13.83-9.11,79.02-36.52,100.11-.13.1-.26.2-.39.3l-1.71-2.28c.39-.29.77-.59,1.14-.89,24.41-19.92,36.36-81.32,34.64-96.91-.31-2.83,1.56-6.4,3.93-10.89,5.35-10.18,12.01-22.84-3.28-32.67-19.1-12.28-64.17-17.77-77.9-19.2,2.2-.71,4.4-1.44,6.61-2.17,18.2,2.16,55.34,7.74,72.83,18.97,17.49,11.24,9.54,26.37,4.27,36.39Z" />
    <path d="M3199.63,459.44c-6.51-8.12-20.79-26.04-25.71-32.97-4.45-6.24-7.44-10.96-9.74-18-1-3.06-1.87-6.54-2.67-10.76-.07-.34-.13-.71-.2-1.07-.39-2.13-.8-4.58-1.26-7.28-1.86-11.11-4.44-26.43-8.22-36.19-.56-1.44-1.14-2.77-1.77-3.94.01,0,0-.01,0-.01-.83-1.6-1.73-2.91-2.67-3.85-6.57-6.57-26.87-22.16-38.13-21.82-2.31.09-4.05.81-5.3,2.24-3.98,4.54-12.92,32.92-22.39,62.99-11.38,36.11-24.27,77.04-32.17,87.8-15.18,20.67-29.9,41.73-34.94,55.57-1.07,2.97-2.04,6.02-2.93,8.99-.43,1.43-.83,2.83-1.21,4.2-.57,2.03-1.09,3.97-1.57,5.77-2.2,8.15-3.43,12.48-5.03,14.09-.47.47-.91.87-1.34,1.2-.34.26-.67.47-.98.61-.33.14-.64.23-.96.23-.23,0-.46-.04-.69-.14-.66-.26-1.07-.9-1.07-1.61h2.86c0-.16-.03-.29-.07-.4-.11-.27-.31-.43-.41-.5-.34-.24-.71-.21-.84-.17.01-.01.43-.17,1.48-1.24.19-.19.39-.49.59-.9.04-.09.09-.17.14-.27h0c1.03-2.24,2.26-6.82,3.55-11.64,1.51-5.61,3.4-12.59,5.8-19.19,5.15-14.18,20.02-35.44,35.31-56.29,4.37-5.95,10.44-21.84,16.96-41.09.31-.94.64-1.9.96-2.87,4.57-13.61,9.32-28.68,13.83-43,9.98-31.67,18.59-59.02,22.96-64.02,1.77-2.03,4.25-3.11,7.35-3.21,12.99-.39,34.06,16.46,40.26,22.66,6.97,6.97,10.72,29.27,13.46,45.54.44,2.67.86,5.13,1.24,7.24,2.57,14.19,5.83,19.89,12.11,28.7,4.25,5.95,15.5,20.16,22.66,29.12h0c.23,1.78.47,3.61.74,5.5Z" />
    <path d="M3149.73,493.08c-.7,0-1.4-.18-2.1-.53-12.73-6.47-25.93-82.81-27.39-91.49l2.82-.47c5.65,33.53,17.2,85.02,25.87,89.42.54.27.97.29,1.44.06,8.95-4.48,11.44-57.68,10.92-92.35l2.86-.04c.13,9.01.93,88.24-12.5,94.95-.62.31-1.26.46-1.91.46Z" />
    <path d="M3212.05,527.89c-19.83-1.2-43.9-51.1-50.54-65.7-.97-2.16-1.57-3.54-1.73-3.9l2.27-.97.36-.16c.29.66,28.14,65.06,49.06,67.8.2.99.4,1.96.59,2.93Z" />
    <path d="M3156.33,574.69c-1.03,13.51-6.8,22.61-9.41,26.11-.27-1.3-.53-2.6-.8-3.9h0c2.68-4.23,6.57-11.98,7.37-22.43,1.27-16.52-15.75-98.61-15.92-99.44l2.8-.59v.03c.19.84,1.19,5.67,2.61,12.82,4.78,24.06,14.36,74.37,13.35,87.39Z" />
    <path d="M3260.38,831.91c-20.97-19.27-44.64-88.45-57.74-139.4-1.21-4.7-2.34-9.24-3.35-13.58-.01-.01-.01-.03-.01-.03-1.3-5.48-2.43-10.65-3.37-15.36,0-.01,0-.03-.01-.04-2.13-10.64-3.34-19.02-3.38-23.87-.3-39.1,22.14-54.14,29.92-58.16.23.93.46,1.86.7,2.8-7.71,4-28.05,18.1-27.77,55.34.06,6.51,2.64,21.22,7.08,39.9,0,.01.01.04.01.06.86,3.57,1.77,7.3,2.76,11.14,0,.03.01.04.01.07,3.63,14.23,8.12,30.07,13.22,46,14.31,44.66,29.05,76.84,41.29,90.42.23,1.78.44,3.37.64,4.73Z" />
    <path d="M3205.46,692.03l-2.81.49c-.83-4.8-1.97-9.32-3.35-13.58-.01-.01-.01-.03-.01-.03-11.55-35.35-40.06-52.62-48.14-56.91h0c-.23-1.19-.46-2.36-.69-3.55,3.24,1.56,29.91,15.02,45.44,45.06,2.54,4.88,4.77,10.21,6.55,16,1.11,3.56,2.04,7.28,2.77,11.19.09.44.17.89.24,1.33Z" />
    <path d="M3001.35,819.52c-2.43,0-4.01-.3-4.06-.31l.56-2.8c.64.12,15.6,2.89,23.13-10.98,4.09-7.52,16.5-19.54,29.64-32.27,17.12-16.57,36.52-35.36,36.52-43.79,0-7.12-1.97-10.48-5.55-16.59-3.86-6.59-9.7-16.54-16.5-37.61-12.83-39.78-55.94-132.39-56.38-133.33l2.59-1.21c.43.93,43.62,93.71,56.51,133.65,6.7,20.77,12.44,30.56,16.24,37.04,3.71,6.32,5.94,10.13,5.94,18.03,0,9.64-19.01,28.04-37.39,45.84-12.98,12.57-25.25,24.44-29.12,31.58-6,11.06-16.41,12.72-22.14,12.72Z" />
    <path d="M3118.58,586.14c-.21,3.44-.36,6.84-.46,10.15-5.51,17.29-17.22,56.27-24,95.3-.19,1.04-.36,2.07-.53,3.11-1.64,9.84-2.96,19.65-3.76,29.08l-.31-.03-2.53-.21c.16-1.93.34-3.88.56-5.84,6.22-59.53,30.65-130.86,30.9-131.6l.13.04Z" />
    <path d="M3138.05,708.55c-5.55-.69-29.98-4.14-44.46-13.85-.8-.53-1.57-1.08-2.31-1.66l1.76-2.26c.36.27.71.54,1.08.8,12.49,9.01,34.86,12.82,42.6,13.89h0c.46,1.03.9,2.06,1.33,3.07Z" />
    <path d="M3152.43,863.51c-.7,5.95-1.41,13.48-2.16,21.44-2.1,22.32-4.47,47.6-8.32,58.22-2.8,7.7-14.33,14.48-29.34,18.87-1.56.47-3.14.9-4.77,1.3h-.01c-7.58,1.9-15.83,3.2-24.18,3.74-.43.03-.87.06-1.3.07-2.47.14-4.94.21-7.4.21-3.73,0-7.42-.16-11.05-.5-.96-.09-1.91-.2-2.86-.31-.87-.1-1.74-.21-2.6-.34-22.03-3.26-36.78-18.56-44.86-29.78.06-2.08.09-3.77.1-4.91,7.07,10.82,21.9,28.41,45.19,31.87,34.88,5.17,75.51-7.77,80.39-21.19,3.73-10.28,6.18-36.48,8.17-57.52.74-7.98,1.46-15.52,2.16-21.5.91-7.78,1.17-25.61,1.13-45.39h0c0-2.13,0-4.27-.01-6.42h0c-.13-25.1-.67-51.81-.96-64.32h0c-.09-3.78-.14-6.27-.17-7.01.49,1.96,1.03,4.25,1.61,6.82.49,2.2,1.01,4.61,1.57,7.2.63,28.84,1.68,92.29-.33,109.45Z" />
    <path d="M3178.44,900.2h0c-8.28,16.9-23.89,50.7-31.25,79.27-10.25,39.73-12.72,62.9-12.75,63.13l-.24-.03-2.6-.27c.01-.11.63-5.84,2.47-16.4,1.9-10.86,5.13-26.87,10.35-47.14,8.12-31.47,26.11-69.14,33.57-84.05.16,1.83.31,3.64.46,5.5Z" />
    <path d="M3001.41,565.48v1.53l-.3,140.7v.91s-.24,108.08-.24,108.08v2.81l-.21,95.26c-.88-.73-1.43-1.16-1.43-1.16,0,0-.54.47-1.43,1.28l.21-95.28v-3.17l.13-60.71v-.64l.41-188.16c-.54-.27-1.1-.71-1.71-1.27-.16-.16-.31-.31-.47-.47-1.61-1.61-2.83-5.94-5.03-14.09-.49-1.81-1.01-3.75-1.58-5.78h0c-.37-1.37-.77-2.76-1.2-4.17h0c-.88-2.98-1.86-6.04-2.93-9.01-5.04-13.83-19.76-34.89-34.94-55.57-7.9-10.76-20.79-51.7-32.17-87.8-9.47-30.07-18.42-58.45-22.39-62.99-1.24-1.43-2.98-2.16-5.3-2.24-11.22-.37-31.57,15.25-38.15,21.82-.94.94-1.83,2.26-2.66,3.85h0c-.63,1.19-1.21,2.5-1.77,3.95-3.78,9.77-6.37,25.08-8.24,36.21-.44,2.68-.86,5.14-1.24,7.27-.07.36-.13.73-.2,1.07-.8,4.24-1.67,7.72-2.67,10.78h0c-2.3,7.02-5.28,11.76-9.74,17.99-4.94,6.92-19.22,24.84-25.71,32.97.27-1.88.51-3.71.74-5.48h0c7.15-8.98,18.4-23.19,22.66-29.14,6.28-8.81,9.54-14.51,12.11-28.7.39-2.11.8-4.55,1.24-7.22,2.74-16.29,6.48-38.59,13.46-45.56,6.12-6.12,26.73-22.66,39.76-22.66h.49c3.11.1,5.58,1.18,7.37,3.21,4.37,5,12.98,32.35,22.96,64.02,4.51,14.32,9.27,29.4,13.83,43,.31.97.64,1.93.96,2.87,6.52,19.25,12.59,35.14,16.96,41.09,15.29,20.86,30.15,42.12,35.31,56.29,2.4,6.6,4.28,13.58,5.78,19.19.96,3.53,1.88,6.94,2.71,9.38h0c.57,1.73,1.1,2.96,1.57,3.43.49.49.84.79,1.07.96.29.23.41.27.43.29-.07-.03-.24-.04-.43,0-.13.01-.27.07-.4.16-.11.07-.49.37-.5.89l2.86.03Z" />
    <path d="M3138.26,1178.31c-6.02-19.79-6.55-88.54-6.93-138.73-.2-26.58-.36-47.58-1.25-53.77-2.43-17.04-22.4-22.51-22.6-22.56l.73-2.76c.9.24,22,5.99,24.7,24.92.91,6.38,1.07,27.46,1.27,54.15.38,50.02.9,118.52,6.81,137.92l-2.73.83Z" />
    <path d="M3124.96,1331.71c-6.61-7.62-20.6-25.51-31.24-51.05-.41-.96-.81-1.94-1.19-2.93-2.48-6.21-4.74-12.85-6.64-19.89-1.33-4.91-2.31-10.42-3-16.39-.17-1.51-.33-3.07-.46-4.64-2.93-33.76,2.5-80.72,7.4-123.07,2.87-24.84,5.58-48.3,6.41-67.06,2.56-57.29-15.08-78.14-15.26-78.34l1.36-1.18.8-.7c.06.07.24.27.5.63,3.03,3.94,17.85,26.07,15.46,79.72-.84,18.86-3.56,42.36-6.42,67.26-6,51.85-12.79,110.63-4.03,143.03,9.01,33.31,26.11,57.68,35.51,69.23.24,1.74.51,3.54.8,5.38Z" />
    <path d="M3064,965.38c0,.06-.03.57-.1,1.5-.53,6.8-3.37,35.86-15.35,70.87-.9,2.66-1.87,5.34-2.88,8.07-6.11,16.32-14.22,33.64-24.98,50.38.04-1.97.1-3.83.16-5.61,33.69-54.85,39.49-114.44,40.2-124.02.07-.83.1-1.27.1-1.33l2.86.14Z" />
    <path d="M3084.72,1238.04c-.04.09-.7,1.3-1.81,3.41-4.64,8.79-17.15,32.94-25.53,53.51-.49,1.2-.96,2.37-1.4,3.54-3.1,7.87-5.43,15.02-6.31,20.33-3.88,23.29-19.43,64.89-19.59,65.32l-1.78,4.73c.77-14.58,1.23-28.6.97-38.73,0-.01.01-.04,0-.06,1.33-15.08,3.51-35.21,7.17-60.31,7.91-54.17,9.07-206.62,9.24-243.96.03-5.14.03-8.1.03-8.32h2.86v.26c-.01,7.82-.41,191.64-9.29,252.45-6.25,42.87-8.21,71.18-8.81,84.55,4.73-13.38,13.62-39.69,16.39-56.37,3.9-23.39,34.09-79.32,35.38-81.69l.23.13,2.27,1.23Z" />
    <path d="M3031.03,1546.47c-1.43,0-2.32-.11-2.48-.13l.38-2.83c.76.1,18.85,2.19,32.45-17.6,9.51-13.83,8.97-35.38,8.07-71.08-.41-16.42-.93-36.86-.51-60.81,1.27-73.9-14.27-98.04-14.43-98.27l2.37-1.6c.66.98,16.21,24.89,14.91,99.92-.41,23.89.1,44.3.51,60.69.91,36.28,1.46,58.18-8.57,72.77-11.77,17.12-26.83,18.95-32.71,18.95Z" />
    <path d="M3067.81,1330.64l-2.78-.66c7.77-32.54,27.7-52.45,27.9-52.65l2,2.03c-.2.19-19.55,19.57-27.12,51.28Z" />
    <path d="M3121.11,1537.34c-.21,1.04-.44,2.1-.66,3.17-2.38.63-6.28,1.43-10.89,1.43-3.81,0-8.1-.54-12.38-2.17-11.54-4.38-22.41-21.32-26.73-28.71-1.14-1.94-1.83-3.23-1.94-3.46l2.53-1.33s.09.16.21.4h0c1.81,3.33,14.35,25.63,26.94,30.42,9.88,3.75,20.06,1.13,22.91.24Z" />
    <path d="M3151.19,746.87l-1.41.29s-.01-.04-.03-.1h0c-.29-1.33-3.2-13.58-11.11-18.16-3.46-1.98-7.45-2.24-11.89-.77-11.54,3.84-31.55,15.46-45.71,24.11-1.01.63-1.98,1.24-2.93,1.81-4.75,2.94-8.62,5.41-10.95,6.91-1.47.94-2.33,1.5-2.38,1.53l-1.26-1.93-.3-.46c.2-.13.94-.61,2.1-1.36,2.11-1.37,5.67-3.64,10.08-6.38,14.19-8.82,37.32-22.57,50.45-26.96,5.25-1.74,10.04-1.4,14.22,1.03,3.7,2.14,6.41,5.61,8.32,9.07.01.03.01.06.03.09.34,1.18.73,2.68,1.16,4.45.49,1.96,1.03,4.25,1.61,6.82Z" />
    <path d="M3150.88,818.11c-.24-.51-24.48-51.1-43.07-54.82-19.49-3.9-30-9.38-30.44-9.61l1.33-2.52c.1.06,10.62,5.53,29.66,9.34,19.98,4,44.07,54.26,45.09,56.39l-2.58,1.23Z" />
    <path d="M3092.48,438.13c-9.82,0-18.69-2-23.11-3.2-1.04-.28-1.74-1.19-1.75-2.27,0-1.06.68-1.97,1.7-2.26,17.76-5.05,62.91-37.21,67.44-45.13,5.06-8.86,13.38-36.31,13.46-36.58l2.73.83c-.34,1.14-8.49,28.03-13.72,37.17-5.15,9.02-48.85,39.54-67.44,45.93,4.63,1.15,12.3,2.66,20.68,2.66,13.87,0,33.76-7.93,33.96-8.01l1.06,2.65c-.83.34-20.61,8.22-35.02,8.22Z" />
    <path d="M3128.22,521.85c-1.38-2.74-2.21-2.01-2.77.8-1.48-10.02-4.03-27.63-5.77-41.55-2.21-17.59,2.16-41.8,3.73-49.66.27-1.44.47-2.33.51-2.53l1.68.37,1.11.24s-.06.29-.16.74c-.09.43-.21,1.04-.36,1.81-1.56,7.8-5.81,31.78-3.7,48.67,1.71,13.72,4.23,31.01,5.71,41.09Z" />
    <path d="M3065.01,430.92c.37.3.76.6,1.14.89l-1.71,2.28c-.13-.1-.26-.2-.39-.3-27.41-21.09-38.05-86.28-36.52-100.11.21-1.96-1.64-5.5-3.61-9.24-5.27-10.02-13.22-25.16,4.25-36.39,17.49-11.24,54.64-16.82,72.84-18.97,2.21.73,4.41,1.46,6.61,2.17-13.72,1.43-58.79,6.92-77.89,19.2-15.29,9.82-8.64,22.49-3.28,32.67,2.37,4.5,4.24,8.07,3.93,10.89-1.73,15.59,10.21,77,34.64,96.91Z" />
    <path d="M3048.74,215.76c-.71.67-1.44,1.34-2.18,1.97-1.34-1.41-2.73-2.84-4.18-4.27-10.56-10.48-23.74-20.87-36.53-23.83-1.74-.41-3.45-.67-5.17-.77-.29-.03-.56-.04-.84-.06-.31-.01-.64-.01-.96-.01-.36,0-.7.01-1.06.03-1.19.04-2.36.17-3.54.37-13.03,2.16-26.2,13.05-36.53,24.07-2.11,2.26-4.11,4.51-5.97,6.7-.77-.6-1.53-1.23-2.27-1.86,2.48-2.94,5.21-6,8.15-9.01,8.35-8.57,18.37-16.76,28.8-20.7,4.11-1.56,8.28-2.46,12.45-2.46.34,0,.69,0,1.03.01,3.94.14,7.91,1.03,11.86,2.5h.01c10.92,4.03,21.64,12.34,30.65,20.97,2.21,2.11,4.31,4.24,6.28,6.34Z" />
    <rect x="2998.62" y="186.83" width="2.86" height="378.26" transform="translate(-1.61 13.11) rotate(-.25)" />
  </g>
  </svg>