<?xml version='1.0' encoding='utf-8'?>
<svg xmlns="http://www.w3.org/2000/svg" xmlns="http://www.w3.org/2000/svg" version="1.1" viewBox="-186.41 -285.94 2761.20 2860.03"><g id="woman_1">
    <path d="M2268.16,254.88c3.32,7.74,6.52,20.67,8.24,29.64.26,1.34.48,2.47.65,3.33.48,2.42,2.61,9.4,4.85,16.8,4.53,14.92,7.74,25.72,7.74,28.74,0,2.26-.97,3.3-1.78,3.78-.62.37-1.32.51-2.02.51-1.78,0-3.54-.91-3.98-1.15l-.37-.2-.2-.37c-.1-.19-10.11-18.96-13.84-26.43-3.64-7.29-9.45-33.5-12.24-46.09l-.44-2c-2.43-10.95-9.64-21.75-9.75-21.91l2.42-1.51c.44.7,7.57,11.39,10.11,22.81l.44,2c2.77,12.48,8.52,38.46,12.01,45.43,3.42,6.83,12.13,23.21,13.6,25.97.93.44,2.28.81,2.8.5.34-.2.38-.99.38-1.32,0-2.83-4.4-17.32-7.62-27.91-2.37-7.79-4.41-14.51-4.92-17.07-.17-.86-.39-2-.65-3.35-1.58-8.23-4.87-21.6-8.06-29.06l2.62-1.13Z" />
    <path d="M2222.36,328.92c-1.06,0-2.11-.34-2.98-.99-1.22-.91-1.95-2.3-2-3.83-.21-6.09-.26-13.57,1.26-17.39l2.65,1.06c-1.5,3.75-1.18,12.81-1.06,16.23.02.65.33,1.25.85,1.64.52.39,1.19.52,1.82.35,6.06-1.56,10.64-3.36,12.91-5.06,4.89-3.67,27.52-26.04,27.75-26.26l2.01,2.03c-.94.93-23,22.73-28.05,26.52-3.28,2.46-9.37,4.37-13.91,5.54-.42.11-.84.16-1.26.16Z" />
    <path d="M2293.18,414.85c-.16-2.87-.34-5.65-.57-8.27-.23-2.66-.49-5.17-.8-7.47-.24-1.83-.5-3.53-.8-5.07-.43-2.28-.91-4.25-1.44-5.81-6.3-18.37-12.29-32.04-32.19-40.55-10.29-4.4-27.4-7.5-44.4-6.78-2.26.1-4.48.26-6.71.5h-.01c-10.27,1.07-20.14,3.67-28.11,8.35-19.09,11.22-23.1,22.91-23.26,23.4l-.19.56.26.53s.47.94,1.23,2.64c1.76,3.91,5.11,11.92,8.32,22.54.13.4.24.81.37,1.23.31,1.09.5,2.41.56,3.93h0c.33,7.85-2.47,20.82-5,32.49-1.98,9.28-3.88,18.05-4.37,24.41-.37,4.75.06,8.95,1.24,12.63.33,1.06.73,2.03,1.18,3v.03c7.64,16.32,32.17,21.83,69.27,24.84,3.47.27,6.81.44,10.02.49.8.03,1.58.03,2.36.03,1.19,0,2.36-.01,3.51-.04,19.99-.56,34.45-5.94,43.13-16.06,1.74-2.04,3.16-6.85,4.23-13.36.3-1.76.56-3.65.8-5.64.31-2.51.57-5.18.8-7.98.24-2.98.44-6.1.6-9.28.57-11.59.56-24.21-.03-35.29ZM2284.61,484.55c-10.19,11.91-29.24,16.82-56.62,14.59-46.39-3.75-71.13-10.84-69.09-37.43.49-6.17,2.34-14.85,4.33-24.01,3.23-14.98,6.57-30.47,4.38-37.85-4.15-14.02-8.67-23.87-9.82-26.3.99-2.28,5.93-12.01,21.79-21.33,21.16-12.45,58.91-9.49,76.67-1.91,18.87,8.07,24.37,20.63,30.62,38.85,1.83,5.34,3,14.82,3.57,25.8.57,11.04.54,23.6-.03,35.02-.83,16.79-2.83,31.12-5.8,34.58Z" />
    <path d="M2156.95,373.63c-.01.07-.29,1.24-.77,3.26-2.47,10.12-10.41,41.4-18.76,60.15-2.43,5.47-6.78,14.42-12.29,25.76-10.89,22.39-26.61,54.72-37.48,81.29-.54,1.3-1.06,2.6-1.57,3.87-.11.27-.21.54-.33.8-.49,1.23-.96,2.44-1.43,3.64-2.27,5.88-4.21,11.36-5.73,16.23,1.11-5.78,2.38-12.21,3.68-18.93.01-.01.01-.03.01-.04,5.8-14.81,13.49-31.95,21.32-48.66,1.06-2.24,2.11-4.48,3.17-6.71h0c5.53-11.65,10.99-22.89,15.79-32.75,5.5-11.31,9.84-20.23,12.25-25.66,9.88-22.24,19.26-62.48,19.35-62.89l.71.17,2.07.47Z" />
    <path d="M2211.96,343.58c-.26-.1-26.17-10.14-39.77-13.84-5.32-1.45-10.95-3.76-16.4-5.98-7.94-3.25-16.16-6.62-19.53-5.27l-1.06-2.65c4.43-1.78,12.43,1.49,21.67,5.28,5.36,2.2,10.91,4.47,16.06,5.87,13.74,3.75,39.79,13.84,40.05,13.94l-1.03,2.66Z" />
    <path d="M2293.93,709.88c-.43-1.41-.86-1.67-1.21-1.88-.04-.03-.07-.04-.11-.06-.21-.13-.49-.24-.8-.36-.24-.1-.5-.19-.8-.29-5.37-1.6-19.92-2.88-43.35-3.85-6.04-.23-11.74,1.94-16.05,6.14-4.33,4.2-6.65,9.84-6.58,15.85.14,11.08.73,26.9,2.7,39.33,3.81,24.17,15.06,60.41,21.46,75.74,2.67,6.41,6.68,20.73,10.92,35.89,7.1,25.28,11.61,40.85,14.52,43.76,2,2,4.75,2.64,7.5,2.64,3.47,0,6.95-1.04,8.88-1.73.31-.11.57-.21.8-.3.41-.17.69-.29.76-.31h.04s.77-.37.77-.37l.03-.9s.01-.33.03-.86c.21-6.95,1.61-54.92,2.33-102.71,1.23-81.59-.31-100.78-1.83-105.74ZM2291.01,903.4c-.14,5.05-.29,9.98-.43,14.78-.13.06-.27.1-.41.16-3.56,1.31-10.38,2.93-13.51-.2-2.61-2.61-8.81-24.74-13.79-42.52-4.27-15.25-8.31-29.65-11.05-36.22-6.18-14.83-17.55-51.47-21.27-75.1-1.94-12.25-2.51-27.93-2.66-38.92-.07-5.23,1.96-10.11,5.71-13.75,3.57-3.47,8.21-5.35,13.15-5.35.26,0,.53,0,.8.01,28.64,1.17,38.65,2.66,42.13,3.58.64.17,1.06.31,1.33.46.03,0,.06.01.09.03.26.47.5,1.43.71,2.81.31,2.08.59,5.17.8,9.09,1.14,20.9.87,65.79,0,112.89-.23,12.61-.5,25.38-.8,37.89-.26,10.38-.53,20.57-.8,30.35Z" />
    <path d="M2293.42,646.22c-.03-.11-.06-.21-.09-.3-.16-.47-.39-.89-.73-1.27-.2-.29-.49-.54-.8-.76-.24-.2-.5-.36-.8-.5-4.07-2.17-13.12-2.03-28.04-.96-9.39.67-19.15,2.43-25.67,3.78-8.51,1.76-14.96,8.64-16.06,17.1-2.08,16.23.53,27.41,7.77,33.19,5.08,4.07,23.21,5.28,38.45,5.28,11.04,0,20.56-.64,22.47-1.27.31-.11.69-.24,1.09-.79.26-.36.53-.9.8-1.74.27-.84.54-1.98.8-3.53.23-1.36.43-3.04.63-5.13v-.03c.36-3.74.63-8.79.8-15.58.29-11.14.1-24.5-.61-27.53ZM2288.82,697.87c-4.98,1.23-50.64,2.34-58.04-3.58-4.93-3.94-7.4-10.91-7.4-20.82,0-3,.23-6.27.69-9.79.93-7.25,6.48-13.15,13.81-14.68,6.44-1.33,16.05-3.06,25.3-3.71,4.11-.3,10.39-.74,15.9-.74,5.15,0,9.65.39,11.11,1.67.21.19.37.39.44.61.14.44.27,1.5.37,3.04.37,5.71.41,17.87,0,28.58-.14,3.95-.36,7.72-.63,10.86-.01.01,0,.03,0,.03-.39,4.35-.9,7.55-1.56,8.52Z" />
    <path d="M2291.81,583.29c-.2-1.58-.46-3.06-.8-4.34-.41-1.58-.96-2.9-1.66-3.83-3.68-4.91-12.72.99-21.47,6.68-2.44,1.6-4.74,3.1-6.77,4.25-5.43,3.1-16.38,10.82-24.61,16.75-2.96,2.14-5.44,4.84-7.3,7.91-1.86,3.08-3.08,6.51-3.58,10.11-1.51,10.91-.6,17.2,2.78,19.23,1.27.77,3.61,1.1,6.64,1.1,14.49,0,44.69-7.38,48.54-8.48,4.11-1.19,6.28-3.58,7.42-6.68.36-.97.61-2.03.8-3.13.47-2.93.43-6.22.39-9.59-.01-1.1-.04-2.21-.04-3.34,0-1.86.04-4.01.1-6.34.13-6.67.29-14.36-.44-20.3ZM2289.39,603.53c-.06,2.34-.1,4.51-.1,6.4,0,1.14.03,2.27.04,3.38.13,9.38-.11,14.76-6.54,16.6-10.74,3.07-47.61,10.89-52.92,7.7-.59-.36-2.1-1.87-2.1-8.01,0-2.17.19-4.91.67-8.4.89-6.41,4.43-12.28,9.72-16.08,8.18-5.9,19.05-13.56,24.36-16.59,2.1-1.2,4.44-2.73,6.91-4.34,5.11-3.33,12.36-8.07,15.92-8.07.76,0,1.36.21,1.71.7,2.78,3.71,2.5,17.55,2.33,26.7Z" />
    <path d="M2292.61,512.9c-.11-3.68-.34-6.18-.6-6.7-.06-.1-.11-.23-.2-.39-.19-.37-.46-.87-.8-1.44-2.13-3.58-6.95-10.22-13.13-8.98-6.35,1.27-53.87,37.01-55.19,52.81v.03c-.1,1.57-2.46,38.42.06,47,.7,2.4,2.64,4.33,5.31,5.31,1.14.41,2.33.61,3.46.61,1.71,0,3.35-.46,4.71-1.36,1.63-1.1,8.74-7.07,17.72-14.65,12.01-10.11,26.95-22.69,31.31-25.58,2.81-1.87,4.63-7.92,5.77-15.33.31-2.06.59-4.21.8-6.41.43-4.35.69-8.88.8-13.11.13-4.47.11-8.59,0-11.82ZM2283.65,557.2c-4.48,2.98-18.87,15.09-31.55,25.77-8.22,6.92-15.98,13.45-17.48,14.45-1.48.99-3.63,1.16-5.6.44-1.81-.67-3.11-1.91-3.56-3.43-2.36-8.05,0-45.1.06-46,1.2-14.11,46.31-48.93,52.91-50.24,5.62-1.11,10.47,8.22,10.98,9.24,1.23,3.53.64,45.49-5.77,49.77Z" />
    <path d="M2180.73,525.5c-6.79,0-12.4-1.83-15.63-6.53-14.01-20.38-9.23-44.1-9.02-45.1l2.79.59c-.05.23-4.72,23.54,8.58,42.89,2.68,3.89,7.43,5.44,13.3,5.44,22.46,0,61.19-22.64,61.68-22.93l1.45,2.46c-2.03,1.2-39.66,23.18-63.16,23.18Z" />
    <path d="M2176.94,554.81c-.26,0-.5-.01-.73-.03-11.41-1.04-18.19-9.49-20.14-25.13-1.26-10.09-.06-24.81,0-25.44l2.84.24c-.01.15-1.23,15.05,0,24.84,1.79,14.32,7.54,21.73,17.57,22.64,13.97,1.26,70.08-35.23,71.38-40.34.15-.74,0-1.38-.45-2-1.88-2.53-7.98-3.63-10.17-3.84l.27-2.84c.94.09,9.23.99,12.19,4.98.94,1.26,1.27,2.73.96,4.27-1.53,7.66-58.76,42.65-73.7,42.65Z" />
    <path d="M2218.21,584.37c-2.56,2.56-7.2,4.77-12.58,4.93-.21.01-.44.01-.66.01-.9,0-1.81-.06-2.76-.19-.77-.1-1.56-.24-2.34-.44-8.52-2.14-31.17-17.05-39.08-22.37h0c-.14-1.3-.29-2.54-.43-3.74,4.67,3.17,31.32,21.12,40.2,23.34,6.34,1.58,12.65-.6,15.6-3.55.71-.71,1.86-2.11,1.51-3.51-.11-.46-.24-1-.39-1.61-1.39-6.14-4.28-18.9-14.72-19.95-11.15-1.11-17.56-3.18-19.09-3.74-.2-.06-.31-.1-.34-.11l1.03-2.66s1.36.51,3.91,1.17c3.13.8,8.08,1.83,14.78,2.5,12.48,1.26,15.8,15.89,17.22,22.14.14.6.26,1.13.37,1.56.51,2.06-.29,4.25-2.26,6.22Z" />
    <path d="M2208.4,630.06c-.34.17-.78.26-1.33.26-.69,0-1.51-.13-2.44-.39-1.06-.27-2.24-.69-3.53-1.23-6.45-2.7-15.28-8.41-20.76-14.01-4.8-4.88-9.57-11.24-13.19-16.43-.4-1.88-.9-3.67-1.5-5.31-.41-1.14-.81-2.46-1.17-3.88,2.8,4.4,10.45,16.05,17.9,23.63,6.21,6.34,15.36,11.61,20.73,13.78.07.03.16.06.23.09,1.87.73,3.26,1.07,3.84.91,1.37-.76,4.77-11.11,1.5-24.21-1.36-5.38-5.34-12.26-6.45-14.13h-.01c-.19-.31-.29-.49-.3-.5l2.43-1.51c.06.11.57.91,1.28,2.18,1.71,3,4.64,8.55,5.82,13.26,3.34,13.39.5,25.71-3.06,27.5Z" />
    <path d="M2212.9,659.4c-.71,2.13-3.06,6.15-7.44,8.18-.17.1-.36.19-.54.26-.74.31-1.51.54-2.3.71-.94.21-1.93.31-2.93.31-2.78,0-5.77-.79-8.91-2.36-8.35-4.18-15.52-13.85-19.62-20.32h0c-.13-1.04-.29-2.03-.47-2.96-.29-1.41-.5-2.97-.67-4.64h.01c.1.2,10.02,19.36,22.03,25.36,4.44,2.23,8.39,2.64,11.76,1.26,3.77-1.57,5.81-5.08,6.35-6.71.61-2.13-4.05-16.58-9.08-29.8-.16-.43-.33-.86-.49-1.28l2.48-.94h.01l.17-.07c.01.06.04.1.06.16.34.9.79,2.04,1.29,3.37,3.33,8.94,9.39,26.06,8.27,29.47Z" />
    <path d="M2221.32,735.52c-.29.8-.96,1.34-1.87,1.47-.13.01-.27.03-.41.03-5.93,0-25.61-15.23-33.25-25.91-4.14-5.78-10.89-17.99-15.73-27.05.17-1.61.34-3.31.51-5.1,4.8,9.05,12.94,24.07,17.53,30.48,7.91,11.04,26.86,24.54,30.67,24.74,10.22-30.08-13.39-62.02-16.15-65.63-.17-.2-.26-.31-.27-.33l2.23-1.78c.1.13.41.51.89,1.14,4.81,6.37,26.51,37.51,15.86,67.94Z" />
    <path d="M2272.43,1007.41h0c-.31,2.67-.66,5.55-1.03,8.62-.43-1.96-6.12-28.03-9.71-41.2-.33-1.23-.84-3.1-1.49-5.48-18.76-69.76-31.31-110.09-37.32-119.85-3.55-5.78-11.04-16.72-19.69-29.4-4.08-6-8.45-12.38-12.73-18.72t-.01-.01c-1.01-1.53-2.04-3.04-3.07-4.55h-.01c-10.65-15.89-20.34-30.84-23.64-37.96-4.97-10.79-6.17-27.1-6.37-37.39v-.11c.97-2.17,1.93-4.33,2.86-6.42-.11,7.88.16,29.84,6.11,42.73,4.81,10.42,23.9,38.38,39.23,60.85,8.68,12.69,16.16,23.66,19.76,29.51,1.94,3.16,4.43,9.15,7.18,16.89,0,.01.01.03.03.06,1.9,5.3,3.91,11.38,6,17.96h0c9.38,29.67,19.92,68.81,24.46,85.69.64,2.38,1.14,4.24,1.47,5.47,2.47,9.04,5.91,24.07,7.98,33.34Z" />
    <path d="M2277.52,942.41c-1.04.37-1.94.83-2.6,1.41-3.83-4.24-12.62-14.25-15.63-20.27-2.31-4.61-12.95-25.4-20.76-40.62h0c-4.77-9.31-8.47-16.52-8.57-16.72l2.54-1.31s.01.03.03.06c1.01,1.97,25.63,49.97,29.31,57.32,2.94,5.9,12.21,16.33,15.68,20.13Z" />
    <path d="M2266.52,1064.38c-.24,4.07-.4,7.92-.44,11.42-3.31-15.52-9.94-45.77-14.43-62-4.93-17.72-15.43-39.63-29.98-69.97-3.93-8.19-8.17-17.02-12.68-26.58-20-42.35-39.1-117.37-41.35-126.34-.14-.54-.21-.84-.23-.89l2.77-.69c.03.09.29,1.17.77,3.08h.01c3.9,15.32,21.89,83.96,40.6,123.61,4.51,9.55,8.75,18.37,12.68,26.57,14.61,30.47,25.16,52.47,30.14,70.44,3.63,13.05,8.59,35.09,12.14,51.34Z" />
    <path d="M2267.64,1134.91c-2.58-9.58-13.78-51.47-16.03-67.23-.98-6.97-5.9-20.4-12.56-35.71-1.07-2.43-2.17-4.91-3.31-7.42h0c-9.29-20.42-20.97-42.69-30.41-56.85-15.29-22.94-22.96-52.1-29.72-77.82-1.06-4.05-2.1-8.01-3.14-11.84-3.83-14.02-7.34-36.56-9.88-55.35.01,15.36-.76,32.91-3.7,45.26-2.41,10.15-6.08,19.65-9.97,29.7-1.46,3.77-2.93,7.55-4.34,11.45-.39,1.04-.77,2.07-1.14,3.13h0c-4.28,12.09-8.02,25.18-9.67,41.02-3.23,31.19,1.66,119.3,3.04,142.67-1.67-9.25-3.08-17.02-4.08-22.4,0-.04-.01-.09-.01-.13-1.86-35.85-4.34-95.74-1.78-120.44,2.36-22.74,8.95-39.82,15.33-56.32,3.84-9.97,7.47-19.36,9.84-29.34,6.17-25.87,2.53-76.98,2.48-77.5l2.84-.24c.07.6,6.37,60.53,13.79,87.76,1.04,3.81,2.08,7.78,3.16,11.85,6.7,25.51,14.29,54.42,29.34,76.98,18.05,27.07,44.24,83.79,46.73,101.14,1.68,11.76,8.61,39.05,12.93,55.49v.03c.1,3.87.19,7.92.27,12.12Z" />
    <path d="M2192.02,798.95l-1.2,2.58s-.14-.06-.36-.16t-.01-.01c-1.88-.87-10.76-4.97-19.5-8.95-1.11-.51-2.21-1.01-3.31-1.51-2.96-1.34-5.8-2.63-8.22-3.7-9.32-4.14-16.03-16.83-18.53-22.21.26-1.13.5-2.17.74-3.16h0s.84-.34.84-.34c.07.19,7.47,18.37,18.1,23.1,7.9,3.51,20.16,9.15,26.8,12.21h.01c2.78,1.3,4.58,2.13,4.64,2.16Z" />
    <path d="M2200.25,1283.06c-7.4,14.79-25.21,20.83-31.92,22.63-.01-.96-.03-1.96-.06-2.97,6.78-1.94,22.86-7.81,29.42-20.94,8.45-16.9,7.48-32.35,4.88-55.77-1.4-12.62-17.36-75.98-31.45-131.91-11.12-44.16-21.63-85.86-23.84-98.03-4.33-23.8-4.01-71.18-3.85-83.85v-.03c.03-1.94.06-3.07.06-3.14l1.09.03,1.77.03c-.01.59-1.2,59.25,3.76,86.45,2.2,12.08,12.69,53.74,23.8,97.84,13.31,52.85,27.03,107.31,30.68,127.02.41,2.21.7,3.98.84,5.27.14,1.26.27,2.5.4,3.71,2.33,21.9,2.78,36.96-5.57,53.65Z" />
    <path d="M2268.52,1293.22c-.3,2.36-.63,4.8-1,7.28-1.54,2-3.38,3.67-5.54,4.55-1.14.47-2.3.71-3.5.71-2.01,0-4.11-.69-6.24-2.04-11.56-7.35-12.35-44.12-10.85-74.75.09-1.57.16-3.11.24-4.64.34-5.78.74-11.28,1.16-16.2,2.44-29.21-6.65-176.99-7.07-183.59v-.03c-.01-.1-.01-.16-.01-.19l2.86-.19c.01.2.19,3.01.47,7.82,1.91,31.74,8.77,150.41,6.6,176.41-4.41,52.97-1.44,86.85,8.15,92.94,2.58,1.66,4.91,2.01,7.11,1.1,3.23-1.31,5.8-5.24,7.62-9.19Z" />
    <path d="M2229.3,1693.49l-.03,1.03-.98.3c-.27.09-23.6,7.25-35.48,16.15.06-1.17.14-2.38.23-3.64,7.8-5.28,18.69-9.72,26.13-12.45,1.04-.37,2.03-.71,2.91-1.01,1.94-.69,3.47-1.17,4.4-1.47.27-9.89,2.31-88.53-.01-110.66-2.57-24.41-27.7-176.09-35.16-205.95-5.77-23.09-19.92-35.58-25.68-39.85.19-1.09.34-2.14.49-3.18,5.15,3.5,21.47,16.35,27.97,42.33,7.48,29.92,32.65,181.89,35.24,206.34,2.48,23.7.03,111.17,0,112.06Z" />
    <path d="M2222.08,1693.86c-.01.67-.04,1.24-.1,1.71l-2.84-.31c.01-.11.03-.24.03-.39,1.2-14.91-14.73-117.53-32.87-171.92-14.41-43.19-21.74-127.78-24.38-164.98v-.03c.7-3.97,1.4-7.92,2.06-11.79,1.7,26.74,8.92,127.58,25.04,175.91,18.2,54.62,33.48,152.66,33.07,171.81Z" />
    <path d="M2238.1,1415.75c-.87,14.08-.69,51.34.11,94.04h0c.03,2.06.07,4.11.11,6.18h0c1.5,77.08,4.81,168.8,7.21,174.41.81,1.91,1.73,3,2.57,3.04h.07c1.01,0,2.24-1.26,3.03-2.31.29,1.11.59,2.21.9,3.31-1.04.99-2.4,1.86-3.93,1.86h-.23c-2.04-.11-3.74-1.73-5.04-4.77-3.85-9.01-10.15-235.94-7.65-275.94,2.5-40.15,22.99-69.89,23.2-70.17l.53.37c-.1,1.37-.19,2.87-.26,4.51-5.21,8.64-18.65,33.72-20.63,65.47Z" />
    <path d="M2259.7,1534.03h0c-.07,1.04-.16,2.07-.23,3.1-10.11-4.67-17.4-14.88-21.14-21.14h0c-1.73-2.9-2.68-4.95-2.81-5.24l2.58-1.2s.04.1.11.24h0c1.07,2.17,9.05,17.86,21.49,24.24Z" />
    <path d="M2149.71,597.91c-.43,2.17-.86,4.35-1.28,6.57-6.27,7.84-15.42,16.48-25.34,16.48-2.57,0-5.18-.59-7.81-1.9-12.14-6.07-20.43-30.7-25.23-50.01-2.08-8.42-3.5-15.85-4.3-20.29h0c-.03-.26-.07-.5-.11-.73-.34-1.96-.54-3.21-.59-3.54l2.6-.4.21-.03c.1.63,9.77,62.98,28.7,72.44,1.54.76,3.07,1.23,4.6,1.43.96.13,1.91.16,2.87.1,10.39-.73,20.17-12.25,25.68-20.12Z" />
    <path d="M2123.85,619.88l-2.84-.25c.02-.2,1.79-20.68,5.05-66.38,3.28-45.89,37.71-152.88,38.06-153.95l2.72.88c-.35,1.07-34.67,107.73-37.92,153.28-3.27,45.73-5.04,66.22-5.05,66.43Z" />
    <path d="M2098.58,686.99c-.34,3.7-.79,7.2-1.36,10.47h-.01c-.39,2.31-.86,4.51-1.38,6.57-9.94,38.33-50.73,125.02-61.76,148.14.34-2.18.77-5.37,1.28-9.37,14.55-30.82,48.77-104.99,57.71-139.49,10.12-39.03-5.14-130.71-8.74-150.92,0,0,.01-.01,0-.01-.43-2.46-.69-3.85-.71-3.97l2.03-.39.44-.07h0s.34-.07.34-.07c.23,1.17,1.73,9.17,3.63,21.16,4.65,29.3,11.74,82.42,8.54,117.96Z" />
    <path d="M2144.01,627.06c-.27,1.4-.54,2.78-.81,4.15-8.41,6.54-31.38,27.11-45.76,66.33l-.23-.09-2.46-.89c1.21-3.33,2.5-6.52,3.83-9.58,16.58-38.26,40.57-56.52,45.43-59.93Z" />
    <path d="M2107.43,474.07c0,6.64-.34,14.63-.66,20.2-.2,4.07-.39,6.85-.39,6.91l-2.78-.19h-.07c.01-.16,1.04-15.55,1.04-26.93,0-7.28-5.48-27.03-9.37-40.09.07-2.88.17-5.87.29-8.89,3.4,10.95,11.94,39.45,11.94,48.98Z" />
    <path d="M2222.44,1239.08c-1.3,0-2.62-.16-3.95-.51-13.29-3.49-16.3-17.03-16.42-17.6l2.79-.59c.03.12,2.8,12.4,14.36,15.44,11.52,3.01,22.64-11.72,22.75-11.87l2.29,1.7c-.45.61-10.13,13.43-21.81,13.43Z" />
    <path d="M2244.45,271.38c-.46,1.29-10.64,30-23.31,36.32-.81.4-1.64.71-2.47.93-.2.04-.4.1-.61.14-4.58,1.03-11.59,1.37-18.97,1.37-10.04,0-20.74-.64-26.91-1.07-2.93-.21-4.84-.37-5.17-.4l.24-2.86c.14.01,5.38.47,12.56.87h.03c12.22.67,30.07,1.2,38.15-.83,7.6-1.9,14.82-14.81,19.26-24.49,3.16-2.73,5.81-5.94,7.18-10.01h.03Z" />
    <path d="M2318.08,256.01c-3.2,7.46-6.48,20.82-8.06,29.05-.26,1.35-.48,2.49-.65,3.35-.51,2.55-2.55,9.27-4.92,17.05-3.22,10.59-7.62,25.09-7.62,27.92,0,.33.04,1.12.38,1.32.52.31,1.87-.07,2.8-.5,1.47-2.76,10.18-19.13,13.6-25.97,3.49-6.97,9.24-32.95,12.01-45.43l.44-2c2.55-11.46,9.53-20.51,9.97-21.14l2.35,1.63c-.1.15-7.1,9.23-9.52,20.13l-.44,2c-2.79,12.59-8.6,38.8-12.24,46.09-3.74,7.47-13.74,26.24-13.84,26.43l-.2.37-.37.2c-.44.24-2.19,1.15-3.98,1.15-.69,0-1.39-.14-2.02-.51-.81-.48-1.78-1.52-1.78-3.78,0-3.02,3.21-13.82,7.75-28.75,2.24-7.39,4.37-14.37,4.85-16.78.17-.85.39-1.99.65-3.33,1.72-8.97,4.56-20.69,7.88-28.43l2.98-.08Z" />
    <path d="M2361.25,328.92c-.42,0-.84-.05-1.26-.16-4.53-1.17-10.63-3.08-13.91-5.54-5.05-3.79-27.11-25.59-28.05-26.52l2.01-2.03c.23.23,22.86,22.59,27.75,26.26,2.27,1.7,6.85,3.5,12.91,5.06.64.16,1.3.03,1.82-.35.52-.39.83-.99.85-1.64.12-3.42.43-12.49-1.06-16.23l2.65-1.06c1.72,4.29,1.4,13.47,1.26,17.39-.05,1.52-.78,2.92-2,3.83-.87.65-1.92.99-2.98.99Z" />
    <path d="M2418.19,404.58c.06-1.51.23-2.84.56-3.93.13-.41.24-.83.37-1.23,3.23-10.62,6.57-18.66,8.32-22.56h0c.74-1.68,1.2-2.6,1.21-2.63l.27-.53-.19-.56h0c-.21-.63-4.3-12.25-23.26-23.4-7.97-4.68-17.86-7.3-28.13-8.35h-.01c-2.23-.24-4.45-.4-6.7-.5-17-.71-34.11,2.37-44.4,6.78-19.92,8.51-25.9,22.17-32.19,40.55-.53,1.56-1.01,3.53-1.44,5.81-.3,1.54-.56,3.24-.8,5.07-.31,2.3-.57,4.81-.8,7.47-.23,2.66-.43,5.45-.57,8.37-.59,10.99-.6,23.51-.03,35.02.14,3.26.34,6.42.6,9.45.23,2.8.49,5.47.8,7.98.24,1.98.5,3.88.8,5.64,1.07,6.51,2.48,11.32,4.23,13.36,8.67,10.12,23.13,15.5,43.12,16.06h.01c1.16.03,2.31.04,3.51.04.77,0,1.56,0,2.34-.03,3.21-.04,6.57-.21,10.04-.49,37.11-3.01,61.63-8.52,69.27-24.84.01-.01,0-.03,0-.03.46-.97.86-1.94,1.19-3,1.18-3.68,1.61-7.88,1.24-12.63-.5-6.37-2.38-15.13-4.38-24.41-2.51-11.68-5.31-24.64-4.98-32.48h0ZM2420.38,437.68c1.97,9.18,3.84,17.86,4.31,24.03,2.04,26.6-22.7,33.68-69.09,37.43-27.35,2.21-46.41-2.68-56.62-14.59-2.96-3.44-4.95-17.69-5.78-34.41-.59-11.51-.61-24.19-.03-35.29.57-10.95,1.74-20.37,3.57-25.7,6.24-18.22,11.75-30.78,30.61-38.85,9.11-3.88,23.49-6.55,38.18-6.55s28.2,2.4,38.5,8.47c15.86,9.32,20.79,19.05,21.79,21.33-1.16,2.43-5.67,12.28-9.82,26.3-2.18,7.38,1.16,22.86,4.38,37.83Z" />
    <path d="M2507.59,578.41c-4.98-24.91-32.6-81.69-49.1-115.62-5.51-11.34-9.87-20.29-12.3-25.76-10-22.49-19.43-63-19.53-63.4l2.78-.64c.09.4,9.47,40.65,19.36,62.89,2.41,5.42,6.75,14.36,12.26,25.67,17.63,36.25,44.28,91.04,49.33,116.3l-2.8.56Z" />
    <path d="M2443.73,318.32c-4.1.59-10.08,3.03-15.92,5.43-5.44,2.23-11.08,4.54-16.39,5.98-9.68,2.64-25.6,8.48-34.06,11.68h-.01c-3.43,1.28-5.63,2.14-5.7,2.17l-1.03-2.66s.01,0,.03-.01c1.04-.4,26.5-10.24,40.02-13.93,5.15-1.4,10.71-3.67,16.06-5.87,4.3-1.76,8.32-3.41,11.85-4.48.01-.01.01,0,.01,0,1.69.5,3.4,1.06,5.14,1.7Z" />
    <path d="M2352,709.58c-4.11-3.98-9.47-6.15-15.15-6.15-.3,0-.6,0-.9.01-23.43.97-37.98,2.26-43.34,3.85-.3.1-.57.19-.8.29-.31.11-.59.23-.8.36-.04.01-.07.03-.11.06-.36.21-.79.47-1.21,1.88-1.53,4.95-3.07,24.14-1.84,105.74.73,47.83,2.13,95.83,2.33,102.72.01.51.03.8.03.84l.03.9.79.36h.04c.07.04.33.16.76.33.23.09.49.19.8.3,1.93.7,5.4,1.73,8.88,1.73,2.74,0,5.5-.64,7.5-2.64,2.91-2.91,7.42-18.47,14.51-43.76,4.25-15.16,8.27-29.48,10.94-35.89,6.38-15.33,17.65-51.55,21.46-75.74,1.97-12.42,2.54-28.25,2.7-39.33.07-6.02-2.27-11.65-6.58-15.85ZM2353.07,764.3c-3.74,23.63-15.09,60.26-21.29,75.1-2.73,6.57-6.77,20.97-11.04,36.22-4.98,17.79-11.19,39.9-13.79,42.52-3.13,3.13-9.97,1.51-13.52.19-.14-.04-.29-.09-.41-.14-.14-4.63-.29-9.38-.41-14.25-.29-9.94-.56-20.32-.8-30.88-.3-12.49-.57-25.24-.8-37.85-.87-47.1-1.14-92,0-112.92.21-3.94.49-7.02.8-9.11.21-1.4.46-2.34.71-2.81.03-.01.06-.03.09-.03.27-.14.69-.29,1.33-.46,1.38-.37,3.83-.83,8.07-1.33,6.38-.73,16.86-1.56,34.07-2.26,5.23-.2,10.19,1.68,13.95,5.34,3.74,3.64,5.77,8.52,5.71,13.75-.14,10.99-.73,26.67-2.66,38.92Z" />
    <path d="M2362.38,663.32c-1.1-8.47-7.55-15.35-16.06-17.1-6.52-1.36-16.28-3.11-25.68-3.78-14.92-1.06-23.96-1.2-28.03.96-.3.14-.56.3-.8.5-.31.21-.6.47-.8.76-.34.39-.57.8-.73,1.27-.03.09-.06.19-.09.3-.71,3.04-.9,16.39-.63,27.53.17,6.78.46,11.84.81,15.58-.01.01,0,.03,0,.03.19,2.08.4,3.77.63,5.13.26,1.54.51,2.68.8,3.53.27.84.54,1.38.8,1.74.4.54.77.67,1.09.79,1.91.64,11.44,1.27,22.47,1.27,15.23,0,33.37-1.21,38.45-5.28,5.62-4.5,8.47-12.26,8.47-23.13,0-3.1-.24-6.45-.7-10.07ZM2352.83,694.29c-7.4,5.93-53.07,4.81-58.04,3.58-.66-.97-1.17-4.17-1.56-8.52v-.03c-.27-3.1-.49-6.77-.63-10.65-.41-10.75-.37-23.06,0-28.8.1-1.54.23-2.6.37-3.04.07-.23.23-.44.44-.61,3.04-2.64,19.05-1.5,27.01-.93,9.25.66,18.86,2.38,25.3,3.71,3.65.77,6.88,2.63,9.31,5.2,2.41,2.57,4.03,5.85,4.5,9.48,1.96,15.19-.3,25.48-6.71,30.61Z" />
    <path d="M2357.99,620.82c-1-7.18-4.95-13.75-10.88-18.02-8.24-5.92-19.19-13.65-24.61-16.75-2.03-1.16-4.34-2.66-6.77-4.25-8.75-5.7-17.79-11.58-21.49-6.68-.69.93-1.23,2.21-1.64,3.78-.34,1.3-.6,2.77-.8,4.38-.73,5.94-.57,13.63-.44,20.32.04,2.31.09,4.47.09,6.32,0,1.13-.01,2.24-.03,3.34-.04,3.37-.1,6.67.39,9.59.17,1.1.43,2.16.8,3.13,1.13,3.1,3.31,5.5,7.42,6.68,3.85,1.1,34.05,8.48,48.54,8.48,3.03,0,5.35-.33,6.64-1.1,2.33-1.4,3.48-4.83,3.48-10.38,0-2.51-.23-5.45-.7-8.85ZM2353.74,637.61c-5.33,3.2-42.19-4.63-52.92-7.7-6.44-1.84-6.67-7.22-6.54-16.6.01-1.11.03-2.24.03-3.38,0-1.87-.04-4.05-.09-6.38-.19-9.17-.46-23,2.31-26.71.37-.49.96-.7,1.71-.7,3.56,0,10.82,4.74,15.92,8.07,2.48,1.61,4.81,3.14,6.92,4.34,5.31,3.03,16.18,10.69,24.36,16.59,5.3,3.8,8.84,9.67,9.72,16.08,1.84,13.32-.63,15.92-1.43,16.4Z" />
    <path d="M2360.92,548.24v-.03c-1.31-15.8-48.84-51.54-55.19-52.81-6.14-1.24-10.99,5.4-13.12,8.98-.34.57-.61,1.07-.8,1.44-.09.16-.14.29-.2.39-.26.51-.49,3.01-.6,6.7-.11,3.23-.13,7.35,0,11.82.11,4.23.37,8.75.8,13.11.21,2.2.49,4.35.8,6.41,1.14,7.41,2.96,13.46,5.77,15.33,4.35,2.9,19.29,15.48,31.3,25.58,8.99,7.57,16.1,13.55,17.73,14.65,1.36.9,2.98,1.36,4.7,1.36,1.14,0,2.31-.2,3.46-.61,2.68-.99,4.61-2.91,5.33-5.31,2.51-8.58.16-45.43.04-47ZM2358.14,594.44c-.44,1.51-1.74,2.76-3.56,3.43-1.97.71-4.13.54-5.6-.44-1.5-1-9.27-7.54-17.48-14.45-12.69-10.68-27.07-22.79-31.55-25.77-6.41-4.28-7-46.24-5.8-49.71.5-1.01,4.85-9.39,10.07-9.39.31,0,.63.03.94.1,6.6,1.31,51.71,36.14,52.91,50.24.06.9,2.41,37.95.06,46Z" />
    <path d="M2402.87,525.5c-23.5,0-61.13-21.99-63.16-23.18l1.45-2.46c.62.36,62.07,36.28,74.98,17.49,13.33-19.38,8.63-42.66,8.58-42.89l2.79-.59c.21,1,4.99,24.72-9.02,45.1-3.23,4.7-8.84,6.53-15.63,6.53Z" />
    <path d="M2406.67,554.81c-14.94,0-72.17-34.99-73.7-42.65-.31-1.53.02-3.01.96-4.27,2.96-3.99,11.26-4.89,12.19-4.98l.27,2.84c-2.19.21-8.3,1.32-10.17,3.84-.46.62-.6,1.25-.45,2,1.27,5.02,55.53,40.37,70.63,40.37.26,0,.51-.01.75-.03,10.03-.91,15.78-8.32,17.57-22.64,1.23-9.8,0-24.7,0-24.84l2.84-.24c.05.62,1.26,15.35,0,25.44-1.95,15.64-8.73,24.09-20.14,25.13-.23.02-.48.03-.73.03Z" />
    <path d="M2423.24,562.57c-.14,1.2-.29,2.44-.43,3.73h0c-7.92,5.34-30.55,20.24-39.08,22.39-.79.2-1.57.34-2.34.44-.94.13-1.86.19-2.76.19-.23,0-.46,0-.67-.01-5.38-.17-10.01-2.37-12.56-4.93-1.97-1.97-2.77-4.17-2.26-6.22.1-.43.23-.96.36-1.56,1.43-6.25,4.74-20.89,17.22-22.14,6.68-.67,11.64-1.7,14.76-2.5,2.58-.66,3.91-1.17,3.94-1.17l1.03,2.66s-.14.06-.36.13c-1.56.56-7.97,2.61-19.09,3.73-10.42,1.04-13.32,13.81-14.72,19.95-.14.61-.26,1.16-.37,1.61-.36,1.4.79,2.8,1.5,3.51,2.97,2.97,9.29,5.14,15.62,3.55,8.88-2.23,35.54-20.17,40.2-23.34Z" />
    <path d="M2419.13,589.07c-.36,1.43-.76,2.74-1.17,3.88-.6,1.63-1.08,3.4-1.5,5.28h0c-3.63,5.21-8.41,11.58-13.21,16.46-5.5,5.58-14.32,11.31-20.76,14.02-1.29.53-2.46.94-3.51,1.21-.93.26-1.76.39-2.44.39-.54,0-.98-.09-1.33-.26-3.55-1.78-6.41-14.11-3.06-27.5,1.17-4.71,4.11-10.27,5.81-13.26.73-1.27,1.24-2.07,1.3-2.18l2.43,1.51s-.11.19-.3.5c-1.13,1.87-5.11,8.75-6.47,14.13-3.28,13.11.11,23.47,1.56,24.24.56.14,1.91-.2,3.78-.96.07-.01.14-.04.21-.09,5.33-2.16,14.51-7.42,20.74-13.76,7.45-7.58,15.11-19.23,17.9-23.63Z" />
    <path d="M2413.59,638.61c-.17,1.67-.39,3.21-.67,4.63-.19.94-.34,1.93-.49,2.97-4.1,6.47-11.25,16.12-19.6,20.3-3.16,1.57-6.12,2.36-8.91,2.36-1,0-1.97-.1-2.93-.31-.79-.16-1.56-.4-2.31-.71-.19-.07-.37-.16-.54-.26-4.37-2.03-6.71-6.05-7.42-8.18-1.13-3.41,4.94-20.53,8.27-29.47.5-1.33.94-2.48,1.29-3.38.01-.04.04-.1.06-.14l.16.06,2.5.96c-.17.43-.33.87-.49,1.3-5.01,13.22-9.68,27.65-9.07,29.78.54,1.63,2.57,5.14,6.35,6.71,3.36,1.38,7.32.97,11.76-1.26,12.01-6,21.93-25.16,22.02-25.36h.03Z" />
    <path d="M2413.56,684.05h0c-4.85,9.08-11.59,21.27-15.73,27.05-7.65,10.68-27.33,25.91-33.27,25.91-.14,0-.27-.01-.4-.03-.91-.13-1.6-.67-1.88-1.47-10.64-30.44,11.05-61.58,15.86-67.94.49-.63.8-1.01.9-1.14l2.23,1.78s-.1.13-.27.33c-2.77,3.61-26.38,35.55-16.15,65.63,3.81-.2,22.76-13.71,30.67-24.74,4.58-6.41,12.73-21.43,17.53-30.48.17,1.78.34,3.5.51,5.1Z" />
    <path d="M2426.24,721.32v.03c-.19,10.28-1.36,26.67-6.35,37.51-3.28,7.12-12.98,22.07-23.66,37.95h0c-1.01,1.53-2.04,3.04-3.08,4.57h-.01c-4.27,6.37-8.64,12.75-12.73,18.75-8.65,12.66-16.12,23.6-19.67,29.38-1.77,2.9-4.14,8.48-7.07,16.72,0,.01-.01.03-.03.06-6.92,19.57-17.06,54.08-30.25,103.14-.63,2.36-1.13,4.21-1.46,5.43-3.55,12.99-9.12,38.5-9.71,41.1-.37-3.03-.71-5.88-1.03-8.51h0c2.07-9.28,5.51-24.31,7.98-33.35.33-1.21.83-3.06,1.46-5.41,4.54-16.89,15.09-56.11,24.48-85.78h0s.01-.03.01-.04c2.06-6.52,4.07-12.58,5.94-17.85.03-.06.06-.09.06-.1,2.74-7.74,5.21-13.73,7.17-16.89,3.6-5.85,11.09-16.8,19.76-29.51,15.33-22.47,34.44-50.43,39.25-60.85,5.94-12.89,6.22-34.82,6.1-42.72.93,2.1,1.88,4.21,2.86,6.38Z" />
    <path d="M2353.65,866.21s-.01.03-.03.06c-.37.73-3.95,7.71-8.52,16.6h0c-7.81,15.23-18.46,36.05-20.77,40.68-3.01,6.02-11.79,16.02-15.63,20.26-.66-.57-1.56-1.03-2.6-1.4,3.45-3.8,12.72-14.23,15.68-20.13,3.65-7.31,28.04-54.84,29.28-57.28.03-.06.06-.09.06-.1l2.54,1.31Z" />
    <path d="M2416.2,790.02s-.09.34-.23.89c-2.24,8.97-21.36,83.99-41.35,126.34-4.53,9.57-8.77,18.4-12.69,26.61-14.53,30.32-25.04,52.23-29.97,69.94-4.5,16.23-11.12,46.49-14.43,62-.04-3.51-.2-7.38-.44-11.46,0,0-.01,0,0-.01,3.54-16.25,8.51-38.25,12.12-51.28,5-17.96,15.55-39.98,30.15-70.43,3.93-8.19,8.15-17.03,12.68-26.58,18.72-39.66,36.69-108.29,40.59-123.61.5-1.91.76-3,.79-3.08l2.78.69Z" />
    <path d="M2450.91,1073.39c-1,5.43-2.43,13.31-4.13,22.7,1.37-23.1,6.3-111.57,3.06-142.86-1.64-15.85-5.38-28.94-9.67-41.03h-.01c-.37-1.06-.74-2.08-1.11-3.11-1.43-3.9-2.9-7.68-4.34-11.45-3.88-10.05-7.55-19.55-9.97-29.7-2.94-12.35-3.73-29.9-3.7-45.26-2.54,18.79-6.05,41.33-9.88,55.35-1.04,3.83-2.08,7.78-3.16,11.85-6.75,25.71-14.42,54.87-29.72,77.81-9.44,14.16-21.12,36.45-30.41,56.87h0c-1.14,2.51-2.24,4.97-3.3,7.38v.03c-6.68,15.3-11.58,28.74-12.56,35.71-2.26,15.75-13.42,57.58-16.03,67.2.09-4.2.17-8.27.27-12.15,4.33-16.45,11.25-43.72,12.93-55.47,2.47-17.35,28.68-74.07,46.73-101.14,15.03-22.56,22.63-51.47,29.34-76.97,1.07-4.07,2.11-8.04,3.16-11.86,7.42-27.23,13.72-87.16,13.78-87.76l2.86.24c-.04.51-3.68,51.63,2.47,77.5,2.37,9.98,6.01,19.37,9.85,29.34,6.38,16.5,12.96,33.58,15.32,56.32,2.56,24.7.07,84.61-1.77,120.45Z" />
    <path d="M2392.79,801.54l-1.2-2.59c.2-.09,20.25-9.38,31.44-14.36,10.66-4.74,18.04-22.93,18.11-23.11l2.65,1.06c-.32.79-7.89,19.45-19.6,24.66-11.17,4.97-31.2,14.24-31.4,14.34Z" />
    <path d="M2381.04,1226.01c-2.6,23.41-3.57,38.85,4.88,55.77,6.57,13.15,22.67,19,29.42,20.94-.03,1.01-.04,2.01-.06,2.97-6.7-1.8-24.53-7.82-31.92-22.63-8.35-16.69-7.9-31.75-5.57-53.65.13-1.21.26-2.46.4-3.71.14-1.29.43-3.06.83-5.25,3.66-19.7,17.38-74.15,30.68-127.01,11.12-44.12,21.62-85.79,23.81-97.87,4.94-27.2,3.75-85.86,3.74-86.45l1.78-.03,1.07-.03c0,.07.03,1.18.04,3.13h.01c.17,12.64.49,60.08-3.84,83.89-2.21,12.16-12.72,53.88-23.86,98.05-14.08,55.91-30.04,119.27-31.44,131.88Z" />
    <path d="M2347.89,1024.33s0,.1-.01.23v.03c-.43,7.15-9.49,154.39-7.05,183.54.41,4.94.81,10.44,1.16,16.23.09,1.51.17,3.06.24,4.63,1.5,30.62.71,67.39-10.86,74.74-2.13,1.36-4.21,2.04-6.24,2.04-1.18,0-2.36-.24-3.48-.71-2.16-.88-4-2.56-5.54-4.55-.37-2.48-.7-4.93-1-7.28,1.74,3.83,4.28,7.82,7.62,9.19,2.2.91,4.53.56,7.11-1.1,9.59-6.1,12.55-39.98,8.14-92.94-2.16-25.98,4.7-144.64,6.61-176.41v-.03c.29-4.78.46-7.6.47-7.8l2.84.19Z" />
    <path d="M2418,1335.94c-5.77,4.27-19.92,16.76-25.68,39.85-7.47,29.85-32.59,181.52-35.16,205.95-2.33,22.13-.29,100.77-.03,110.66.94.3,2.47.8,4.41,1.47.89.3,1.87.66,2.91,1.03,7.44,2.71,18.33,7.15,26.13,12.44.09,1.26.17,2.47.21,3.64-11.89-8.89-35.19-16.06-35.48-16.15l-.97-.3-.04-1.03c-.01-.89-2.48-88.36.01-112.06,2.57-24.47,27.75-176.42,35.24-206.34,6.5-25.98,22.81-38.83,27.97-42.33.14,1.04.3,2.1.49,3.18Z" />
    <path d="M2421.68,1357.94s0,.04,0,.07c-2.64,37.22-9.98,121.77-24.37,164.94-18.15,54.42-34.08,157.09-32.87,171.94,0,.13.01.26.03.37l-2.84.31c-.06-.47-.09-1.04-.1-1.71-.41-19.15,14.86-117.19,33.07-171.81,16.13-48.41,23.37-149.49,25.04-176.03.66,3.91,1.36,7.91,2.04,11.92Z" />
    <path d="M2340.71,1691.51c-1.31,3.04-3,4.65-5.04,4.77h-.23c-1.53,0-2.88-.87-3.93-1.86.31-1.1.61-2.2.9-3.31.83,1.08,2.1,2.38,3.08,2.31.84-.04,1.77-1.13,2.58-3.04,2.4-5.61,5.71-97.34,7.22-174.42.03-2.08.07-4.14.1-6.2h0c.79-42.7.99-79.94.1-94.01-1.98-31.72-15.39-56.78-20.62-65.45-.06-1.66-.14-3.17-.26-4.54l.53-.37c.21.29,20.69,30.02,23.2,70.17,2.5,40-3.8,266.94-7.65,275.94Z" />
    <path d="M2348.1,1510.75c-.13.29-1.08,2.33-2.8,5.21-3.74,6.27-11.04,16.48-21.16,21.16-.09-1.04-.16-2.04-.23-3.07,12.52-6.42,20.53-22.29,21.49-24.29h0c.06-.13.1-.2.1-.21l2.6,1.2Z" />
    <path d="M2498.57,544.48c-.04.33-.24,1.58-.59,3.54-.04.23-.09.47-.11.73-.8,4.44-2.21,11.86-4.3,20.29h0c-4.8,19.33-13.11,43.94-25.24,50.01-2.63,1.31-5.24,1.9-7.8,1.9-9.92,0-19.07-8.64-25.34-16.48-.43-2.21-.86-4.41-1.28-6.58,5.51,7.85,15.29,19.39,25.68,20.12.96.06,1.9.04,2.87-.09,1.53-.2,3.07-.66,4.6-1.43,18.93-9.47,28.6-71.81,28.68-72.44l.23.03,2.6.4Z" />
    <path d="M2459.76,619.88c-.02-.2-1.79-20.69-5.06-66.43-3.25-45.55-37.58-152.21-37.92-153.28l2.72-.88c.35,1.08,34.78,108.06,38.06,153.95,3.27,45.71,5.04,66.18,5.05,66.38l-2.84.25Z" />
    <path d="M2549.55,852.16c-11.04-23.11-51.83-109.8-61.76-148.14-.53-2.06-1-4.25-1.38-6.57-.59-3.27-1.03-6.77-1.37-10.47-3.2-35.54,3.88-88.66,8.54-117.96,1.9-11.99,3.4-19.99,3.63-21.16l.34.07.44.07,2.01.39c-.03.11-.29,1.51-.71,3.95-3.57,20.16-18.85,111.89-8.74,150.95,8.95,34.49,43.17,108.66,57.72,139.49.51,4,.94,7.18,1.29,9.37Z" />
    <path d="M2488.86,696.57l-2.46.89-.23.09c-14.39-39.22-37.36-59.79-45.76-66.33-.27-1.37-.54-2.76-.81-4.15,4.85,3.41,28.85,21.67,45.43,59.93,1.33,3.06,2.61,6.25,3.83,9.58Z" />
    <path d="M2488.4,433.98c-3.88,13.06-9.37,32.81-9.37,40.09,0,11.38,1.03,26.77,1.04,26.93h-.07l-2.78.19c0-.06-.2-2.86-.4-6.92-.3-5.57-.64-13.55-.64-20.19,0-9.54,8.54-38.03,11.94-48.98.11,3.03.21,6,.29,8.88h0Z" />
    <path d="M2361.17,1239.08c-11.68,0-21.36-12.83-21.81-13.43l2.29-1.7c.11.15,11.25,14.88,22.75,11.87,11.6-3.05,14.33-15.31,14.35-15.43l2.79.59c-.12.57-3.13,14.12-16.42,17.6-1.34.35-2.66.51-3.95.51Z" />
    <path d="M2411.43,309.07c-6.17.43-16.88,1.07-26.9,1.07-7.38,0-14.39-.34-18.97-1.37-.21-.04-.43-.09-.63-.14-.83-.21-1.64-.51-2.46-.93-12.68-6.31-22.86-35.04-23.31-36.32h.01c1.38,4.05,4.03,7.24,7.17,9.97,4.45,9.69,11.68,22.61,19.29,24.51,8.08,2.03,25.93,1.5,38.15.83h.01c2.58.83,5.15,1.63,7.64,2.38Z" />
    <g>
      <path d="M2348.73,1813.91c-5.11,0-9.21-1.84-12.56-8.53-3.51-7.03-4.63-8.89-5.63-10.53-.8-1.33-1.49-2.48-3.17-5.83-4.04-8.03-1.41-44.89-.14-52.45.44-2.61-.55-5.53-1.7-8.9-1.87-5.51-3.99-11.75-.72-19.11,1.97-4.43,3.79-9.47,5.25-14.55.31-1.08.61-2.17.89-3.27,1.58-6.17,3.31-15.16,2.54-22.89-.74-7.42-6.58-72.21-10.85-130.6v-.06c-.09-1.03-.16-2.01-.23-3.03-3.55-48.91-4.89-78.47-4.01-87.83,2.39-25.16,5.86-73.46,4.98-95.96-.06-1.63-.14-3.14-.25-4.47-.23-2.72-.53-4.64-.9-5.84-2.22-7.4-5.36-23.57-7.63-39.33-.33-2.21-.66-4.61-1-7.31v-.11c-.97-7.7-1.48-13.85-1.48-17.8,0-9.44,1.18-85.56,2.36-140.66.09-4.2.17-8.27.27-12.16.48-21.39.86-34.34,1.16-39.59.12-1.99.16-4.37.13-7.27-.04-3.34-.19-7.17-.44-11.41v-.1c-.98-15.53-3.23-34.39-4.88-48.16v-.13c-.38-3-.72-5.82-1.03-8.42v-.1c-.69-5.65-1.11-9.53-1.33-12.18-.96-11.54-.47-30.23-.17-41.4.09-3.49.17-6.25.17-7.75,0-.29-.07-.73-.64-1.22-.47-.41-1.19-.79-2.12-1.12-3.38-1.17-8.63-1.3-11.49-1.27v.11l-2.3-.06-2.3.12v-.18c-3.06-.02-8.19.14-11.5,1.29-.92.33-1.63.71-2.09,1.12-.59.5-.65.93-.65,1.22,0,1.5.07,4.25.17,7.75.3,11.17.79,29.87-.17,41.4-.22,2.64-.64,6.52-1.32,12.2v.09c-.32,2.63-.66,5.49-1.03,8.54v.09c-1.98,16.38-3.98,33.59-4.88,48.24-.25,4.21-.4,8.03-.44,11.35-.03,2.95,0,5.26.13,7.28.3,5.28.67,18.24,1.16,39.63.1,3.9.19,7.95.27,12.15,1.17,55.13,2.36,131.22,2.36,140.63,0,3.95-.51,10.1-1.47,17.8v.11c-.36,2.72-.69,5.11-1.02,7.31-2.27,15.75-5.41,31.92-7.63,39.31-.37,1.21-.66,3.12-.9,5.85-.1,1.34-.18,2.82-.25,4.45-.88,22.58,2.58,70.85,4.96,95.98.9,9.34-.45,38.88-3.99,87.78v.05c-.04.52-.08,1.04-.12,1.55-.04.51-.08,1.02-.11,1.53-4.27,58.41-10.12,123.19-10.85,130.61-.77,7.74.96,16.72,2.54,22.89.28,1.1.58,2.19.89,3.27,1.47,5.08,3.28,10.12,5.25,14.55,3.26,7.36,1.15,13.6-.72,19.11-1.15,3.38-2.13,6.29-1.7,8.91,1.27,7.56,3.9,44.41-.14,52.45-1.67,3.35-2.37,4.5-3.17,5.83-.99,1.64-2.12,3.5-5.63,10.53-5.18,10.33-12.16,9.09-21.83,7.38-3.25-.58-6.92-1.23-11.05-1.55-4.59-.35-10.26-.3-16.27-.25-15.82.13-32.18.28-35.28-6.92-2.48-5.79,5.25-17.56,17.32-34.86,5.65-8.09,10.99-15.74,12.83-20.36,3.32-8.3,2.65-10.55,1.04-15.97-.71-2.39-1.6-5.36-2.36-9.61-.63-3.48-.79-7.17-.54-12.35.05-1.06.12-2.13.2-3.25l.03-.44c.07-.99.14-2,.22-3.04.79-10.84,1.76-24.33-1.2-45.08-4.88-34.29-17.46-103.75-26.36-141.91-8.97-38.47-11.3-89.55-10.09-113.53.64-12.91,3.65-30.38,6.31-45.81l.02-.16.16-.91c.64-3.62,1.27-7.22,1.87-10.75l.02-.23c.68-3.99,1.2-7.19,1.64-10.08.19-1.09.34-2.14.48-3.16,1.14-7.56,1.82-13.49,2.07-18.15.14-2.51.18-5.44.14-8.69v-.12c-.02-.91-.03-1.86-.06-2.83-.64-24.53-5.5-60.76-7.62-73.52-1.86-11.14-15.4-86.63-23.79-132.86h0s-.04-.21-.04-.21c-1.67-9.25-3.08-17.01-4.08-22.39l-.03-.18s0-.01,0-.02c-.39-2.16-.72-3.88-.97-5.2-.64-3.39-1.56-8.17-2.66-13.85-5.3-27.48-15.18-78.64-16.23-94.43-1.24-18.56,1.22-56.6,5.06-78.29,3.39-19.17,16.56-89.23,23-117.15.25-1.08.48-2.09.71-3.05l.03-.13c.47-1.96.95-3.82,1.43-5.53,2.31-8.08,7.77-20.29,13.05-32.08l1.35-3.13c.97-2.17,1.93-4.32,2.85-6.42,4.42-10.06,8.59-20.02,9.1-24.74l.03-.28c.18-1.6.38-3.41.58-5.39.17-1.59.34-3.27.51-5.02v-.08c1.37-14.46,1.56-25.06.61-32.42v-.11c-.14-.97-.29-1.89-.45-2.74-.28-1.36-.5-2.93-.69-4.78-.46-4.41-.6-9.52-.75-14.92-.24-8.76-.5-17.81-2.09-25.25-.39-1.84-.88-3.56-1.44-5.11-.44-1.22-.85-2.58-1.22-4.03l-.04-.21c-1.66-6.54-2.84-15.58-3.67-22.74v-.11c-.15-1.25-.29-2.46-.43-3.63l-.18-1.65c-.05-.48-.11-.97-.16-1.45-1.5,8.52-4.31,22.98-7.33,38.39l-.03.16c-.43,2.17-.86,4.35-1.28,6.56-1.47,7.5-2.97,15.16-4.41,22.59-.27,1.4-.54,2.79-.81,4.16-3.31,17.18-7.17,37.63-7.69,43.29-1.25,13.82-8.61,45.73-16.37,78.15-4.14,17.22-16.43,47.7-27.27,74.59-8.66,21.49-16.85,41.79-17.96,48.49l-.33,1.97c-.15.92-.31,1.85-.46,2.77h.1s-.24,1.53-.24,1.53c-1.49,9.31-.31,12.36,1.46,16.97.44,1.13.89,2.31,1.35,3.69.9,2.71,2.67,5.33,4.54,8.11,2.01,2.99,4.09,6.09,5.29,9.58l.47,1.36c2.52,7.27,5.37,15.5,1.45,25.25-1.8,4.52-2.04,7.84-2.41,12.86-.2,2.76-.43,5.89-.97,9.92-1.03,7.71-3.79,12.84-7.77,14.43-1.92.77-5.03,1.04-8.91-2.06-4.12-3.3-4.12-12.83-4.12-22.92,0-7.24,0-17.16-2.62-18.21-5.41-2.2-23.11,18.13-28.09,26.46-2.84,4.72,10.81,31.52,16.64,42.96,2.31,4.54,4.14,8.12,4.84,9.88,1.16,2.9.53,5.5-1.68,6.96-3.67,2.43-10.48.98-14.56-3.09-4.48-4.5-40.88-58.36-39.38-76.13.98-11.78,10.03-34.56,18.02-54.66,2.66-6.71,5.18-13.04,7.26-18.61.15-1.06.36-2.05.63-2.88l.16-.39c.22-.55.41-1.05.59-1.55l.1-.21s.04-.09.06-.15c2.31-6,4.75-12.54,5.41-15.76.11-.53.23-1.26.37-2.17.31-1.99.71-4.86,1.28-9.33,3.13-24.61,9.05-79.36,13.37-119.34,1.58-14.64,2.93-27.08,3.8-34.94,2.18-19.54,8.14-41.8,13.4-61.44,3.93-14.67,7.64-28.52,9.24-39.19.76-5.1,2.1-12.3,3.44-19.32l.1-.48c.55-2.87,1.14-5.89,1.76-9.03.6-3.06,1.22-6.23,1.84-9.47l.09-.45c5.82-29.56,13.72-69.79,12.87-84.13-.39-6.66-.41-17.92-.06-30.9.07-2.89.17-5.88.29-8.91.51-13.33,2.66-58.15,8.64-75.17,6.56-18.57,23.6-28.17,36.74-32.95,1.66-.61,3.37-1.18,5.23-1.73,1.81-.55,3.71-1.05,5.63-1.49,4.73-1.1,12.56-3.3,21.5-6.05,2.48-.76,5.04-1.55,7.62-2.38l.25-.07c22.15-7.04,40.35-13.79,44.3-16.42,1.03-.68,2.09-1.36,3.18-2.05,3.13-1.99,6.36-4.04,9.18-6.48,3.41-2.94,5.61-6,6.74-9.35.14-.43.28-.89.4-1.35,1.05-4.23,1.33-14.09.81-28.5-.02-.28-.03-.56-.03-.84l-.02-.4c-8.36-6.96-14.86-15.21-19.34-24.53-.78-1.62-1.46-3.19-2.02-4.67-8.49-22.25-1.91-100.58,3.56-122,5.27-20.67,20.37-45.92,62.33-48.95.63-.18,2.52-.62,4.67-.16,2.02.03,3.18.15,3.23.15,42.04,2.96,57.17,28.26,62.45,48.95,5.47,21.43,12.06,99.76,3.58,122-.54,1.41-1.18,2.91-1.91,4.45-4.75,9.97-12.11,19.05-21.32,26.3,0,.05,0,.1,0,.14-.01.33-.03.63-.03.94-.45,13.7-.16,23.06.85,27.12.12.45.25.9.4,1.34l.08.23c1.17,3.27,3.29,6.17,6.65,9.09,2.78,2.41,5.98,4.45,9.07,6.41,1.13.72,2.25,1.43,3.31,2.14,3.93,2.62,22.14,9.37,44.3,16.42h0l.24.07c2.5.8,4.99,1.58,7.4,2.31h0l.23.07c8.97,2.76,16.8,4.97,21.48,6.05,1.79.41,3.61.9,5.43,1.43l.21.06c1.86.55,3.57,1.12,5.23,1.73,13.13,4.78,30.17,14.38,36.72,32.95,5.99,17.01,8.14,61.82,8.65,75.15.11,3.05.21,6.03.29,8.91.35,13,.33,24.26-.06,30.91-.85,14.44,7.13,54.96,12.95,84.55l.03.16c.49,2.51.97,4.97,1.44,7.38.78,4,1.54,7.82,2.23,11.42l.04.18c1.44,7.65,2.68,14.38,3.41,19.19,1.6,10.67,5.31,24.52,9.24,39.19,5.26,19.64,11.22,41.89,13.4,61.44.87,7.86,2.22,20.3,3.8,34.93,4.32,39.98,10.24,94.74,13.37,119.35.57,4.47.97,7.35,1.28,9.32.14.92.26,1.64.37,2.16.67,3.31,3.21,10.12,5.38,15.72.03.05.06.11.08.17l.06.14h0s0,0,0,0l.04.1c.2.56.43,1.12.65,1.68l.05.14s0,.01,0,.02h0s.02.07.02.09v.05c.29.93.5,1.89.65,2.85,2.08,5.57,4.59,11.9,7.26,18.6,7.98,20.1,17.04,42.88,18.02,54.66h0c1.49,17.77-34.9,71.63-39.38,76.13-4.09,4.08-10.89,5.52-14.57,3.09-2.21-1.46-2.84-4.06-1.68-6.96.71-1.75,2.53-5.34,4.84-9.88,5.83-11.44,19.47-38.24,16.64-42.96-4.98-8.34-22.67-28.63-28.09-26.47-2.62,1.04-2.62,10.96-2.62,18.21,0,10.09,0,19.62-4.12,22.92-3.87,3.1-6.98,2.84-8.91,2.06-3.98-1.6-6.74-6.72-7.77-14.43-.54-4.03-.77-7.16-.97-9.92-.37-5.02-.61-8.34-2.41-12.87-3.91-9.75-1.06-17.98,1.46-25.25l.47-1.36c1.2-3.5,3.28-6.59,5.29-9.58,1.87-2.78,3.63-5.41,4.53-8.11.46-1.38.92-2.56,1.35-3.69,1.78-4.61,2.95-7.66,1.46-16.97l-.24-1.51h.09c-.25-1.6-.51-3.18-.77-4.76-1.12-6.7-9.3-26.99-17.96-48.48-10.84-26.89-23.13-57.37-27.27-74.59-7.38-30.78-15.1-64.13-16.37-78.15-.51-5.66-4.38-26.11-7.69-43.3-.27-1.37-.54-2.75-.81-4.15-1.44-7.42-2.94-15.09-4.41-22.58-.43-2.21-.86-4.41-1.29-6.58l-.03-.16c-3.02-15.41-5.83-29.86-7.33-38.38-.05.48-.11.97-.16,1.46l-.18,1.65c-.14,1.17-.28,2.38-.42,3.63v.11c-.85,7.17-2.02,16.21-3.69,22.76l-.04.19c-.36,1.45-.77,2.81-1.22,4.03-.53,1.44-.99,3.07-1.42,4.97l-.03.13c-1.6,7.44-1.85,16.5-2.09,25.26-.15,5.41-.29,10.53-.75,14.94-.19,1.83-.41,3.39-.69,4.77-.17.85-.32,1.79-.47,2.87-.94,7.35-.74,17.95.62,32.39v.08c.17,1.75.34,3.44.51,5.01v.1c.22,2.03.43,3.89.61,5.53.52,4.76,4.61,14.57,8.98,24.52l.25.25v.35c.57,1.28,1.14,2.56,1.72,3.86l2.13,4.79c5.37,12.03,10.93,24.47,13.27,32.65.44,1.55.94,3.47,1.44,5.54.23.98.48,2.03.73,3.14l.04.18c6.44,27.95,19.57,97.83,22.96,117,3.84,21.68,6.3,59.72,5.06,78.28-1.05,15.75-10.91,66.81-16.2,94.24-1.12,5.78-2.05,10.62-2.69,14.04l-.97,5.29c-1,5.43-2.43,13.31-4.13,22.7-7.77,42.81-21.81,121-23.8,132.88-2.12,12.77-6.98,49-7.62,73.52-.03.91-.04,1.81-.05,2.68v.28c-.05,3.25,0,6.17.14,8.69.25,4.66.93,10.59,2.07,18.13.14,1.05.3,2.09.48,3.15.49,3.2,1.04,6.48,1.57,9.56l.75.7-.55.56c.37,2.16.74,4.35,1.12,6.56l.75,4.39.14.28-.06.29c2.52,14.54,5.63,32.54,6.28,45.63,1.23,23.96-1.09,75.02-10.07,113.53-8.85,37.91-21.45,107.42-26.37,141.91-2.98,20.82-1.99,34.33-1.19,45.18.07,1.01.15,1.99.21,2.94l.02.26c.08,1.18.16,2.33.2,3.43.27,5.13.11,8.83-.52,12.34-.77,4.23-1.65,7.21-2.37,9.59-1.62,5.43-2.29,7.67,1.03,15.98,1.85,4.61,7.18,12.25,12.83,20.34,12.08,17.31,19.82,29.08,17.34,34.88-3.1,7.2-19.47,7.06-35.29,6.92-6.01-.05-11.67-.1-16.26.25-4.13.32-7.81.97-11.06,1.55-3.41.6-6.48,1.15-9.26,1.15ZM2316.59,1293.13c.34,2.64.66,4.98.98,7.16,2.22,15.39,5.39,31.74,7.53,38.9.43,1.42.76,3.47,1.01,6.46.12,1.39.2,2.94.26,4.62.89,22.64-2.59,71.11-4.99,96.35-.87,9.2.48,38.59,4.01,87.34.07,1.03.14,2.02.23,3.05v.12c4.27,58.27,10.11,123.02,10.85,130.43.81,8.17-.98,17.53-2.62,23.94-.29,1.13-.59,2.24-.91,3.35-1.5,5.22-3.37,10.39-5.4,14.95-2.8,6.29-.96,11.7.82,16.93,1.22,3.6,2.38,7,1.82,10.36-1.3,7.71-3.68,43.57-.14,50.61,1.62,3.25,2.29,4.35,3.06,5.62,1.02,1.69,2.18,3.61,5.74,10.74,4.16,8.33,9.3,7.42,18.62,5.77,3.31-.59,7.07-1.25,11.35-1.58,4.71-.36,10.45-.31,16.52-.26,13.46.11,30.19.26,32.5-5.11,2.01-4.69-9-20.46-17.04-31.98-5.75-8.23-11.17-16-13.15-20.94-3.7-9.28-2.78-12.36-1.12-17.95.69-2.32,1.55-5.2,2.29-9.27.59-3.27.74-6.76.48-11.67-.04-1.1-.12-2.21-.2-3.36l-.02-.26c-.07-.95-.14-1.93-.21-2.93-.81-11-1.82-24.68,1.21-45.83,4.94-34.56,17.55-104.19,26.42-142.17,8.92-38.23,11.22-88.92,10-112.7-.65-12.99-3.78-31.03-6.29-45.54l-.79-4.69c-.39-2.29-.79-4.56-1.16-6.81l-.09-.09-.02-.69c-.54-3.17-1.11-6.55-1.61-9.83-.18-1.08-.34-2.15-.49-3.21-1.15-7.62-1.84-13.64-2.1-18.4-.14-2.59-.19-5.58-.14-8.9v-.28c.02-.88.03-1.79.06-2.71.64-24.67,5.53-61.1,7.66-73.93,1.99-11.9,16.04-90.11,23.8-132.93,1.7-9.4,3.13-17.28,4.13-22.71l.97-5.3c.65-3.43,1.58-8.28,2.7-14.06,5.28-27.37,15.12-78.3,16.15-93.87,1.23-18.37-1.21-56.07-5.02-77.56-3.39-19.19-16.56-89.22-22.97-117.01l-.04-.18c-.24-1.05-.47-2.03-.69-2.95-.49-2.03-.98-3.9-1.41-5.42-2.28-7.98-7.79-20.32-13.12-32.25l-2.13-4.79c-.63-1.41-1.26-2.8-1.87-4.19l-.43-.97h.01c-4.99-11.39-8.39-19.94-8.91-24.67-.19-1.71-.4-3.61-.62-5.68v-.09c-.18-1.58-.35-3.27-.51-5.03v-.09c-1.38-14.63-1.58-25.42-.61-33,.16-1.15.32-2.15.5-3.07.26-1.29.47-2.75.65-4.49.45-4.3.59-9.36.74-14.72.25-8.84.5-17.97,2.13-25.65l.04-.18c.46-2.09.97-3.88,1.56-5.48.39-1.07.75-2.26,1.08-3.55l.05-.22c1.64-6.36,2.8-15.33,3.64-22.46v-.07c.15-1.26.29-2.48.43-3.66l.19-1.7c1.23-10.97,1.3-11.63,3.08-11.63,1.6,0,1.79,1.74,1.98,3.42.52,4.64,4.43,24.78,8.39,45.02l.03.16c.42,2.12.84,4.28,1.26,6.44,1.47,7.49,2.97,15.16,4.41,22.59.27,1.4.54,2.78.81,4.15,5,25.98,7.32,39.01,7.73,43.6,1.25,13.83,8.94,47.05,16.3,77.72,4.09,17,16.33,47.38,27.14,74.17,9.11,22.58,16.97,42.09,18.14,49.11.34,2.09.69,4.19,1.02,6.28l.24,1.51h-.1c1.25,8.98-.07,12.39-1.85,17.03-.43,1.1-.87,2.24-1.31,3.56-1.03,3.09-2.99,6.01-4.89,8.83-1.9,2.83-3.87,5.76-4.94,8.88l-.47,1.37c-2.46,7.1-5,14.44-1.5,23.15,1.98,4.96,2.24,8.65,2.62,13.76.2,2.72.42,5.8.95,9.74.85,6.4,3.07,10.9,5.92,12.05,1.72.69,3.71.14,5.91-1.62,3-2.4,3-12.05,3-20.57,0-10.3,0-19.2,4.5-20.99,8.93-3.56,28.47,22.18,31.77,27.71,3.41,5.67-5.88,24.93-16.54,45.86-2.28,4.47-4.08,8-4.73,9.63-.94,2.35.18,3.09.55,3.34,2.25,1.49,7.45.62,10.79-2.71,4.28-4.29,39.91-57.19,38.51-73.75h0c-.95-11.34-9.91-33.9-17.82-53.81-2.54-6.39-4.94-12.44-6.97-17.83h-.46v-1.39c-.12-.79-.29-1.59-.51-2.36l-.06-.2c-.21-.53-.43-1.07-.63-1.61l-.24-.24v-.35c-3.28-8.49-4.92-13.31-5.48-16.09-.11-.53-.24-1.29-.4-2.31-.31-2-.71-4.9-1.29-9.4-3.14-24.64-9.06-79.42-13.38-119.41-1.58-14.63-2.92-27.06-3.8-34.92-2.15-19.32-8.08-41.46-13.31-60.99-3.95-14.75-7.68-28.68-9.31-39.52-.71-4.76-1.96-11.46-3.39-19.08l-.04-.17c-.69-3.59-1.44-7.41-2.22-11.4-.48-2.45-.97-4.96-1.47-7.52l-.03-.16c-5.85-29.74-13.85-70.38-12.98-85.17.39-6.57.41-17.73.06-30.64-.07-2.9-.17-5.86-.29-8.88-1.36-35.31-4.53-63.07-8.48-74.28-6.15-17.46-22.39-26.57-34.92-31.13-1.55-.57-3.13-1.1-4.85-1.61l-.22-.06c-1.82-.54-3.66-1.03-5.45-1.45-4.79-1.11-12.42-3.26-21.5-6.05l-.2-.06c-2.42-.74-4.93-1.52-7.46-2.33l-.21-.06c-19.03-6.05-40.41-13.61-45.28-16.86-1.04-.7-2.14-1.39-3.26-2.1-3.19-2.03-6.48-4.12-9.43-6.68-3.81-3.3-6.29-6.78-7.6-10.61l-.08-.26c-.14-.43-.26-.87-.38-1.32-1.1-4.4-1.41-13.79-.95-27.91,0-.3.01-.64.03-.99l.02-.42c0-.15,0-.3.02-.45l.04-.69.54-.42c9.1-7.04,16.36-15.91,21.01-25.66.7-1.47,1.31-2.89,1.82-4.22,8.31-21.79,1.73-99.01-3.68-120.19-5.04-19.74-19.5-43.87-59.8-46.71-.06,0-1.2-.12-3.16-.14l-.33-.04c-1.78-.42-3.38.1-3.39.11l-.38.08c-40.3,2.84-54.76,26.97-59.8,46.71-5.41,21.18-11.98,98.39-3.67,120.19.53,1.4,1.18,2.89,1.92,4.44,4.38,9.12,10.79,17.17,19.06,23.94l.52.43.07,1.8c0,.29.01.52.03.76.54,14.94.24,24.81-.9,29.39-.14.54-.29,1.06-.46,1.57-1.31,3.88-3.8,7.36-7.62,10.67-2.99,2.58-6.31,4.7-9.53,6.74-1.07.68-2.12,1.35-3.13,2.01-4.89,3.26-26.26,10.81-45.27,16.85l-.25.07c-2.52.8-5.02,1.58-7.44,2.32-9,2.77-16.91,5-21.7,6.11-1.86.43-3.69.92-5.45,1.45-1.8.53-3.45,1.08-5.05,1.67-12.54,4.56-28.77,13.66-34.94,31.13-5.84,16.62-7.96,61.06-8.47,74.28-.11,3.02-.21,6-.29,8.87-.35,12.9-.33,24.07.06,30.64.87,14.77-7.12,55.4-12.98,85.14v.46l-.12.13c-.6,3.1-1.19,6.13-1.77,9.07-.63,3.24-1.24,6.36-1.81,9.31v.49l-.12.13c-1.3,6.85-2.59,13.82-3.33,18.76-1.62,10.84-5.36,24.77-9.31,39.52-5.23,19.53-11.16,41.67-13.31,60.99-.87,7.86-2.22,20.3-3.8,34.93-4.32,39.99-10.24,94.76-13.38,119.4-.58,4.5-.98,7.4-1.29,9.41-.15,1.01-.28,1.77-.4,2.32-.55,2.71-2.19,7.52-5.48,16.06v.34l-.25.26c-.2.55-.41,1.1-.63,1.66-.02.05-.04.12-.08.2-.21.69-.38,1.52-.5,2.41l-.14,1.09-.24.04c-2.04,5.43-4.47,11.55-7.03,18-7.91,19.91-16.87,42.47-17.82,53.8-1.39,16.57,34.24,69.46,38.52,73.76,3.34,3.33,8.54,4.19,10.79,2.71.37-.24,1.49-.98.55-3.34-.65-1.63-2.45-5.16-4.73-9.63-10.66-20.93-19.95-40.19-16.54-45.86,3.3-5.53,22.84-31.29,31.77-27.71,4.5,1.8,4.5,10.69,4.5,20.99,0,8.52,0,18.17,3,20.57,2.21,1.77,4.2,2.31,5.91,1.62,2.85-1.14,5.06-5.65,5.92-12.05.53-3.94.75-7.02.95-9.74.37-5.11.64-8.8,2.61-13.76,3.5-8.71.96-16.06-1.5-23.16l-.47-1.37c-1.07-3.12-3.04-6.05-4.94-8.88-1.9-2.83-3.86-5.75-4.89-8.84-.44-1.32-.88-2.46-1.31-3.56-1.79-4.63-3.1-8.05-1.85-17.01h-.11s.24-1.53.24-1.53c.23-1.43.46-2.87.7-4.3l.33-1.97c1.17-7.03,9.04-26.53,18.14-49.12,10.8-26.79,23.05-57.17,27.14-74.17,7.73-32.31,15.06-64.1,16.3-77.72.42-4.58,2.73-17.62,7.73-43.59.27-1.38.54-2.76.81-4.16,1.44-7.43,2.94-15.09,4.41-22.59.42-2.17.84-4.31,1.26-6.44l.02-.14c3.96-20.23,7.87-40.37,8.39-45.04.19-1.68.38-3.43,1.98-3.43,1.77,0,1.85.66,3.07,11.62l.19,1.72c.14,1.18.28,2.39.42,3.65v.09c.84,7.12,2.01,16.08,3.65,22.44l.05.22c.33,1.29.69,2.48,1.08,3.56.61,1.68,1.14,3.54,1.56,5.51,1.65,7.7,1.91,16.9,2.16,25.79.15,5.35.29,10.4.74,14.7.18,1.76.39,3.23.65,4.5.19.95.35,1.97.49,3.05v.11c.98,7.56.78,18.33-.59,32.92v.09c-.18,1.79-.35,3.49-.52,5.11-.2,1.98-.41,3.81-.58,5.41l-.03.28c-.53,4.84-4.12,13.75-9.34,25.62-.89,2.01-1.8,4.07-2.73,6.14v.11l-1.48,3.31c-5.24,11.7-10.65,23.8-12.9,31.68-.46,1.62-.91,3.38-1.36,5.23l-.04.2c-.24.98-.48,2.01-.74,3.13-6.43,27.87-19.59,97.84-22.97,117-3.81,21.5-6.24,59.19-5.02,77.56,1.04,15.6,10.89,66.64,16.18,94.06,1.1,5.7,2.02,10.47,2.66,13.86.26,1.34.59,3.09.99,5.29l.02.17s0,.01,0,.02c.99,5.34,2.39,13.01,4.04,22.14l.06.12v.25c7.57,41.67,21.81,120.96,23.81,132.94,2.13,12.83,7.01,49.25,7.66,73.93.03.97.04,1.94.06,2.86v.12c.05,3.33,0,6.32-.14,8.9-.26,4.76-.95,10.78-2.1,18.42-.14,1.04-.3,2.11-.49,3.21-.43,2.82-.94,5.97-1.6,9.87l.02.14-.07.26c-.6,3.56-1.24,7.19-1.89,10.84l-.16.93c-2.65,15.38-5.66,32.82-6.29,45.58-1.2,23.81,1.11,74.52,10.01,112.7,8.92,38.24,21.52,107.82,26.41,142.17,3.01,21.08,2.02,34.74,1.23,45.72-.08,1.04-.15,2.05-.22,3.03l-.03.44c-.07,1.09-.15,2.15-.2,3.17-.24,4.95-.1,8.44.49,11.68.74,4.08,1.6,6.96,2.29,9.28,1.66,5.59,2.58,8.67-1.13,17.94-1.98,4.94-7.41,12.72-13.16,20.96-8.03,11.51-19.03,27.26-17.02,31.96,2.31,5.36,19.05,5.21,32.5,5.1,6.07-.05,11.8-.1,16.52.26,4.28.33,8.04.99,11.35,1.58,9.31,1.65,14.44,2.56,18.62-5.77,3.56-7.13,4.72-9.05,5.74-10.74.77-1.27,1.43-2.37,3.05-5.62,3.54-7.04,1.16-42.89-.14-50.61-.56-3.36.59-6.76,1.82-10.37,1.77-5.23,3.61-10.64.82-16.93-2.02-4.56-3.89-9.72-5.4-14.94-.32-1.12-.62-2.23-.91-3.35-1.64-6.41-3.43-15.76-2.62-23.94.73-7.41,6.58-72.15,10.85-130.52.04-.51.08-1.03.11-1.55.04-.49.08-.99.11-1.48v-.07c3.54-48.76,4.88-78.14,4-87.32-2.4-25.2-5.86-73.65-4.97-96.39.07-1.66.16-3.18.26-4.56.26-3,.58-5.05,1.02-6.48,2.14-7.15,5.31-23.5,7.53-38.88.32-2.16.65-4.51.98-7.17v-.1c.96-7.62,1.47-13.68,1.47-17.52,0-9.4-1.18-85.45-2.35-140.55-.09-4.21-.17-8.26-.27-12.13-.48-21.38-.86-34.31-1.15-39.56-.12-2.09-.16-4.46-.13-7.47.04-3.39.19-7.25.45-11.51.9-14.71,2.91-31.93,4.88-48.33v-.1c.38-3.03.72-5.89,1.03-8.52v-.11c.69-5.68,1.12-9.55,1.33-12.17.95-11.38.46-29.97.16-41.08-.09-3.52-.17-6.29-.17-7.83,0-1.35.58-2.56,1.69-3.49.73-.65,1.74-1.21,3.06-1.68,4.24-1.47,10.62-1.53,14.04-1.43l1.22.04.28-.02c2.73-.1,9.57-.14,14.04,1.41,1.32.47,2.33,1.02,3.09,1.68,1.09.94,1.67,2.15,1.67,3.49,0,1.54-.07,4.31-.17,7.83-.29,11.11-.79,29.7.16,41.08.22,2.64.64,6.5,1.32,12.17v.1c.32,2.6.66,5.42,1.03,8.42v.14c1.66,13.8,3.91,32.67,4.89,48.34v.11c.25,4.19.4,8.07.45,11.45.03,2.99-.01,5.43-.13,7.49-.29,5.21-.67,18.13-1.15,39.49-.1,3.88-.19,7.95-.27,12.15-1.17,55.08-2.36,131.17-2.36,140.6,0,3.84.5,9.9,1.46,17.52v.1ZM2554.79,872.92s0,.02,0,.03v-.03ZM2554.09,871.14s0,0,0,0h0Z" />
      <path d="M2266.32,254.26c-.19-.51-.37-.98-.54-1.43-5.65-4.24-11.31-8.64-14.92-11.45l-2.2-1.7c.53.96,1.08,2,1.64,3.07.23.19.47.37.73.57.23.17.46.34.7.54.33.24.67.51,1.03.79.3.23.6.47.91.71.11.09.23.17.34.27.53.41,1.1.84,1.67,1.3.29.21.57.44.87.67,1.44,1.1,2.96,2.27,4.53,3.45,1,.77,2.01,1.54,3.04,2.31.64.49,1.3.99,1.94,1.47.2.16.41.31.61.47h0c-.13-.37-.24-.73-.36-1.06ZM2266.32,254.26c-.19-.51-.37-.98-.54-1.43-5.65-4.24-11.31-8.64-14.92-11.45l-2.2-1.7c.53.96,1.08,2,1.64,3.07.23.19.47.37.73.57.23.17.46.34.7.54.33.24.67.51,1.03.79.3.23.6.47.91.71.11.09.23.17.34.27.53.41,1.1.84,1.67,1.3.29.21.57.44.87.67,1.44,1.1,2.96,2.27,4.53,3.45,1,.77,2.01,1.54,3.04,2.31.64.49,1.3.99,1.94,1.47.21.16.41.3.61.46-.13-.36-.24-.71-.36-1.04ZM2266.32,254.26c-.19-.51-.37-.98-.54-1.43-5.65-4.24-11.31-8.64-14.92-11.45l-2.2-1.7c.53.96,1.08,2,1.64,3.07.23.19.47.37.73.57.23.17.46.34.7.54.33.24.67.51,1.03.79.3.23.6.47.91.71.11.09.23.17.34.27.53.41,1.1.84,1.67,1.3.29.21.57.44.87.67,1.44,1.1,2.96,2.27,4.53,3.45,1,.77,2.01,1.54,3.04,2.31.64.49,1.3.99,1.94,1.47.21.16.41.3.61.46-.13-.36-.24-.71-.36-1.04ZM2266.32,254.26c-.19-.51-.37-.98-.54-1.43-5.65-4.24-11.31-8.64-14.92-11.45l-2.2-1.7c.53.96,1.08,2,1.64,3.07.23.19.47.37.73.57.23.17.46.34.7.54.33.24.67.51,1.03.79.3.23.6.47.91.71.11.09.23.17.34.27.53.41,1.1.84,1.67,1.3.29.21.57.44.87.67,1.44,1.1,2.96,2.27,4.53,3.45,1,.77,2.01,1.54,3.04,2.31.64.49,1.3.99,1.94,1.47.21.16.41.3.61.46-.13-.36-.24-.71-.36-1.04ZM2266.32,254.26c-.19-.51-.37-.98-.54-1.43-5.65-4.24-11.31-8.64-14.92-11.45l-2.2-1.7c.53.96,1.08,2,1.64,3.07.23.19.47.37.73.57.23.17.46.34.7.54.33.24.67.51,1.03.79.3.23.6.47.91.71.11.09.23.17.34.27.53.41,1.1.84,1.67,1.3.29.21.57.44.87.67,1.44,1.1,2.96,2.27,4.53,3.45,1,.77,2.01,1.54,3.04,2.31.64.49,1.3.99,1.94,1.47.21.16.41.3.61.46-.13-.36-.24-.71-.36-1.04ZM2266.32,254.26c-.19-.51-.37-.98-.54-1.43-5.65-4.24-11.31-8.64-14.92-11.45l-2.2-1.7c.53.96,1.08,2,1.64,3.07.23.19.47.37.73.57.23.17.46.34.7.54.33.24.67.51,1.03.79.3.23.6.47.91.71.11.09.23.17.34.27.53.41,1.1.84,1.67,1.3.29.21.57.44.87.67,1.44,1.1,2.96,2.27,4.53,3.45,1,.77,2.01,1.54,3.04,2.31.64.49,1.3.99,1.94,1.47.21.16.41.3.61.46-.13-.36-.24-.71-.36-1.04ZM2266.32,254.26c-.19-.51-.37-.98-.54-1.43-5.65-4.24-11.31-8.64-14.92-11.45l-2.2-1.7c.53.96,1.08,2,1.64,3.07.23.19.47.37.73.57.23.17.46.34.7.54.33.24.67.51,1.03.79.3.23.6.47.91.71.11.09.23.17.34.27.53.41,1.1.84,1.67,1.3.29.21.57.44.87.67,1.44,1.1,2.96,2.27,4.53,3.45,1,.77,2.01,1.54,3.04,2.31.64.49,1.3.99,1.94,1.47.21.16.41.3.61.46-.13-.36-.24-.71-.36-1.04ZM2266.32,254.26c-.19-.51-.37-.98-.54-1.43-5.65-4.24-11.31-8.64-14.92-11.45l-2.2-1.7c.53.96,1.08,2,1.64,3.07.23.19.47.37.73.57.23.17.46.34.7.54.33.24.67.51,1.03.79.3.23.6.47.91.71.11.09.23.17.34.27.53.41,1.1.84,1.67,1.3.29.21.57.44.87.67,1.44,1.1,2.96,2.27,4.53,3.45,1,.77,2.01,1.54,3.04,2.31.64.49,1.3.99,1.94,1.47.21.16.41.3.61.46-.13-.36-.24-.71-.36-1.04ZM2266.32,254.26c-.19-.51-.37-.98-.54-1.43-5.65-4.24-11.31-8.64-14.92-11.45l-2.2-1.7c.53.96,1.08,2,1.64,3.07.23.19.47.37.73.57.23.17.46.34.7.54.33.24.67.51,1.03.79.3.23.6.47.91.71.11.09.23.17.34.27.53.41,1.1.84,1.67,1.3.29.21.57.44.87.67,1.44,1.1,2.96,2.27,4.53,3.45,1,.77,2.01,1.54,3.04,2.31.64.49,1.3.99,1.94,1.47.21.16.41.3.61.46-.13-.36-.24-.71-.36-1.04ZM2266.32,254.26c-.19-.51-.37-.98-.54-1.43-5.65-4.24-11.31-8.64-14.92-11.45l-2.2-1.7c.53.96,1.08,2,1.64,3.07.23.19.47.37.73.57.23.17.46.34.7.54.33.24.67.51,1.03.79.3.23.6.47.91.71.11.09.23.17.34.27.53.41,1.1.84,1.67,1.3.29.21.57.44.87.67,1.44,1.1,2.96,2.27,4.53,3.45,1,.77,2.01,1.54,3.04,2.31.64.49,1.3.99,1.94,1.47.21.16.41.3.61.46-.13-.36-.24-.71-.36-1.04ZM2266.32,254.26c-.19-.51-.37-.98-.54-1.43-5.65-4.24-11.31-8.64-14.92-11.45l-2.2-1.7c.53.96,1.08,2,1.64,3.07.23.19.47.37.73.57.23.17.46.34.7.54.33.24.67.51,1.03.79.3.23.6.47.91.71.11.09.23.17.34.27.53.41,1.1.84,1.67,1.3.29.21.57.44.87.67,1.44,1.1,2.96,2.27,4.53,3.45,1,.77,2.01,1.54,3.04,2.31.64.49,1.3.99,1.94,1.47.21.16.41.3.61.46-.13-.36-.24-.71-.36-1.04ZM2266.32,254.26c-.19-.51-.37-.98-.54-1.43-5.65-4.24-11.31-8.64-14.92-11.45l-2.2-1.7c.53.96,1.08,2,1.64,3.07.23.19.47.37.73.57.23.17.46.34.7.54.33.24.67.51,1.03.79.3.23.6.47.91.71.11.09.23.17.34.27.53.41,1.1.84,1.67,1.3.29.21.57.44.87.67,1.44,1.1,2.96,2.27,4.53,3.45,1,.77,2.01,1.54,3.04,2.31.64.49,1.3.99,1.94,1.47.21.16.41.3.61.46-.13-.36-.24-.71-.36-1.04ZM2266.32,254.26c-.19-.51-.37-.98-.54-1.43-5.65-4.24-11.31-8.64-14.92-11.45l-2.2-1.7c.53.96,1.08,2,1.64,3.07.23.19.47.37.73.57.23.17.46.34.7.54.33.24.67.51,1.03.79.3.23.6.47.91.71.11.09.23.17.34.27.53.41,1.1.84,1.67,1.3.29.21.57.44.87.67,1.44,1.1,2.96,2.27,4.53,3.45,1,.77,2.01,1.54,3.04,2.31.64.49,1.3.99,1.94,1.47.21.16.41.3.61.46-.13-.36-.24-.71-.36-1.04ZM2266.32,254.26c-.19-.51-.37-.98-.54-1.43-5.65-4.24-11.31-8.64-14.92-11.45l-2.2-1.7c.53.96,1.08,2,1.64,3.07.23.19.47.37.73.57.23.17.46.34.7.54.33.24.67.51,1.03.79.3.23.6.47.91.71.11.09.23.17.34.27.53.41,1.1.84,1.67,1.3.29.21.57.44.87.67,1.44,1.1,2.96,2.27,4.53,3.45,1,.77,2.01,1.54,3.04,2.31.64.49,1.3.99,1.94,1.47.21.16.41.3.61.46-.13-.36-.24-.71-.36-1.04ZM2266.32,254.26c-.19-.51-.37-.98-.54-1.43-5.65-4.24-11.31-8.64-14.92-11.45l-2.2-1.7c.53.96,1.08,2,1.64,3.07.23.19.47.37.73.57.23.17.46.34.7.54.33.24.67.51,1.03.79.3.23.6.47.91.71.11.09.23.17.34.27.53.41,1.1.84,1.67,1.3.29.21.57.44.87.67,1.44,1.1,2.96,2.27,4.53,3.45,1,.77,2.01,1.54,3.04,2.31.64.49,1.3.99,1.94,1.47.21.16.41.3.61.46-.13-.36-.24-.71-.36-1.04ZM2266.32,254.26c-.19-.51-.37-.98-.54-1.43-5.65-4.24-11.31-8.64-14.92-11.45l-2.2-1.7c.53.96,1.08,2,1.64,3.07.23.19.47.37.73.57.23.17.46.34.7.54.33.24.67.51,1.03.79.3.23.6.47.91.71.11.09.23.17.34.27.53.41,1.1.84,1.67,1.3.29.21.57.44.87.67,1.44,1.1,2.96,2.27,4.53,3.45,1,.77,2.01,1.54,3.04,2.31.64.49,1.3.99,1.94,1.47.21.16.41.3.61.46-.13-.36-.24-.71-.36-1.04ZM2266.32,254.26c-.19-.51-.37-.98-.54-1.43-5.65-4.24-11.31-8.64-14.92-11.45l-2.2-1.7c.53.96,1.08,2,1.64,3.07.23.19.47.37.73.57.23.17.46.34.7.54.33.24.67.51,1.03.79.3.23.6.47.91.71.11.09.23.17.34.27.53.41,1.1.84,1.67,1.3.29.21.57.44.87.67,1.44,1.1,2.96,2.27,4.53,3.45,1,.77,2.01,1.54,3.04,2.31.64.49,1.3.99,1.94,1.47.21.16.41.3.61.46-.13-.36-.24-.71-.36-1.04ZM2266.32,254.26c-.19-.51-.37-.98-.54-1.43-5.65-4.24-11.31-8.64-14.92-11.45l-2.2-1.7c.53.96,1.08,2,1.64,3.07.23.19.47.37.73.57.23.17.46.34.7.54.33.24.67.51,1.03.79.3.23.6.47.91.71.11.09.23.17.34.27.53.41,1.1.84,1.67,1.3.29.21.57.44.87.67,1.44,1.1,2.96,2.27,4.53,3.45,1,.77,2.01,1.54,3.04,2.31.64.49,1.3.99,1.94,1.47.21.16.41.3.61.46-.13-.36-.24-.71-.36-1.04ZM2266.32,254.26c-.19-.51-.37-.98-.54-1.43-5.65-4.24-11.31-8.64-14.92-11.45l-2.2-1.7c.53.96,1.08,2,1.64,3.07.23.19.47.37.73.57.23.17.46.34.7.54.33.24.67.51,1.03.79.3.23.6.47.91.71.11.09.23.17.34.27.53.41,1.1.84,1.67,1.3.29.21.57.44.87.67,1.44,1.1,2.96,2.27,4.53,3.45,1,.77,2.01,1.54,3.04,2.31.64.49,1.3.99,1.94,1.47.21.16.41.3.61.46-.13-.36-.24-.71-.36-1.04ZM2266.32,254.26c-.19-.51-.37-.98-.54-1.43-5.65-4.24-11.31-8.64-14.92-11.45l-2.2-1.7c.53.96,1.08,2,1.64,3.07.23.19.47.37.73.57.23.17.46.34.7.54.33.24.67.51,1.03.79.3.23.6.47.91.71.11.09.23.17.34.27.53.41,1.1.84,1.67,1.3.29.21.57.44.87.67,1.44,1.1,2.96,2.27,4.53,3.45,1,.77,2.01,1.54,3.04,2.31.64.49,1.3.99,1.94,1.47.21.16.41.3.61.46-.13-.36-.24-.71-.36-1.04ZM2358.98,88.6c-5.28-20.67-20.39-45.93-62.39-48.9-.04,0-1.21-.11-3.23-.14-2.16-.47-4.04-.01-4.65.16-41.92,3.01-57.01,28.24-62.26,48.88-5.48,21.43-12.06,99.72-3.57,121.97.56,1.47,1.24,3.04,2.01,4.65,4.71,9.81,11.89,18.7,20.82,25.76.23.19.46.37.7.56.04.03.09.07.13.1l2.58,2c.8.63,1.7,1.33,2.68,2.1,0,0,.01,0,.01.01,4.33,3.34,10.16,7.84,15.6,11.88,1.29.94,2.54,1.87,3.74,2.76.54.39,1.06.76,1.57,1.13,5.38,3.84,11.69,5.92,18.27,6.01.17.01.33.01.5.01h4.07c5.5,0,10.75-1.71,15.18-4.95.44-.33.9-.66,1.37-1.01h.01c1.14-.84,2.4-1.77,3.7-2.73h.01c5-3.71,10.81-8.02,15.43-11.48,2.17-1.63,4.08-3.06,5.53-4.15h.01c.39-.27.71-.54,1.03-.79.34-.26.64-.47.88-.67,9.48-7.32,17.06-16.56,21.9-26.74.74-1.56,1.38-3.04,1.91-4.44,2.93-7.7,4.07-22.07,4.07-38.49,0-31.08-4.05-69.46-7.64-83.48ZM2341.49,235.74h-.01c-1.13,1.03-2.28,2.01-3.48,2.96-.33.29-.66.54-1,.8-.57.44-1.38,1.06-2.4,1.81,0,0,0,.01-.01.01-3.98,3.01-10.91,8.18-17.26,12.86-1.36,1-2.68,1.98-3.95,2.93-1.54,1.13-3,2.2-4.3,3.16-3.94,2.9-8.61,4.41-13.49,4.41h-4.07c-.17,0-.33,0-.5-.01-5.98-.09-11.74-1.98-16.62-5.48-1.44-1.03-2.97-2.14-4.53-3.31h-.01c-1.34-1-2.7-2.01-4.07-3.04-5.65-4.24-11.31-8.64-14.92-11.45l-2.2-1.7-.39-.3c-.93-.71-1.84-1.46-2.73-2.23-1.16-.96-2.28-1.98-3.37-3.03-.01,0-.01-.01-.03-.03-6.12-5.88-11.14-12.73-14.69-20.1-.74-1.56-1.38-3.04-1.91-4.44-8.32-21.82-1.76-99.07,3.66-120.24,5.04-19.76,19.53-43.92,59.86-46.76l.37-.07s.83-.29,1.96-.29c.46,0,.96.04,1.47.17l.31.04c1.97.01,3.11.13,3.17.14,20.17,1.41,33.88,8.17,43.16,17.03,9.31,8.87,14.19,19.84,16.7,29.72,5.41,21.19,11.99,98.44,3.67,120.24-.5,1.33-1.11,2.74-1.81,4.23-3.87,8.11-9.54,15.6-16.58,21.96ZM2266.32,254.26c-.19-.51-.37-.98-.54-1.43-5.65-4.24-11.31-8.64-14.92-11.45l-2.2-1.7c.53.96,1.08,2,1.64,3.07.23.19.47.37.73.57.23.17.46.34.7.54.33.24.67.51,1.03.79.3.23.6.47.91.71.11.09.23.17.34.27.53.41,1.1.84,1.67,1.3.29.21.57.44.87.67,1.44,1.1,2.96,2.27,4.53,3.45,1,.77,2.01,1.54,3.04,2.31.64.49,1.3.99,1.94,1.47.21.16.41.3.61.46-.13-.36-.24-.71-.36-1.04ZM2266.32,254.26c-.19-.51-.37-.98-.54-1.43-5.65-4.24-11.31-8.64-14.92-11.45l-2.2-1.7c.53.96,1.08,2,1.64,3.07.23.19.47.37.73.57.23.17.46.34.7.54.33.24.67.51,1.03.79.3.23.6.47.91.71.11.09.23.17.34.27.53.41,1.1.84,1.67,1.3.29.21.57.44.87.67,1.44,1.1,2.96,2.27,4.53,3.45,1,.77,2.01,1.54,3.04,2.31.64.49,1.3.99,1.94,1.47.21.16.41.3.61.46-.13-.36-.24-.71-.36-1.04ZM2266.32,254.26c-.19-.51-.37-.98-.54-1.43-5.65-4.24-11.31-8.64-14.92-11.45l-2.2-1.7c.53.96,1.08,2,1.64,3.07.23.19.47.37.73.57.23.17.46.34.7.54.33.24.67.51,1.03.79.3.23.6.47.91.71.11.09.23.17.34.27.53.41,1.1.84,1.67,1.3.29.21.57.44.87.67,1.44,1.1,2.96,2.27,4.53,3.45,1,.77,2.01,1.54,3.04,2.31.64.49,1.3.99,1.94,1.47.21.16.41.3.61.46-.13-.36-.24-.71-.36-1.04ZM2266.32,254.26c-.19-.51-.37-.98-.54-1.43-5.65-4.24-11.31-8.64-14.92-11.45l-2.2-1.7c.53.96,1.08,2,1.64,3.07.23.19.47.37.73.57.23.17.46.34.7.54.33.24.67.51,1.03.79.3.23.6.47.91.71.11.09.23.17.34.27.53.41,1.1.84,1.67,1.3.29.21.57.44.87.67,1.44,1.1,2.96,2.27,4.53,3.45,1,.77,2.01,1.54,3.04,2.31.64.49,1.3.99,1.94,1.47.21.16.41.3.61.46-.13-.36-.24-.71-.36-1.04ZM2266.32,254.26c-.19-.51-.37-.98-.54-1.43-5.65-4.24-11.31-8.64-14.92-11.45l-2.2-1.7c.53.96,1.08,2,1.64,3.07.23.19.47.37.73.57.23.17.46.34.7.54.33.24.67.51,1.03.79.3.23.6.47.91.71.11.09.23.17.34.27.53.41,1.1.84,1.67,1.3.29.21.57.44.87.67,1.44,1.1,2.96,2.27,4.53,3.45,1,.77,2.01,1.54,3.04,2.31.64.49,1.3.99,1.94,1.47.21.16.41.3.61.46-.13-.36-.24-.71-.36-1.04ZM2266.32,254.26c-.19-.51-.37-.98-.54-1.43-5.65-4.24-11.31-8.64-14.92-11.45l-2.2-1.7c.53.96,1.08,2,1.64,3.07.23.19.47.37.73.57.23.17.46.34.7.54.33.24.67.51,1.03.79.3.23.6.47.91.71.11.09.23.17.34.27.53.41,1.1.84,1.67,1.3.29.21.57.44.87.67,1.44,1.1,2.96,2.27,4.53,3.45,1,.77,2.01,1.54,3.04,2.31.64.49,1.3.99,1.94,1.47.21.16.41.3.61.46-.13-.36-.24-.71-.36-1.04ZM2266.32,254.26c-.19-.51-.37-.98-.54-1.43-5.65-4.24-11.31-8.64-14.92-11.45l-2.2-1.7c.53.96,1.08,2,1.64,3.07.23.19.47.37.73.57.23.17.46.34.7.54.33.24.67.51,1.03.79.3.23.6.47.91.71.11.09.23.17.34.27.53.41,1.1.84,1.67,1.3.29.21.57.44.87.67,1.44,1.1,2.96,2.27,4.53,3.45,1,.77,2.01,1.54,3.04,2.31.64.49,1.3.99,1.94,1.47.21.16.41.3.61.46-.13-.36-.24-.71-.36-1.04ZM2266.32,254.26c-.19-.51-.37-.98-.54-1.43-5.65-4.24-11.31-8.64-14.92-11.45l-2.2-1.7c.53.96,1.08,2,1.64,3.07.23.19.47.37.73.57.23.17.46.34.7.54.33.24.67.51,1.03.79.3.23.6.47.91.71.11.09.23.17.34.27.53.41,1.1.84,1.67,1.3.29.21.57.44.87.67,1.44,1.1,2.96,2.27,4.53,3.45,1,.77,2.01,1.54,3.04,2.31.64.49,1.3.99,1.94,1.47.21.16.41.3.61.46-.13-.36-.24-.71-.36-1.04ZM2266.32,254.26c-.19-.51-.37-.98-.54-1.43-5.65-4.24-11.31-8.64-14.92-11.45l-2.2-1.7c.53.96,1.08,2,1.64,3.07.23.19.47.37.73.57.23.17.46.34.7.54.33.24.67.51,1.03.79.3.23.6.47.91.71.11.09.23.17.34.27.53.41,1.1.84,1.67,1.3.29.21.57.44.87.67,1.44,1.1,2.96,2.27,4.53,3.45,1,.77,2.01,1.54,3.04,2.31.64.49,1.3.99,1.94,1.47.21.16.41.3.61.46-.13-.36-.24-.71-.36-1.04ZM2266.32,254.26c-.19-.51-.37-.98-.54-1.43-5.65-4.24-11.31-8.64-14.92-11.45l-2.2-1.7c.53.96,1.08,2,1.64,3.07.23.19.47.37.73.57.23.17.46.34.7.54.33.24.67.51,1.03.79.3.23.6.47.91.71.11.09.23.17.34.27.53.41,1.1.84,1.67,1.3.29.21.57.44.87.67,1.44,1.1,2.96,2.27,4.53,3.45,1,.77,2.01,1.54,3.04,2.31.64.49,1.3.99,1.94,1.47.21.16.41.3.61.46-.13-.36-.24-.71-.36-1.04ZM2266.32,254.26c-.19-.51-.37-.98-.54-1.43-5.65-4.24-11.31-8.64-14.92-11.45l-2.2-1.7c.53.96,1.08,2,1.64,3.07.23.19.47.37.73.57.23.17.46.34.7.54.33.24.67.51,1.03.79.3.23.6.47.91.71.11.09.23.17.34.27.53.41,1.1.84,1.67,1.3.29.21.57.44.87.67,1.44,1.1,2.96,2.27,4.53,3.45,1,.77,2.01,1.54,3.04,2.31.64.49,1.3.99,1.94,1.47.21.16.41.3.61.46-.13-.36-.24-.71-.36-1.04ZM2266.32,254.26c-.19-.51-.37-.98-.54-1.43-5.65-4.24-11.31-8.64-14.92-11.45l-2.2-1.7c.53.96,1.08,2,1.64,3.07.23.19.47.37.73.57.23.17.46.34.7.54.33.24.67.51,1.03.79.3.23.6.47.91.71.11.09.23.17.34.27.53.41,1.1.84,1.67,1.3.29.21.57.44.87.67,1.44,1.1,2.96,2.27,4.53,3.45,1,.77,2.01,1.54,3.04,2.31.64.49,1.3.99,1.94,1.47.21.16.41.3.61.46-.13-.36-.24-.71-.36-1.04ZM2266.32,254.26c-.19-.51-.37-.98-.54-1.43-5.65-4.24-11.31-8.64-14.92-11.45l-2.2-1.7c.53.96,1.08,2,1.64,3.07.23.19.47.37.73.57.23.17.46.34.7.54.33.24.67.51,1.03.79.3.23.6.47.91.71.11.09.23.17.34.27.53.41,1.1.84,1.67,1.3.29.21.57.44.87.67,1.44,1.1,2.96,2.27,4.53,3.45,1,.77,2.01,1.54,3.04,2.31.64.49,1.3.99,1.94,1.47.21.16.41.3.61.46-.13-.36-.24-.71-.36-1.04ZM2266.32,254.26c-.19-.51-.37-.98-.54-1.43-5.65-4.24-11.31-8.64-14.92-11.45l-2.2-1.7c.53.96,1.08,2,1.64,3.07.23.19.47.37.73.57.23.17.46.34.7.54.33.24.67.51,1.03.79.3.23.6.47.91.71.11.09.23.17.34.27.53.41,1.1.84,1.67,1.3.29.21.57.44.87.67,1.44,1.1,2.96,2.27,4.53,3.45,1,.77,2.01,1.54,3.04,2.31.64.49,1.3.99,1.94,1.47.21.16.41.3.61.46-.13-.36-.24-.71-.36-1.04ZM2266.32,254.26c-.19-.51-.37-.98-.54-1.43-5.65-4.24-11.31-8.64-14.92-11.45l-2.2-1.7c.53.96,1.08,2,1.64,3.07.23.19.47.37.73.57.23.17.46.34.7.54.33.24.67.51,1.03.79.3.23.6.47.91.71.11.09.23.17.34.27.53.41,1.1.84,1.67,1.3.29.21.57.44.87.67,1.44,1.1,2.96,2.27,4.53,3.45,1,.77,2.01,1.54,3.04,2.31.64.49,1.3.99,1.94,1.47.21.16.41.3.61.46-.13-.36-.24-.71-.36-1.04ZM2266.32,254.26c-.19-.51-.37-.98-.54-1.43-5.65-4.24-11.31-8.64-14.92-11.45l-2.2-1.7c.53.96,1.08,2,1.64,3.07.23.19.47.37.73.57.23.17.46.34.7.54.33.24.67.51,1.03.79.3.23.6.47.91.71.11.09.23.17.34.27.53.41,1.1.84,1.67,1.3.29.21.57.44.87.67,1.44,1.1,2.96,2.27,4.53,3.45,1,.77,2.01,1.54,3.04,2.31.64.49,1.3.99,1.94,1.47.21.16.41.3.61.46-.13-.36-.24-.71-.36-1.04ZM2266.32,254.26c-.19-.51-.37-.98-.54-1.43-5.65-4.24-11.31-8.64-14.92-11.45l-2.2-1.7c.53.96,1.08,2,1.64,3.07.23.19.47.37.73.57.23.17.46.34.7.54.33.24.67.51,1.03.79.3.23.6.47.91.71.11.09.23.17.34.27.53.41,1.1.84,1.67,1.3.29.21.57.44.87.67,1.44,1.1,2.96,2.27,4.53,3.45,1,.77,2.01,1.54,3.04,2.31.64.49,1.3.99,1.94,1.47.21.16.41.3.61.46-.13-.36-.24-.71-.36-1.04ZM2266.32,254.26c-.19-.51-.37-.98-.54-1.43-5.65-4.24-11.31-8.64-14.92-11.45l-2.2-1.7c.53.96,1.08,2,1.64,3.07.23.19.47.37.73.57.23.17.46.34.7.54.33.24.67.51,1.03.79.3.23.6.47.91.71.11.09.23.17.34.27.53.41,1.1.84,1.67,1.3.29.21.57.44.87.67,1.44,1.1,2.96,2.27,4.53,3.45,1,.77,2.01,1.54,3.04,2.31.64.49,1.3.99,1.94,1.47.21.16.41.3.61.46-.13-.36-.24-.71-.36-1.04ZM2266.32,254.26c-.19-.51-.37-.98-.54-1.43-5.65-4.24-11.31-8.64-14.92-11.45l-2.2-1.7c.53.96,1.08,2,1.64,3.07.23.19.47.37.73.57.23.17.46.34.7.54.33.24.67.51,1.03.79.3.23.6.47.91.71.11.09.23.17.34.27.53.41,1.1.84,1.67,1.3.29.21.57.44.87.67,1.44,1.1,2.96,2.27,4.53,3.45,1,.77,2.01,1.54,3.04,2.31.64.49,1.3.99,1.94,1.47.21.16.41.3.61.46-.13-.36-.24-.71-.36-1.04Z" />
    </g>
  </g>
  </svg>