<?xml version="1.0" encoding="UTF-8"?>
<svg id="Layer_1" data-name="Layer 1" xmlns="http://www.w3.org/2000/svg" viewBox="0 0 800 1833.25">
  <defs>
    <style>
      .cls-1 {
        fill: #e54925;
      }
    </style>
  </defs>
  <path class="cls-1" d="M223.64,454.57c2.07,3.28,3.96,6.35,5.63,9.19-3.22,6.92-31.8,68.93-39.33,100.29-2.49,10.38-4.86,22.86-7.15,34.94-2.6,13.69-5.05,26.62-7.59,36.26-3.39,12.91-5.63,14.31-6.25,14.44-10.6-5.43-17.4-18.68-21.65-31.36-.01-.04-.03-.09-.04-.13-.55-2.35-.87-3.68-.9-3.79l-.3.07c-3.61-12.06-4.97-22.81-5.18-24.7v-.03c.91-1.66,1.88-3.47,2.88-5.46,2.32-4.54,5.28-14.38,9.02-26.83,2.07-6.88,4.31-14.33,6.74-21.91,4.32-13.51,9.26-27.43,14.93-39.27,13.12-27.43,44.08-39.84,49.17-41.72h.01s.01,0,.01,0Z"/>
  <path class="cls-1" d="M230.14,468.23c-.12,15.6-.24,31.2-.36,46.8-.07,9.48-.16,19.07-2.2,28.31-1.16.22-2.03,1.18-2.15,2.35-.96,9.3-3.66,32.05-8.98,50.1-1.42,4.81-3.31,11.11-5.63,18.71l-.04.15c-.34,1.12-.69,2.24-1.04,3.38-3.88,8.07-14.43,27.61-27.5,32.47-3.56,1.33-7.09,1.44-10.51.36,4.68-5.16,8.34-23.28,13.67-51.37,2.29-12.04,4.66-24.5,7.13-34.81,6.83-28.5,30.74-81.49,37.61-96.45Z"/>
</svg>