<?xml version="1.0" encoding="UTF-8"?>
<svg id="Layer_1" xmlns="http://www.w3.org/2000/svg" width="1170" height="2532" version="1.1" viewBox="0 0 1170 2532">
  <!-- Generator: Adobe Illustrator 29.6.1, SVG Export Plug-In . SVG Version: 2.1.1 Build 9)  -->
  <path d="M1037.39,1227.07c.14.46.28.93.43,1.39-5.06-1.41-15.43-5.61-31.54-18-25.38-19.52-62.75-90.61-75.79-161.4-3.82-20.7-3.58-47.4-1.32-74.91,4.58-55.7,17.49-114.75,21.99-134.21,5.12-15.06,7.71-29.57,8.83-37.29,1.96,3.35,3.65,6.06,4.99,8.12.11,1.65.22,3.29.33,4.92,3.14,48.27,5.98,71.12,9.41,76.33.22.36,21.17,35.68,28.87,58.81,3.83,11.49,13.21,97.76,20.76,167.07,5.98,55.04,11.16,102.58,13.04,109.17Z" fill="#f28820"/>
  <path d="M962.59,770.97c.6,10.32,1.22,21.08,1.88,31.75-1.05-1.75-2.18-3.71-3.4-5.89-1.55-2.77-3.22-5.88-4.98-9.33-3.17-6.22-7.37-20.19-12.68-37.88-2.83-9.41-5.89-19.6-9.21-30.01h0c2.46-16.02,5.76-49.04,7.8-70.54.98,3.72,2.17,7.36,3.57,10.9,3.91,9.9,10.81,30,13.16,53.41,1.22,12.2,2.44,33.23,3.86,57.59Z" fill="#f28820"/>
  <path d="M955.22,1139.65l-1.42.64c-16.04-35.49-32.72-71.02-38.92-83.19-21.69-42.5-32.55-102.31-35.49-144.1-.1-1.47-.25-2.91-.45-4.33,13.99,16.28,42.42,50.76,46.34,66.3h0c-2.21,27.45-2.39,54.05,1.43,74.78,5.77,31.33,16.31,62.78,28.51,89.9Z" fill="#f28820"/>
  <path id="bicepLongRight" d="M956.86,797.11c-.33,2.86-2.29,18.19-7.45,35.38l-.4-.1c-.04.16-.49,2-1.25,5.26-.02.07-.05.14-.07.21-6.08,18.25-15.83,37.33-31.1,45.16h-.01c-.86-.15-4.07-2.1-8.98-20.72-3.64-13.83-7.16-32.38-10.89-52.02-3.3-17.33-6.7-35.25-10.27-50.13-10.79-44.95-51.73-133.8-56.41-143.86,0-.01.01-.01.01-.02,2.41-4.08,5.12-8.45,8.09-13.16,7.29,2.69,51.72,20.48,70.54,59.84,8.09,16.92,15.2,36.94,21.41,56.33,3.5,10.9,6.71,21.59,9.67,31.43,5.38,17.88,9.61,31.98,12.94,38.51,1.46,2.86,2.86,5.49,4.17,7.89Z" fill="#f28820"/>
  <path d="M939.37,635.8h0c-1.45,15.81-4.99,53.37-7.87,75.45v.03c-5.72-17.34-12.15-34.86-19.38-49.98-18.86-39.42-62.34-57.85-71.92-61.5,0-.01.01-.03.02-.04,6.23-10.87,5.28-24.35-2.48-33.97h-.03v.02c-19.06-23.63-40.84-35.65-82.43-53.69-23.3-10.1-48.04-15.61-70.83-18.09,8.32-2.71,23.51-7.62,45.79-14.64,30.66-9.68,95.02-21.34,113.39-24.59,1.31.57,2.55,1.13,3.77,1.71,23.57,10.98,43.31,26.2,58.69,45.21,10.53,13.04,18.11,28.72,21.88,45.38,4.56,20.19,10.1,50.03,10.59,77.65.01,1.39.07,2.78.17,4.13.12,2.31.34,4.6.64,6.92Z" fill="#f28820"/>
  <path id="bicepShortRight" d="M912.57,884.7c-4.92,1.57-9.96,1.39-15.07-.5-19.22-7.16-34.65-36.51-39.86-47.49-.21-.68-.41-1.35-.62-2.03l-.62-2.01c-3.27-10.68-6-19.72-8.08-26.86-7.61-25.77-11.55-58.85-12.9-71.79-.1-1.42-.98-2.63-2.23-3.18l-5.58-110.4s.05-.09.07-.14c8,17.39,44.92,98.63,55.04,140.75,3.56,14.8,6.94,32.67,10.23,49.96,7.65,40.3,12.9,66.29,19.62,73.69Z" fill="#f28820"/>
  <path d="M843.16,1411.28c1.44,78.7,3.39,186.48-11.82,247.33-11.55,46.16-21.9,95.61-28.54,128.98-2.59,13.01-4.24,26.24-4.93,39.48-7.94-.73-14.53-4.3-19.6-10.66-22.88-28.67-9.89-104.61-8.56-111.95h0c9.93-10.56,14.72-37.06,22.6-80.56,1.33-7.3,2.74-15.07,4.26-23.28,9.48-50.99,34.83-179.96,40.29-207.71,2.64,4.96,4.79,8.54,6.18,10.73l.12,7.64Z" fill="#f28820"/>
  <path d="M808.9,1164.2c9.4,21.94,35.78,100.73,33.8,172.65-.45,15.88-.17,37.63.21,59.1-1.34-2.34-2.89-5.19-4.61-8.55-6.85-13.44-16.3-35.05-24.55-64.98-14.69-53.2-67.63-116.77-72.01-121.96v-.02c3.24-26.66,5.35-46.15,5.77-50.16h0c.99-1.45,1.93-2.84,2.83-4.14,16.53-24.03,23.66-43.42,27.69-60.74,2.59,19.42,12.82,40.67,22.03,59.8,3.26,6.78,6.34,13.16,8.84,19Z" fill="#f28820"/>
  <path id="pectoralRight" d="M834.75,568.19c7.04,8.77,7.65,21.15,1.45,30.83h-.02c-3.46,5.44-7.24,11.53-10.75,17.54-5.89,10.1-11,19.96-12.51,25.96-.46,1.82-1.03,4.36-1.72,7.45-.52,2.29-1.1,4.9-1.76,7.74-5.93,25.58-17.65,70.37-36.79,82.16-20.31,12.5-66.64,13.51-107.71,8.15-5.87-.77-11.62-1.66-17.18-2.67-40.34-7.33-57.77-35.04-59.64-51.89-.25-2.29-.37-5.68-.37-9.89,0-27.39,4.88-89.38,8.02-108.16,1.15-6.84,1.1-15.68,1.09-25.05-.06-21.66-.11-46.21,14.69-49.93,9.91-2.47,24.89-4.26,42.61-4.26,7.11,0,14.67.29,22.53.94,24.39,2.01,51.62,7.49,77.11,18.53,20.5,8.88,36.11,16.28,48.91,24.32,12.78,8.05,22.77,16.76,32.04,28.23Z" fill="#f28820"/>
  <path id="quadMidRight" d="M834.03,1387.43s0,.01.01.01c-2.1,10.6-30.96,157.25-41.23,212.48-1.53,8.21-2.94,15.98-4.26,23.3-7.59,41.91-12.61,69.6-21.99,78.98l-.74.74c-11.15,10.97-23.28,18.72-46.4-.85-3.85-3.26-7.74-9.62-11.56-18.01-19.51-42.85-37.25-138.69-38.44-145.19h0s.01-.02.01-.03c12.02-51.69,26.55-110.35,37.14-136.81,12.86-32.13,26.64-132.25,34.52-196.35,11.24,13.65,55.83,70.05,68.97,117.74,7.97,28.95,17.1,50.26,23.97,63.99Z" fill="#f28820"/>
  <path d="M827.61,620.44l5.58,110.4c-.3-.14-.63-.24-.97-.29-1.77-.27-3.46.69-4.15,2.37-1.57,3.93-4.21,10.46-6.92,17.16-.04.14-.11.27-.24.57-4.47,11.1-7.72,18.91-8.42,20.34-.58,1.14-1.25,3.42-2.63,8.08-.59,1.98-1.25,4.25-2,6.7-6.09,12.27-16.75,31.71-29.52,40.23-17.62,11.75-41.49,10.84-54.16,9.25-3.06-.37-6.03-2-8.81-4.32-4.64-3.85-8.75-9.63-11.82-14.7-3.43-5.68-3.77-12.7-.93-18.74,2.87-6.06,8.28-10.09,14.85-11.05l.19-.04h.03c1.5.49,2.87.83,4.09.98l3.37.43c8.03,1.03,18.65,2.41,29.18,2.41h.01c11.59,0,23.08-1.67,30.96-7.29,9.16-6.54,34.14-32.65,36.15-52.72,1.89-18.9-6.93-66.98-8.01-72.72.01-.02.01-.05.02-.07v-.04c.53-2.38,1.05-4.59,1.49-6.57.69-3.06,1.25-5.58,1.69-7.36,1.14-4.59,4.95-12.49,10.97-23.01Z" fill="#f28820"/>
  <path d="M811.24,666.71c2.77,16.1,7.8,49.04,6.4,63.12-1.79,17.98-25.03,43.2-34.56,50-13.8,9.86-42.19,6.17-57.44,4.19l-3.39-.43c-1.32-.16-2.86-.58-4.58-1.21-13.13-4.8-36.47-21.76-47.15-29.8,13.34,1.54,27.2,2.42,40.5,2.42,25.98,0,49.84-3.39,63.66-11.88,18.42-11.32,30.03-49.81,36.56-76.41Z" fill="#f28820"/>
  <path d="M814.07,1991.29c1.95,48.25-13.48,188.76-18.97,206.98-5.41,18.12-13.59,82.2-9.6,108.07.71,4.63,1.67,9.33,2.91,14.32l-8.75-1.25c-7.94-1.15-23.87,3.8-37.9,8.16-1.69.53-3.45,1.08-5.22,1.62,5.78-22.71,40.02-156.81,50.45-196.77,8.81-33.79,17.96-145.52,21.7-195.13,3.07,23.18,4.89,41.3,5.38,54Z" fill="#f28820"/>
  <path d="M805.36,1913.58c.27,1.84.54,3.7.81,5.57-2.25,31.53-12.8,173.68-22.89,212.31-10.85,41.61-47.51,185.22-51.03,199.01-5.08,1.49-9.55,2.62-11.19,2.47-4.72-8.69-10.26-124.07,10.5-258.07,12.02-77.57,29.9-135.89,39.48-163.74,12-34.86,21.38-53.24,26.58-60.68.38,11.64,1.51,23.31,3.35,34.71,1.41,8.72,2.88,18.28,4.39,28.42Z" fill="#f28820"/>
  <path d="M796.68,812.37c1.29-1.79,2.52-3.62,3.7-5.46-1.18,2.77-2.35,5.24-3.52,7.42-2.54,4.74-4.23,9.83-5.02,15.11-.25,1.44-.4,2.9-.49,4.35-.03.57-.08,1.16-.14,1.77-10.5,27.74-24.61,44.8-41.05,49.48-20.08,5.74-33.66,5.82-40.63,3.03-2.5-.99-4.15-2.35-4.95-3.95-2.41-4.83,4.11-31.83,9.27-49.53t.01-.02l.02.02c3.05,2.36,6.35,4.01,9.81,4.45,4.06.49,9.24.93,14.99.93,12.95,0,28.86-2.2,41.76-10.82,5.96-3.97,11.44-10.09,16.24-16.78Z" fill="#f28820"/>
  <path d="M787.51,853.39c-.32.96-.62,1.88-.92,2.77l-.66,1.99c-1.75,5.18-2.94,10.49-3.59,15.78v.14c-.32,2.5-.48,4.99-.51,7.43-.56,1.37-1.19,2.94-1.87,4.66-6.5,16.27-18.55,46.57-39.63,56.3-22.15,10.22-39.33,12.03-45.45,10.82-1.05-.2-1.78-.5-2.14-.86-3.06-3.07-3.76-16.31,4.26-36.18,3.27-8.17,11.58-20.08,14.15-23.7.01,0,.03.01.04.01,2.88.73,6.29,1.09,10.13,1.09,8.17,0,18.35-1.65,29.91-4.94,13.99-4.01,26.32-16.07,36.28-35.31Z" fill="#f28820"/>
  <path d="M782.2,890.86c.11,2.04.17,4.22.17,6.42,0,2.77-.67,6.78-1.36,10.52l-3.51.21c.01.32,1.85,32.48-1.88,51.15-1.43,7.18-3.11,14.67-5.57,21.92-4.21,12.49-10.74,24.24-22.33,32.35-12.51,8.76-34.51,31.84-49.07,47.12-4.66,4.88-9.12,9.57-11.69,12.08-1.11-14-1.24-74.89.6-84.04,1.67-8.37,5.55-27.12,6.48-31.63,1.53.35,3.35.52,5.43.52,9.78,0,25.42-3.67,42.45-11.52,21.11-9.73,33.34-37.81,40.28-55.1Z" fill="#f28820"/>
  <path d="M778.26,1053.08c.11,5.97-.09,11.22-.75,15.17-3.52,21.16-8.78,44.43-30.29,75.75-1.07,1.56-2.23,3.24-3.45,5.03-7.38,10.77-17.3,25.35-27.33,40.13-11.44,16.88-23.02,34.01-31.1,45.96,5.28-14.67,10.63-35.39,5.98-50.44-6.85-22.26-5.92-94.1-5.7-106.55v-.02h.07c1.33,0,1.5,0,15.72-14.92,14.44-15.17,36.3-38.09,48.49-46.63,10.49-7.34,17.06-17.35,21.51-28.19.21,1.33.44,2.82.68,4.44h0c-.77,9.49,1.03,21.17,2.9,33.46,1.36,8.94,2.76,18.07,3.27,26.78v.03Z" fill="#f28820"/>
  <path d="M776.44,436.68c-1.93,3.63-7.6,9.53-24.15,12.21-7.07,1.15-14.57.99-22.35-.44-9.82-1.81-18.68-6.64-25.64-13.96-3.5-3.69-7.75-9.21-11.95-15.49-3.12-4.67-6.22-9.76-8.96-14.83,22,13.57,60.02,28.3,75.22,30.2l3.74.46c4.19.51,8.9,1.1,14.09,1.85Z" fill="#f28820"/>
  <path d="M740.72,1160.22l-.03.09c-5.01,17.82-15.87,56.6-31.98,114.3-30.3,108.58-52.8,181.88-66.87,217.86-10.8,27.57-17.14,53.9-20.37,69.64-3.35-46.72-4.15-91.32-4.31-104.63-.02-.92-.04-1.81-.05-2.68,2.92-5.91,7.14-23.13,15.95-64.11,2.02-9.35,3.76-17.45,4.76-21.42,3.9-15.62,32.71-82.27,47.5-102.61,14.92-20.52,33.11-71.5,34.69-75.97,7.27-10.73,14.48-21.32,20.65-30.39.02-.03.04-.05.06-.08Z" fill="#f28820"/>
  <path d="M741.13,1172.82c-.95,8.27-2.15,18.36-3.53,29.67-7.83,63.84-21.85,166.4-34.56,198.16-10.75,26.86-25.48,86.41-37.56,138.54-4.99,21.47-9.52,41.68-13.14,57.83-3.23,14.39-5.55,24.77-6.76,29.55-3.55,14.21-4.21,39.52-4.19,57.26-2.28-9.64-4.72-19.24-6.66-26.89-.74-2.93-1.41-5.55-1.97-7.79-4.06-16.21-7.46-40.48-10.11-72.16v-.04c.82-5.29,6.97-42.81,22.73-83.1,14.12-36.09,36.66-109.51,67-218.22,13.24-47.42,22.94-82.08,28.75-102.81Z" fill="#f28820"/>
  <path d="M704.12,1684.92c4.95,30.17,14.77,109.99,1.41,120.38-13.63,10.6-37.41,1.68-44.46-1.34-5.12-31.62-11.68-74.57-12.96-85.87-.4-3.76-1.21-8.67-2.47-15.04-.06-.28-.11-.56-.17-.84-.25-8.21-1.32-54.23,3.8-74.71,1.21-4.84,3.56-15.26,6.79-29.66,3.15-14.08,6.98-31.23,11.22-49.61,4.94,25.74,19.91,99.09,36.83,136.68,0,0,.01,0,.01.01Z" fill="#f28820"/>
  <path d="M710.95,1204.06c-6.8,17.69-18.7,46.57-28.74,60.35-15.37,21.13-44.06,87.69-48.11,103.96-1.02,4.02-2.77,12.14-4.79,21.53-3.23,15.04-8.44,39.23-12.27,53.26-.12-26.22-3.57-55.41-6.49-75.52l-.03-.3c-1.39-9.53-2.48-15.7-2.48-15.7l-.4-2.23c2.08-5.12,9.75-14.27,16.09-21.84,4.71-5.6,9.14-10.89,11.92-15.08,6.97-10.47,37.25-52.64,42.01-59.25h.04s.14-.2.34-.51c.02-.03.05-.06.06-.08l.03-.03c.1-.16.16-.24.17-.27h0c3.01-4.48,17.08-25.31,32.66-48.29Z" fill="#f28820"/>
  <path d="M697.16,1917.83c.83,22.33-.95,53.56-5.47,85.71-5.34,37.95-14.51,77.19-27.73,104.58l-2.29-8.03c-3.35-11.72-5.99-20.98-6.92-24.83-5.9-24.2-13.16-57.79-14.28-80.4-1.34-26.87,4.21-48,9.12-66.64.53-2.01,1.05-3.98,1.55-5.93.8-3.11,2.28-7.58,3.97-12.74,6.07-18.46,15.07-45.82,12.62-65.93,8.66,9.55,27.98,35.13,29.43,74.21Z" fill="#f28820"/>
  <path d="M694.5,808.76c1.29,10.49.73,22.21-2.33,34.83h-.01c-.7,2.99-2.73,5.5-5.52,6.85-2.83,1.39-6.11,1.45-9,.16-14.56-6.53-34.2-14.82-45.11-17.26-3.7-.82-7.3-1.48-10.77-2.08-12.65-2.27-22.64-4.07-28.22-12.42-3.51-5.28-5.18-18.28-5.18-31.45,0-15.57,2.33-31.35,6.72-34.85,2.83-2.27,10.1-3.41,19.2-3.41,17.79,0,42.58,4.36,55.01,13.06,12.2,8.54,22.59,24.97,25.21,46.57Z" fill="#f28820"/>
  <path d="M692.92,2021.41c2.27,39.44,6.26,135.98-3.65,205.65-.32-8.16-.71-15.37-1.1-20.54-1.21-15.91-12.57-57.43-22.37-91.95l-.1-.39c-.06-.22-.12-.43-.18-.64,12.68-24.5,21.64-58.22,27.4-92.13Z" fill="#f28820"/>
  <path d="M687.35,419.56c1.83,19.19,3.17,40.4,2.5,44.99-4.7-1.32-23.93-16.47-31.33-26.4-6.31-8.45-12.38-19.57-12.44-19.68l-.27.14c3.25-6.22,6.49-12.77,9.62-19.63,3.14-6.85,6.17-14,8.99-21.42.48-1.25.97-3.09,1.48-5.36-.05,8.46.33,13.81,1.14,16.67.56,1.98,1.98,4.08,4.35,6.4v1.65h1.78c1.08.93,2.32,1.9,3.69,2.9,3.16,6.58,7.12,13.43,11.22,19.66,0,0,0,0,.01,0l-.74.07Z" fill="#f28820"/>
  <path d="M684.41,880.08c.22,19.51-6,34.76-11.87,40.71-1.54,1.54-3,2.41-4.09,2.41-7.03,0-58.22-16.34-72.06-20.95-6.81-2.27-7.27-7.3-7.55-16.7-.1-3.17-.22-6.76-.73-10.44-1.85-12.94,1.79-32.61,3.29-34.73.04-.01,2.25-2.09,10.9-2.09,6.1,0,15.39,1.03,29.34,4.53,18.94,4.73,34.91,14.58,44.95,22.01,2.42,1.79,4.36,4.1,5.7,6.73,1.36,2.61,2.08,5.54,2.12,8.52Z" fill="#f28820"/>
  <path d="M673.38,974.01c0,5.87-.73,12.11-2.31,18.67-.53,2.2-2.02,4.05-4.09,5.06-2.08,1.03-4.53,1.08-6.64.11-11.36-5.11-26.69-11.58-35.24-13.47-2.9-.65-5.71-1.15-8.41-1.65-9.76-1.74-17.47-3.13-21.72-9.47-5.93-8.88-5.12-46.14,1.09-51.1,2.18-1.74,7.73-2.61,14.71-2.61,13.73,0,32.97,3.39,42.62,10.14,10.93,7.65,19.99,23.51,19.99,44.32Z" fill="#f28820"/>
  <path d="M668.35,316.27c-.21,4.1-.46,8.67-.72,13.43-.17,3.11-.34,6.31-.52,9.55-1.91,15.16-4.32,31.76-6.28,36.93h.02c-6.05,15.86-13.02,30.49-19.98,43.6-8.95,16.85-17.89,31.17-24.83,42.29-3.29,5.25-6.11,9.78-8.12,13.31-5.9,10.32-14.62,16.31-16.71,15.37-.3-.13-1.08-1.71.65-6.87,1.78-5.34,6.76-20.66,13.07-40.04,12.74-39.13,31.73-97.47,34.39-104.46.11-.28.19-.48.24-.59,1.17-2.06,14.78-12.46,28.79-22.52Z" fill="#f28820"/>
  <path d="M666.78,1012.13c7.14,12.54,5.77,114.4-.19,136.25h.02c-.52,1.88-1.25,4.61-2.14,8.05-25.19,95.38-44.81,148.27-58.29,157.27-13.93,9.28-17,8.88-17.62,8.57-.56-.3-.5-2.47-.46-3.76,0-.44.01-.88.01-1.31v-307.94c0-3.99,1.98-9.53,19.2-11.46,14.71.53,53.64,4.15,59.47,14.33Z" fill="#f28820"/>
  <path id="pectoralLeft" d="M574.34,575.42c3.13,18.75,8.01,80.61,8,108.05,0,4.26-.12,7.69-.38,10v-.02c-1.87,16.86-19.29,44.55-59.63,51.89-5.56,1.01-11.32,1.91-17.19,2.67-41.06,5.38-87.37,4.35-107.7-8.15-19.13-11.77-30.86-56.57-36.78-82.15-.66-2.84-1.24-5.43-1.76-7.72-.7-3.11-1.28-5.65-1.72-7.47-1.51-6-6.63-15.85-12.53-25.95-3.5-6-7.28-12.1-10.74-17.54-6.18-9.68-5.6-22.07,1.45-30.83,18.55-22.98,39.97-34.79,80.97-52.55,25.48-11.04,52.7-16.51,77.09-18.52,27.39-2.26,51.24-.15,65.13,3.31,14.81,3.7,14.75,28.26,14.69,49.93,0,9.37-.04,18.21,1.1,25.05Z" fill="#f28820"/>
  <path d="M578.61,840.31c1.56,2.18,5.19,21.85,3.36,34.79h.01c-.53,3.7-.63,7.28-.73,10.45-.29,9.4-.75,14.42-7.55,16.7-13.84,4.61-65.03,20.95-72.08,20.95-1.08,0-2.55-.88-4.07-2.41-5.77-5.85-11.91-20.75-11.91-39.86v-.88c.06-5.98,2.98-11.68,7.82-15.25,10.07-7.43,26.03-17.27,44.95-22.01,14-3.5,23.31-4.53,29.4-4.53,4.3,0,6.99.52,8.62,1.02,1.62.52,2.18,1.03,2.18,1.03Z" fill="#f28820"/>
  <path d="M581.51,1322.25c-.64.33-3.75.66-17.62-8.57-13.47-9-33.08-61.91-58.28-157.27-.92-3.44-1.65-6.17-2.14-8.05-5.95-21.85-7.36-123.74-.19-136.25,5.82-10.19,44.76-13.79,59.47-14.33,17.2,1.94,19.2,7.47,19.2,11.46v307.94c0,.42,0,.86.01,1.31.01,1.3.07,3.43-.45,3.76Z" fill="#f28820"/>
  <path d="M578.23,483.87c1.72,5.18.93,6.74.65,6.87v.02c-2.12.96-10.82-5.05-16.71-15.37-2.01-3.53-4.85-8.06-8.12-13.31-6.94-11.12-15.88-25.44-24.83-42.29-6.97-13.11-13.94-27.75-19.98-43.6-2-5.25-4.46-22.26-6.38-37.6-.17-3.05-.33-6.07-.5-9.01-.26-4.72-.51-9.27-.71-13.35,14.05,10.06,27.7,20.49,28.85,22.54.05.11.13.31.24.59,2.67,7.01,21.64,65.25,34.36,104.31,6.33,19.47,11.33,34.85,13.13,40.2Z" fill="#f28820"/>
  <path d="M581.72,787.38c0,13.16-1.67,26.17-5.19,31.46,0,0,0,.01,0,.01-5.55,8.34-15.55,10.13-28.2,12.41-3.47.62-7.07,1.26-10.79,2.08-10.9,2.42-30.54,10.72-45.09,17.26-2.88,1.31-6.17,1.25-9.02-.16-2.78-1.36-4.79-3.86-5.52-6.86-3.06-12.65-3.6-24.38-2.31-34.89,2.64-21.57,13.01-37.98,25.19-46.51,18.78-13.14,65.82-16.36,74.23-9.63,4.38,3.5,6.71,19.27,6.71,34.83Z" fill="#f28820"/>
  <path d="M573.99,922.16c6.21,4.96,7.02,42.22,1.09,51.1h.03c-4.25,6.35-11.94,7.74-21.71,9.48-2.71.5-5.52.99-8.41,1.65-8.54,1.89-23.89,8.36-35.24,13.47-2.14.96-4.56.92-6.67-.11-2.07-1.02-3.53-2.87-4.07-5.06-7.25-29.9,3.64-53.18,17.65-63,9.66-6.76,28.88-10.14,42.64-10.14,6.96,0,12.51.88,14.69,2.61Z" fill="#f28820"/>
  <path d="M492.37,1253.2h.01s.02,0,.02.01c4.65,6.46,35.06,48.81,42.05,59.3,2.78,4.19,7.22,9.48,11.91,15.08,6.27,7.48,13.84,16.51,16.02,21.67l-.41,2.31c-.01.06-1.09,6.17-2.48,15.7l-.03.3c-2.91,20.05-6.36,49.15-6.49,75.31-3.82-14.07-9-38.04-12.21-52.96-2.02-9.4-3.76-17.52-4.78-21.55-4.07-16.26-32.77-82.82-48.12-103.96-10.04-13.79-21.97-42.72-28.77-60.4,15.61,23.03,29.72,43.92,32.71,48.35h-.01s.06.1.17.25c.02.03.04.06.07.1.04.06.09.13.14.2.01.01.01.02.02.03,0,.02.02.04.04.06.07.1.12.17.13.2h0Z" fill="#f28820"/>
  <path d="M552.89,1454.57c-.01.92-.02,1.86-.03,2.84-.18,13.4-1.01,58.21-4.32,104.28-3.25-15.79-9.57-41.88-20.27-69.23-14.08-35.97-36.59-109.27-66.89-217.86-16.11-57.72-26.99-96.52-31.99-114.33,6.21,9.12,13.44,19.76,20.74,30.52,1.74,4.96,19.81,55.46,34.63,75.87,14.81,20.34,43.6,86.99,47.52,102.61.99,3.97,2.73,12.08,4.76,21.43,8.72,40.48,12.92,57.77,15.85,63.87Z" fill="#f28820"/>
  <path d="M547.39,1576.53l-.03.39c-2.66,31.68-6.07,55.96-10.13,72.14-.56,2.24-1.22,4.86-1.97,7.79-1.9,7.49-4.29,16.87-6.53,26.32,0-17.7-.69-42.55-4.2-56.59-1.19-4.79-3.53-15.19-6.76-29.58-3.62-16.15-8.15-36.35-13.14-57.82-12.08-52.12-26.81-111.66-37.56-138.53-12.7-31.77-26.74-134.35-34.58-198.19-1.38-11.3-2.57-21.38-3.53-29.64,5.81,20.73,15.51,55.38,28.75,102.81,30.34,108.72,52.88,182.14,67,218.22,15.4,39.36,21.63,76.08,22.68,82.68Z" fill="#f28820"/>
  <path d="M520.36,1928.12c4.91,18.64,10.46,39.76,9.14,66.63-1.14,22.52-8.4,56.15-14.28,80.4-.91,3.7-3.4,12.44-6.56,23.5l-2.64,9.23c-13.16-27.37-22.29-66.49-27.62-104.34-4.53-32.16-6.31-63.4-5.48-85.73,1.44-38.81,20.57-64.37,29.3-74.06-2.33,20.17,6.6,47.33,12.63,65.7,1.69,5.17,3.16,9.63,3.96,12.73.5,1.97,1.02,3.93,1.55,5.94Z" fill="#f28820"/>
  <path d="M520.8,1627.49c5.01,20.04,4.09,64.49,3.83,74.11-.1.46-.2.92-.29,1.37-1.26,6.36-2.07,11.27-2.47,15.01-1.25,11.06-7.7,53.41-12.94,86.07-7.17,3.06-30.8,11.85-44.38,1.28-13.34-10.39-3.52-90.26,1.42-120.4.01-.03.01-.04.01-.04h0c16.91-37.56,31.86-110.78,36.81-136.59,4.23,18.35,8.07,35.47,11.22,49.52,3.25,14.42,5.58,24.84,6.79,29.67Z" fill="#f28820"/>
  <path d="M524.27,418.62l-.29-.16c-.05.11-6.11,11.22-12.42,19.68-7.4,9.93-26.6,25.07-31.33,26.4-.68-4.68.67-25.83,2.48-44.98l-.36-.03h0c4.48-6.6,8.71-13.8,11.87-20.69,1.62-1.24,3.02-2.42,4.2-3.56,2.42-2.35,3.9-4.49,4.49-6.54.83-2.9,1.21-8.37,1.16-17.06.55,2.51,1.08,4.53,1.59,5.88,5.64,14.85,12.09,28.62,18.61,41.06Z" fill="#f28820"/>
  <path d="M504.46,2113.37c-.06.22-.13.45-.19.67-9.83,34.59-21.27,76.34-22.5,92.35-.39,5.01-.77,11.98-1.08,19.89-9.78-69.69-5.79-165.82-3.54-205.02,5.74,33.89,14.66,67.58,27.31,92.11Z" fill="#f28820"/>
  <path id="quadMidLeft" d="M463.49,1402.06c10.59,26.47,25.14,85.21,37.15,136.96-1.4,7.64-19.03,102.52-38.42,145.07-3.82,8.38-7.71,14.74-11.55,17.99-23.12,19.57-35.24,11.83-46.39.86l-.75-.75c-9.38-9.38-14.4-37.07-21.99-78.98-1.32-7.32-2.72-15.08-4.26-23.3-10.27-55.23-39.15-201.88-41.24-212.47t0-.01s.01-.01.01-.01c6.87-13.73,15.98-35.06,23.97-64,13.15-47.67,57.73-104.04,68.95-117.73,7.87,64.11,21.67,164.25,34.52,196.37Z" fill="#f28820"/>
  <path d="M459.13,755c13.28,0,27.1-.9,40.42-2.41-10.67,8.05-33.94,24.95-47.08,29.77-1.74.64-3.3,1.06-4.63,1.23l-3.39.43c-15.25,1.98-43.64,5.67-57.44-4.19-9.51-6.8-32.77-32.01-34.56-50-1.42-14.09,3.67-47.3,6.43-63.33l.03.12c3.25,13.3,7.79,29.59,13.81,43.97,6.03,14.39,13.54,26.86,22.77,32.53,13.79,8.51,37.67,11.88,63.64,11.88Z" fill="#f28820"/>
  <path d="M484.42,1078.13c.22,12.62,1.15,84.28-5.69,106.52-4.62,15.05.72,35.76,6,50.44-8.08-11.95-19.65-29.06-31.09-45.93-10.02-14.77-19.93-29.36-27.31-40.13-1.24-1.8-2.4-3.5-3.48-5.07-21.52-31.31-26.76-54.58-30.29-75.74-.79-4.77-.93-11.42-.64-18.96v-.09c.64-7.55,1.83-15.34,2.99-22.99,1.82-11.95,3.56-23.34,2.95-32.69.29-1.92.56-3.66.8-5.2,4.46,10.87,11.03,20.91,21.55,28.27,12.19,8.54,34.04,31.47,48.49,46.63,14.22,14.92,14.39,14.92,15.71,14.92v.02h.01Z" fill="#f28820"/>
  <path d="M482.55,988.6c1.82,9.16,1.69,70.04.6,84.04-2.57-2.51-7.03-7.2-11.68-12.08-14.56-15.28-36.57-38.38-49.08-47.13-11.59-8.11-18.12-19.88-22.35-32.39-2.45-7.23-4.12-14.72-5.55-21.88-3.73-18.65-1.89-50.83-1.88-51.15l-3.67-.22c-.68-3.75-1.38-7.73-1.38-10.64,0-2.33.06-4.53.18-6.6,6.92,17.25,19.19,45.64,40.41,55.43,17.03,7.85,32.67,11.52,42.45,11.52,2.13,0,3.96-.18,5.47-.52.93,4.53,4.81,23.26,6.48,31.62Z" fill="#f28820"/>
  <path d="M487.74,403.29c-2.81,5.28-6.09,10.57-9.48,15.46-4.27,6.16-8.69,11.68-12.52,15.73-6.95,7.32-15.81,12.15-25.62,13.96-7.78,1.43-15.3,1.59-22.37.44-16.72-2.7-22.33-8.69-24.2-12.32,5.19-.76,9.92-1.33,14.12-1.86l3.66-.46c15.46-1.94,54.81-17.3,76.41-30.95Z" fill="#f28820"/>
  <path d="M473.06,916.3c8.01,19.87,7.31,33.11,4.25,36.18-.27.27-.75.5-1.41.69-5.36,1.52-23.06.01-46.16-10.65-21.09-9.72-33.16-40.02-39.63-56.3-.74-1.87-1.41-3.56-2.02-5.01-.04-2.39-.22-4.8-.52-7.19v-.19c-.61-5.27-1.82-10.59-3.57-15.8-.29-.88-.6-1.81-.92-2.77l-.66-1.99c-.06-.17-.12-.35-.17-.52,10,19.59,22.44,31.87,36.6,35.93,11.55,3.29,21.73,4.94,29.91,4.94,3.84,0,7.23-.36,10.1-1.08l.03.03c2.55,3.59,10.87,15.54,14.17,23.73Z" fill="#f28820"/>
  <path d="M439.84,479.36c22.3,7.03,37.49,11.95,45.84,14.68-22.81,2.48-47.56,7.99-70.87,18.08-20.8,9.02-36.63,16.54-49.65,24.76-13.03,8.22-23.23,17.12-32.74,28.92-7.78,9.63-8.74,23.1-2.5,33.97-.01,0-.01,0-.02,0-9.57,3.64-53.09,22.08-71.94,61.52-7.22,15.11-13.65,32.58-19.39,49.89-2.93-22.43-6.53-60.76-7.94-76.09.28-2.14.46-4.23.58-6.3.08-1.39.16-2.78.17-4.16.5-27.8,6.04-57.57,10.6-77.66,3.77-16.66,11.35-32.34,21.88-45.38,15.33-18.98,35.07-34.19,58.66-45.21,1.22-.57,2.45-1.13,3.69-1.67,18.04,3.19,82.85,14.91,113.63,24.64Z" fill="#f28820"/>
  <path d="M467.5,797.44c2.87,6.03,2.51,13.04-.93,18.74-3.22,5.33-7.58,11.42-12.5,15.26-2.58,2.01-5.32,3.41-8.13,3.76-12.67,1.58-36.54,2.5-54.16-9.25-13.1-8.74-23.98-28.97-29.97-41.16-.66-2.17-1.25-4.19-1.78-5.98-1.35-4.59-2.02-6.84-2.58-7.96-.71-1.41-3.87-9.01-8.46-20.39l-.42-.98c-2.62-6.49-5.17-12.86-6.71-16.69-.64-1.65-2.32-2.64-4.07-2.4-.32.04-.62.12-.91.24l5.58-110.28c6.09,10.55,9.9,18.52,11.05,23.12.44,1.79,1.02,4.3,1.71,7.37.43,1.95.92,4.1,1.47,6.43-.87,4.59-9.96,53.83-8.05,72.94,2,20.05,27,46.18,36.15,52.72,7.86,5.63,19.36,7.29,30.97,7.29h.01c10.53,0,21.14-1.36,29.17-2.41l3.37-.43c1.23-.15,2.63-.5,4.16-1h.18c6.57.97,12.01,5.01,14.85,11.06Z" fill="#f28820"/>
  <path d="M456.2,834.56c5.15,17.72,11.69,44.69,9.28,49.51-.85,1.71-2.67,3.15-5.45,4.15-7.12,2.59-20.53,2.37-40.13-3.23-16.52-4.71-30.71-21.91-41.21-49.87-.01,0-.01,0-.01-.02-.03-.47-.07-.94-.1-1.42-.09-1.47-.25-2.95-.49-4.33-.81-5.32-2.5-10.42-5.04-15.15-1.27-2.35-2.52-5-3.79-8,5.69,8.94,12.62,17.75,20.38,22.92,12.91,8.62,28.8,10.82,41.76,10.82,5.76,0,10.94-.43,14.99-.93,3.45-.43,6.75-2.1,9.81-4.45Z" fill="#f28820"/>
  <path d="M438.54,2074.89c20.75,134,15.22,249.36,10.49,258.07-1.65.13-6.11-.99-11.19-2.48t-.02-.01c-3.53-13.82-40.18-157.4-51.03-199.01-10.14-38.91-20.79-182.85-22.94-212.97v-.02l.73-5.04c1.31-8.85,2.74-18.15,4.39-28.42,1.84-11.41,2.97-23.09,3.35-34.77,5.17,7.3,14.62,25.7,26.72,60.89,9.58,27.86,27.47,86.17,39.5,163.76Z" fill="#f28820"/>
  <path d="M433.56,2329.21c-1.77-.55-3.55-1.08-5.23-1.61-14.05-4.36-29.94-9.3-37.89-8.18l-8.94,1.27c1.26-5.04,2.23-9.79,2.95-14.48,3.74-24.41-3.58-87.84-9.63-108.07-5.48-18.23-20.9-158.79-18.95-206.98.52-12.92,2.35-31.28,5.47-54.69,3.69,49.17,12.9,161.96,21.76,195.97,10.42,39.96,44.68,174.07,50.46,196.77Z" fill="#f28820"/>
  <path d="M422.55,1150.25c.41,3.9,2.53,23.44,5.79,50.23-4.61,5.46-57.34,68.84-71.98,121.92-8.25,29.94-17.7,51.55-24.56,64.99-1.79,3.52-3.41,6.47-4.78,8.87.38-21.62.66-43.57.22-59.56-1.98-71.92,24.4-150.71,33.8-172.65,2.49-5.84,5.56-12.22,8.82-18.98,9.27-19.24,19.55-40.63,22.06-60.09,4.03,17.42,11.14,36.92,27.79,61.14.89,1.29,1.83,2.67,2.84,4.13Z" fill="#f28820"/>
  <path d="M400.39,1704.44c1.3,7.2,14.34,83.27-8.56,111.97-5.11,6.4-11.75,9.99-19.75,10.68-.69-13.3-2.34-26.59-4.94-39.66-6.65-33.37-16.99-82.83-28.54-128.98-15.21-60.85-13.25-168.64-11.82-247.35l.11-7.23c1.38-2.18,3.58-5.84,6.33-11,5.46,27.71,30.82,156.73,40.3,207.74,1.53,8.2,2.94,15.96,4.26,23.28,7.88,43.5,12.67,70.01,22.61,80.55Z" fill="#f28820"/>
  <path id="bicepShortLeft" d="M342.45,620.33s.01.01.01.02l-5.58,110.28c-1.31.52-2.24,1.73-2.38,3.17-1.35,13.03-5.29,46.11-12.88,71.88-2.04,6.9-4.75,15.94-8.08,26.84l-.06.22c-.53,1.69-1.05,3.4-1.58,5.12-5.66,11.72-20.71,39.41-39.33,46.34-5.11,1.91-10.17,2.07-15.08.52,6.72-7.39,11.97-33.39,19.62-73.71,3.29-17.27,6.69-35.15,10.23-49.94,10.11-42.16,47.12-123.55,55.07-140.81.01.02.03.05.04.07Z" fill="#f28820"/>
  <path id="bicepLongLeft" d="M331.99,603.08c2.96,4.69,5.67,9.09,8.07,13.16-4.51,9.7-45.62,98.86-56.44,143.93-3.57,14.89-6.97,32.8-10.26,50.13-3.73,19.64-7.25,38.19-10.89,52.02-4.87,18.5-8.06,20.54-8.95,20.72h-.01c-15.21-7.79-24.96-26.8-31.06-44.99,0-.03-.02-.07-.03-.1,0,0-.01-.02-.01-.03-.79-3.41-1.27-5.35-1.31-5.51l-.43.11c-5.18-17.31-7.13-32.72-7.43-35.43,0-.02,0-.04,0-.05,1.32-2.39,2.7-4.99,4.14-7.84,3.33-6.51,7.57-20.63,12.94-38.49,2.96-9.84,6.18-20.54,9.67-31.44,6.22-19.39,13.32-39.41,21.42-56.33,18.82-39.36,63.24-57.16,70.54-59.86,0-.01.03-.01.04-.01s0,.01,0,.01Z" fill="#f28820"/>
  <path d="M290.96,908.89c-.17,1.31-.31,2.64-.41,3.99-2.92,41.76-13.8,101.55-35.49,144.1-6.22,12.18-22.98,47.86-39.07,83.47l-1.21-.55c12.25-27.17,22.83-58.71,28.62-90.13,3.82-20.75,3.64-47.38,1.43-74.84,3.9-15.48,32.07-49.68,46.13-66.04Z" fill="#f28820"/>
  <path d="M240.94,974.13c2.27,27.53,2.5,54.24-1.31,74.95-13.04,70.79-50.41,141.87-75.79,161.4-16.33,12.55-26.77,16.69-31.74,18.05.16-.53.31-1.06.47-1.58,1.88-6.56,7.04-54.1,13.04-109.15,7.55-69.31,16.93-155.58,20.76-167.07,7.71-23.12,28.65-58.45,28.79-58.69,3.49-5.31,6.33-28.16,9.5-76.44l.31-4.67c1.35-2.08,3.08-4.85,5.08-8.31.01,0,.02-.03.02-.04,0,.02.01.04.01.06,1.14,7.74,3.74,22.4,8.93,37.58,4.55,19.72,17.36,78.47,21.93,133.91Z" fill="#f28820"/>
  <path d="M231.16,680.07c1.58,15.17,3.28,30.19,4.7,39.52-3.33,10.41-6.38,20.61-9.21,30.01-5.31,17.69-9.5,31.65-12.67,37.86-1.76,3.46-3.44,6.59-5,9.37-1.25,2.24-2.43,4.26-3.5,6.06.67-10.75,1.3-21.61,1.9-32,1.42-24.37,2.64-45.42,3.86-57.63,2.34-23.41,9.24-43.51,13.14-53.41,1.44-3.64,2.67-7.4,3.66-11.24.87,9.09,1.96,20.32,3.12,31.46Z" fill="#f28820"/>
</svg>