<?xml version="1.0" encoding="UTF-8"?>
<svg id="Layer_1" xmlns="http://www.w3.org/2000/svg" version="1.1" viewBox="0 0 1170 2532">
  <!-- Generator: Adobe Illustrator 29.6.1, SVG Export Plug-In . SVG Version: 2.1.1 Build 9)  -->
  <g id="man_1" fill="currentColor">
    <path d="M352.29,2527.14c-18.95,0-38.59-.98-49.28-2.93-16.11-2.93-37.06-16.5-39.94-29.63-.93-4.25-.47-10.42,6.96-15.61,18.23-12.78,63.34-52.31,78.56-86.55,10.16-22.87,20.36-46.96,26.2-68.22.36-1.29.7-2.57,1.02-3.82,1.33-5.25,2.35-10.16,3.1-14.98,3.64-23.8-3.51-85.77-9.44-105.55-5.54-18.45-21.15-160.31-19.18-208.86.6-15.38,3.04-38.28,7.26-68.05l1.49-10.27c1.31-8.88,2.74-18.21,4.4-28.51,1.97-12.19,3.1-24.69,3.37-37.14v-.17c.01-1.35.04-2.71.04-4.06.1-18.13-1.65-36.34-5.19-54.16-6.63-33.3-16.94-82.67-28.48-128.71-15.39-61.59-13.43-169.82-11.99-248.85l.16-10.09c.42-23.07.77-47.01.3-64.06-2.01-72.95,24.73-152.84,34.26-175.06,2.55-5.95,5.65-12.4,8.92-19.21,10.66-22.15,22.74-47.26,22.05-67.98l-.46-1.31.36-.37c-.07-1.03-.17-1.97-.29-2.83-1.84-13.87.56-29.6,2.87-44.79,2.07-13.57,4.03-26.38,2.44-35.55l-.04-.26c-.3-1.68-.72-3.21-1.25-4.56-2.93-7.25-3.69-21.92-4.22-36.34-.09-2.25-.16-4.46-.24-6.67-.19-5.12-.37-10.4-.63-15.21v-.26c-.23-4.1-.5-7.62-.83-10.59-.16-1.52-.56-3.74-.99-6.08-.77-4.26-1.65-9.08-1.65-12.65,0-3.31.11-6.43.36-9.24.09-1.15.14-2.31.19-3.47.09-3.24-.07-6.59-.47-9.91v-.2c-.6-4.82-1.72-9.7-3.33-14.5-.29-.9-.59-1.81-.92-2.75l-.66-1.99c-1.65-4.92-2.81-9.9-3.49-14.76l-.03-.2c-.29-1.99-.49-3.99-.63-6.11-.07-1.28-.22-2.54-.42-3.76-.7-4.72-2.2-9.2-4.42-13.34-3.23-5.98-6.37-13.76-9.6-23.76l-.14-.44c-1.49-4.61-2.74-8.84-3.74-12.27-.9-3.1-1.85-6.3-2.2-7-1.09-2.15-5.88-13.93-8.64-20.76l-.13-.29c-.11-.27-.23-.53-.32-.75-1.35-3.36-2.7-6.67-3.89-9.64-1.88,15.93-5.74,43.21-12.25,65.34-2.04,6.93-4.76,15.98-8.09,26.9l-.07.22c-.99,3.21-1.99,6.48-3,9.78h0l-.13.43c-6.31,20.52-12.96,41.81-16.73,53.82l-.23.73c-.6,1.92-1.09,3.89-1.48,5.84-.55,2.63-.93,5.39-1.13,8.24-2.97,42.32-14.02,102.98-36.11,146.3-13.62,26.64-70.43,150.43-74.17,167.18-2.73,12.32-1.36,26.84,4.07,43.16,1.18,3.5,3.5,6.96,5.95,10.63,2.73,4.06,5.54,8.25,7.17,13.04l.62,1.79c3.43,9.87,7.32,21.05,1.97,34.39-2.37,5.95-2.7,10.36-3.19,17.03-.27,3.69-.57,7.88-1.29,13.26-1.42,10.65-5.29,17.75-10.92,20.01-2.78,1.12-7.27,1.52-12.78-2.88-5.84-4.68-5.84-17.62-5.84-31.33,0-8.38,0-22.4-2.97-23.59-6.24-2.48-28.98,22.47-36.51,35.08-3.56,5.93,15.25,42.81,22.32,56.7,3.08,6.07,5.54,10.85,6.48,13.23,1.71,4.3.73,8.18-2.6,10.37-5.34,3.5-14.73,1.55-20.54-4.28-6.03-6.01-55.01-78.39-52.97-102.55,1.12-13.41,11.45-35.41,22.38-58.71,7.12-15.15,14.48-30.83,18.45-42.8.14-.4.24-.72.34-1.03.32-1,.62-2.01.9-2.97,1.74-6.07,7.13-55.67,12.85-108.18,7.96-73.21,17-156.18,21.02-168.26,7.92-23.72,28.51-58.45,29.37-59.91,2.83-4.29,5.7-29.07,8.64-73.77l.5-7.58c.79-12.38,1.52-25.04,2.22-37.09,1.42-24.43,2.65-45.54,3.87-57.86,2.42-24.1,9.51-44.78,13.51-54.95,2.31-5.85,4.05-12.01,5.15-18.32l.04-.29c.65-3.73,1.05-7.23,1.25-10.72.1-1.32.14-2.61.17-3.89.52-28.31,6.13-58.49,10.75-78.84,3.97-17.5,11.94-34,23.01-47.7,15.88-19.66,36.31-35.41,60.7-46.8,2.07-.96,4.13-1.88,6.18-2.75,18.11-7.73,38.38-13.26,61.95-16.89,1.31-.22,2.58-.4,3.84-.57,5.49-.8,10.49-1.42,14.88-1.97l3.64-.46c15.88-1.99,58.05-18.78,77.83-32.6l.75-.52c2.12-1.54,3.89-2.96,5.22-4.26,2.2-2.14,2.81-3.44,2.98-4.03,1.58-5.57.79-25.58.43-33.66l-.06-.06v-1.26c-.34-7.36-.77-15.08-1.16-22.3-.36-6.64-.72-12.93-.93-18.11-.57-.73-1.12-1.48-1.68-2.24-8.87-11.92-15.88-24.07-19.73-34.22-13.4-35.14-3.04-158.71,5.6-192.49,8.35-32.71,32.22-72.67,98.58-77.47,1.09-.32,4.05-.99,7.47-.26l.4.09c1.06.27,2.02.62,2.94,1.09l-2.61,5.11c-.47-.24-1-.44-1.59-.59l-.11-.03c-2.64-.63-5.02.14-5.05.16l-.72.14c-63.18,4.46-85.87,42.27-93.76,73.2-8.51,33.31-18.87,154.77-5.8,189.03,3.67,9.66,10.42,21.32,19,32.85.7.98,1.42,1.91,2.14,2.83l.56.73.04.92c.22,5.31.57,11.94.96,18.94.39,6.92.79,14.29,1.1,21.43h.01l.04,1.13c.92,20.65.73,31.94-.6,36.6-.59,2.05-2.07,4.19-4.49,6.54-1.74,1.68-3.97,3.47-6.67,5.37l-.77.52c-20.66,14.12-63.38,31.03-79.65,33.07l-3.66.46c-4.38.55-9.33,1.15-14.78,1.95-1.25.17-2.48.36-3.76.56-23.13,3.57-42.94,8.97-60.6,16.5-2.01.85-4.02,1.75-6.01,2.68-23.59,11.02-43.33,26.23-58.66,45.21-10.53,13.04-18.11,28.72-21.88,45.38-4.56,20.09-10.1,49.86-10.6,77.66-.01,1.38-.09,2.77-.17,4.16-.2,3.59-.62,7.23-1.28,11.08l-.04.3c-1.18,6.77-3.03,13.39-5.51,19.67-3.9,9.9-10.8,30-13.14,53.41-1.22,12.21-2.44,33.26-3.86,57.63-.7,12.05-1.43,24.72-2.22,37.13l-.5,7.58c-3.17,48.28-6.01,71.13-9.5,76.44-.14.24-21.08,35.57-28.79,58.69-3.83,11.49-13.21,97.76-20.76,167.07-6,55.05-11.16,102.59-13.04,109.15-.3,1-.6,2.04-.93,3.08-.13.42-.26.79-.4,1.21-4.05,12.21-11.48,28.03-18.67,43.34-10.24,21.81-20.83,44.36-21.86,56.74-1.79,21.26,45.21,91.93,51.3,98.02,4.46,4.48,10.99,5.09,13.34,3.53.43-.29,1.42-.93.43-3.44-.86-2.14-3.24-6.81-6.27-12.75-17.73-34.78-26.5-54.99-22.14-62.25,2.7-4.5,30.21-42.78,43.57-37.45,6.57,2.63,6.57,14.22,6.57,28.89,0,10.65,0,23.9,3.69,26.86,2.7,2.15,5.06,2.84,7.06,2.04,3.47-1.39,6.3-7.32,7.37-15.45.69-5.21.99-9.3,1.26-12.91.52-6.94.88-11.97,3.57-18.74,4.56-11.36,1.19-21.03-2.05-30.39l-.63-1.82c-1.39-4.09-4-7.96-6.51-11.71-2.57-3.82-5.22-7.78-6.64-12.01-5.75-17.3-7.17-32.85-4.23-46.21,4.05-18.08,61.82-143.41,74.66-168.55,21.69-42.55,32.57-102.34,35.49-144.1.23-3.11.65-6.13,1.23-8.97.42-2.11.96-4.28,1.62-6.4l.22-.69c3.77-12.01,10.36-33.13,16.63-53.53l.1-.34c1.05-3.44,2.09-6.86,3.13-10.21l.06-.22c3.33-10.9,6.04-19.94,8.08-26.84,7.59-25.77,11.53-58.85,12.88-71.88.17-1.75,1.52-3.17,3.29-3.41,1.75-.24,3.43.75,4.07,2.4,1.54,3.83,4.09,10.2,6.71,16.69l.42.98c4.59,11.38,7.75,18.98,8.46,20.39.56,1.12,1.23,3.37,2.58,7.96,1.03,3.5,2.31,7.86,3.83,12.55l.14.46c3.08,9.47,6.04,16.79,9.05,22.38,2.54,4.73,4.23,9.83,5.04,15.15.24,1.38.4,2.86.49,4.33.13,2.01.33,3.92.6,5.81l.03.24c.62,4.45,1.69,9.01,3.21,13.54l.66,1.99c.32.96.63,1.89.92,2.77,1.75,5.21,2.96,10.53,3.57,15.8v.19c.44,3.54.62,7.12.52,10.6-.04,1.26-.1,2.51-.2,3.76-.22,2.67-.33,5.61-.33,8.77s.83,7.6,1.55,11.62c.44,2.45.86,4.76,1.05,6.48.34,3.07.62,6.69.85,11.06v.24c.27,4.71.46,10.01.65,15.16.07,2.2.16,4.4.24,6.6.49,13.36,1.22,28.08,3.8,34.48.72,1.81,1.26,3.8,1.62,5.97l.04.26c1.68,10.06-.33,23.23-2.45,37.16-2.25,14.79-4.59,30.1-2.86,43.17.17,1.25.3,2.63.39,4.17v.06l.09,1.56-.03.03c.47,21.88-11.79,47.36-22.64,69.9-3.26,6.76-6.33,13.14-8.82,18.98-9.4,21.94-35.78,100.73-33.8,172.65.47,17.16.11,41.18-.3,64.3l-.16,10.1c-1.43,78.71-3.39,186.5,11.82,247.35,11.55,46.15,21.89,95.61,28.54,128.98,3.62,18.19,5.41,36.8,5.31,55.29,0,1.36-.01,2.74-.04,4.13v.2c-.27,12.74-1.43,25.51-3.44,37.96-1.65,10.27-3.08,19.57-4.39,28.42l-1.49,10.26c-4.19,29.58-6.61,52.28-7.22,67.47-1.95,48.19,13.47,188.75,18.95,206.98,6.05,20.23,13.37,83.66,9.63,108.07-.77,5.01-1.82,10.09-3.21,15.52-.33,1.31-.67,2.63-1.05,3.95-5.94,21.61-16.24,45.94-26.48,69.02-15.71,35.32-61.86,75.85-80.51,88.92-3.95,2.75-5.47,5.93-4.65,9.68,2.31,10.54,21.38,22.67,35.37,25.21,20.5,3.73,77.42,3.76,92.25.04,1.99-.5,3.89-.9,5.71-1.28,11.74-2.48,18.82-3.97,26.63-27.36,2.5-7.52,4.96-16.24,7.58-25.45,9.33-32.97,15.68-53.11,25.21-54.68,6.97-1.16,24.96-7.55,32.95-18.92,3.19-4.53,4.33-9.35,3.43-14.33-2.75-15.19-4.83-19.24-7.03-23.5-2.05-3.99-4.19-8.12-6.9-19.9-4.29-18.64-4.03-63.48-3.73-81.91.04-3.27.1-6.47.17-9.61.36-13.97.95-27.14,1.58-35.22,1.23-16.01,12.67-57.76,22.5-92.35.29-1.02.57-2.05.86-3.04l3.53-12.35c3.16-11.06,5.65-19.8,6.56-23.5,5.88-24.25,13.14-57.88,14.28-80.4,1.32-26.87-4.23-47.99-9.14-66.63-.53-2.01-1.05-3.97-1.55-5.94-.8-3.1-2.27-7.56-3.96-12.73-6.44-19.6-16.17-49.22-12.01-69.67l.06-.24c.1-.47.17-.83.23-1.23,1.06-5.52,2.97-16.76,5.38-31.68l.4-2.47c5.25-32.68,11.71-75.11,12.96-86.18.4-3.74,1.21-8.65,2.47-15.01.43-2.09.88-4.25,1.35-6.44,2.9-13.46,6.76-28.62,9.57-39.68.75-2.93,1.41-5.55,1.97-7.79,4.06-16.18,7.47-40.46,10.13-72.14.13-1.42.24-2.83.36-4.23v-.13c4-49.7,4.95-100.7,5.14-115.15.03-2.64.06-5.06.07-7.27v-.49c.03-1.92.03-3.63.03-5.15,0-26.57,3.53-56.47,6.5-76.93l.03-.3c1.39-9.53,2.47-15.64,2.48-15.7l.95-5.31,3.87,3.76h0s.49.44,1.45,1.02c2.31,1.41,7.49,3.7,16.33,3.33l1.19-.06.27,5.72-1.35.06c-8.58.37-14.43-1.59-17.79-3.26-.43,2.65-1.03,6.44-1.71,11.06l-.03.3c-2.41,16.61-6.47,48.61-6.47,76.31,0,1.54,0,3.27-.01,5.21v.49c-.01,2.21-.04,4.65-.07,7.3-.19,14.49-1.13,65.59-5.14,115.43v.11c-.13,1.49-.24,2.94-.37,4.39-2.68,31.98-6.14,56.56-10.27,73.04-.56,2.24-1.23,4.88-1.98,7.8-2.81,11.03-6.64,26.14-9.53,39.5-.47,2.17-.92,4.3-1.33,6.36-1.22,6.17-1.99,10.92-2.38,14.5-1.26,11.15-7.7,53.54-12.96,86.27l-.43,2.67c-2.42,14.96-4.35,26.25-5.39,31.79-.07.4-.14.82-.23,1.19-.01.13-.04.24-.07.36-3.87,19.01,5.58,47.76,11.82,66.78,1.72,5.25,3.21,9.8,4.06,13.07.5,1.95,1.02,3.92,1.55,5.91,5.01,19.04,10.69,40.62,9.33,68.38-1.16,22.97-8.48,56.99-14.43,81.46-.92,3.82-3.43,12.6-6.61,23.73l-3.53,12.35c-.29.99-.57,1.99-.86,3.03-9,31.66-21.09,75.57-22.3,91.23-.62,8.01-1.19,21.05-1.56,34.91-.07,3.14-.13,6.31-.17,9.57-.32,18.22-.57,62.52,3.57,80.54,2.55,11.08,4.52,14.89,6.41,18.56,2.4,4.66,4.66,9.07,7.58,25.11,1.19,6.54-.29,12.81-4.39,18.65-9.12,12.97-28.67,19.94-36.71,21.28-6.63,1.09-15.05,30.87-20.63,50.59-2.63,9.3-5.11,18.06-7.65,25.71-8.85,26.5-18.56,28.55-30.87,31.15-1.75.37-3.57.76-5.49,1.23-7.86,1.97-26.28,2.96-45.38,2.96l.07-.04ZM336.66,734.94s0,.03.01.04c0,0,0-.03-.01-.04ZM340.34,734.41v.03-.03Z"/>
    <path d="M585.04,651.24c-.16-2.7-.33-5.42-.5-8.19-1.71-26.84-4.39-56.01-6.44-68.28-1.09-6.51-1.08-15.21-1.05-24.42.06-23.06.13-49.2-17.57-53.63-13.93-3.47-37.67-5.62-64.99-3.5-2.88.23-5.78.5-8.77.82h-.04c-22.81,2.48-47.56,7.99-70.87,18.08-20.8,9.02-36.63,16.54-49.65,24.76-13.03,8.22-23.23,17.12-32.74,28.92-7.78,9.63-8.74,23.1-2.5,33.97.24.44.52.88.79,1.32.42.67.86,1.33,1.28,1.99,2.98,4.72,5.7,9.14,8.11,13.23.85,1.38,1.61,2.71,2.35,4.02,6.1,10.56,9.91,18.54,11.06,23.14.44,1.79,1.02,4.3,1.71,7.37.44,1.97.93,4.15,1.49,6.51h0c.65,2.87,1.38,5.98,2.2,9.27h0c6.51,26.6,18.13,65.16,36.58,76.5,13.79,8.51,37.67,11.88,63.64,11.88,13.31,0,27.17-.9,40.52-2.42,2.54-.3,5.05-.62,7.53-.96h.01c5.45-.73,10.76-1.56,15.85-2.5,1.25-.23,2.44-.46,3.63-.7.01,0,.04-.01.06-.01,37.43-8.12,53.27-32.15,57.77-48.12.23-.75.42-1.49.57-2.2.34-1.49.59-2.88.73-4.16.79-7.09.33-23.73-.73-42.64l-.03-.06ZM581.97,693.45c-1.88,16.86-19.3,44.55-59.64,51.89-44.48,8.11-101.66,8.81-124.89-5.48-21.25-13.07-33.36-66.89-38.54-89.87-.7-3.11-1.28-5.65-1.72-7.47-2.41-9.57-13.99-28.92-23.27-43.49-6.18-9.68-5.6-22.07,1.45-30.83,18.55-22.98,39.97-34.79,80.97-52.55,54.1-23.44,115.95-21.76,142.22-15.21,14.81,3.7,14.75,28.26,14.69,49.93-.01,9.37-.04,18.21,1.1,25.05,3.62,21.66,9.56,100.82,7.62,118.05h0Z"/>
    <path d="M332.96,602.72s-.4.13-1.02.36c-7.3,2.7-51.72,20.5-70.54,59.86-12.65,26.43-22.87,60.44-31.09,87.77-5.37,17.86-9.61,31.98-12.94,38.49-1.45,2.87-2.84,5.48-4.16,7.88-1.1,2.01-2.15,3.86-3.16,5.54h0c-4.3,7.42-7.32,11.68-8.13,12.78.17-2.5.33-5.02.5-7.55,2.75-4.32,6.86-11.16,11.56-20.39,3.17-6.21,7.36-20.17,12.67-37.86,2.83-9.4,5.88-19.6,9.21-30.01.88-2.77,1.79-5.57,2.7-8.36,5.74-17.32,12.17-34.81,19.4-49.93,18.85-39.44,62.37-57.88,71.94-61.52,1.15-.44,1.82-.67,1.87-.69l1.21,3.63h0Z"/>
    <path d="M239.69,719.19l-3.79.59s-.01-.13-.04-.19h0c-2.84-18.65-6.81-60.1-8.65-79.88v-.06c.63-3.67,1.08-7.32,1.28-11.05l1.54-.13c.06.59,4.83,54.36,8.54,82.72h0c.4,2.98.76,5.67,1.13,7.99h0Z"/>
    <path d="M581.85,482.68c-1.78-5.34-6.79-20.72-13.11-40.17-14.5-44.49-27.06-83.07-32.31-98.43h0c-1.38-4.05-2.24-6.47-2.5-6.99-.06-.11-.16-.27-.24-.42-3.29-4.66-27.3-21.79-34.78-27.07l-2.41-1.71c.7.98,1.43,1.92,2.18,2.88.44,10.77,1.48,26.67,2.12,41.38v.06s0,.06.01.07c1.56,11.13,3.33,21.23,4.85,25.28,5.64,14.85,12.09,28.62,18.61,41.06.65,1.26,1.31,2.48,1.95,3.7,8.87,16.63,17.69,30.76,24.58,41.78,3.27,5.22,6.07,9.73,8.05,13.18,5.11,8.92,13.79,17.36,19.58,17.36.73,0,1.39-.13,2.01-.4,3.06-1.38,3.53-5.28,1.42-11.58h-.01ZM578.88,490.76c-2.12.96-10.82-5.05-16.71-15.37-2.01-3.53-4.85-8.06-8.12-13.31-12.34-19.77-31-49.65-44.81-85.89-3.24-8.51-7.7-47.98-9.1-61.05,14.56,10.39,29.17,21.51,30.36,23.63,1.36,2.83,21.36,64.25,34.6,104.9,6.33,19.47,11.33,34.85,13.13,40.2,1.72,5.18.93,6.74.65,6.87h0Z"/>
    <path d="M496.57,393.27c-3.21,8.48-8.52,17.86-14.22,26.25-1.32,1.97-2.67,3.86-4.02,5.7-3.4,4.59-6.79,8.68-9.81,11.88-7.5,7.93-17.09,13.14-27.7,15.11-4.56.85-9.04,1.26-13.41,1.26-3.5,0-6.92-.27-10.26-.82-24.59-3.97-27.88-15.02-28.32-18.25,1.31-.22,2.55-.4,3.8-.57.22,1.72,2.48,11.39,25.12,15.05,7.07,1.15,14.59.99,22.37-.44,9.81-1.81,18.67-6.64,25.62-13.96,7.83-8.28,18.15-22.71,24.49-36.15h.01c2.5-1.76,4.65-3.46,6.3-5.06h.03Z"/>
    <path d="M479.54,468.45h-.26c-1.05-.1-1.89-.65-2.32-1.52-1.99-4,.99-37.55,1.95-47.73l3.8.36c-1.81,19.15-3.16,40.3-2.48,44.98,4.73-1.33,23.93-16.47,31.33-26.4,6.31-8.46,12.37-19.57,12.42-19.68l3.36,1.82c-.26.46-6.26,11.46-12.73,20.14-6.93,9.28-28.78,28.02-35.09,28.02h.01Z"/>
    <path d="M316.42,833.42c-1.05,3.41-2.12,6.9-3.19,10.42h0c-6.99,13.64-21.31,37.26-39.32,43.96-3.24,1.21-6.47,1.81-9.68,1.81-4.1,0-8.13-.99-12.09-2.96-10.7-5.35-18.84-15.55-24.98-27.2-3.21-6.1-5.88-12.61-8.08-19.02-5.24-15.25-7.85-30.01-9-37.79-.44-3.13-.67-5.12-.7-5.58l3.8-.39s.01.17.06.42c.3,2.71,2.25,18.13,7.43,35.44.57,1.84,1.15,3.67,1.78,5.52,6.1,18.19,15.85,37.2,31.06,44.99.11.07.23.13.34.19,1.21.62,2.42,1.1,3.64,1.49,4.91,1.55,9.97,1.39,15.08-.52,23.69-8.81,41.59-51.22,41.76-51.63l2.08.86h0Z"/>
    <path d="M253.39,886.88c-.24,0-.49-.01-.73-.06l.63-3.77c.36.06,3.72.03,9.18-20.73,3.64-13.83,7.16-32.38,10.89-52.02,3.29-17.33,6.69-35.24,10.26-50.13,11.39-47.46,56.38-143.83,56.84-144.79l3.46,1.62c-.44.96-45.29,96.98-56.58,144.07-3.54,14.79-6.94,32.67-10.23,49.94-9.14,48.15-14.85,75.88-23.73,75.88h.01Z"/>
    <path d="M128.66,1233.02v-3.82c.1,0,11.38-.43,35.18-18.72,25.38-19.53,62.75-90.61,75.79-161.4,13.16-71.43-21.89-214.31-22.25-215.75l3.72-.92c.36,1.45,35.61,145.1,22.3,217.36-13.2,71.63-51.29,143.8-77.21,163.74-25.09,19.3-37.01,19.53-37.5,19.53h-.01Z"/>
    <path d="M296.51,897.65c-.07.27-.16.5-.23.75-.63,2.02-1.15,4.07-1.55,6.13-11.92,13.66-45.61,53.36-49.9,70.4-.01.04-.04.07-.04.11l-3.7-.92c.56-2.25,1.59-4.88,2.98-7.73,11.85-24.38,50.17-67.11,51.98-69.14l.46.4h0Z"/>
    <path d="M585.04,773.54c-.17-1.85-.39-3.64-.65-5.39-1.26-8.77-3.56-15.85-6.97-18.59-6.84-5.48-30.03-5.57-50.73-1.19-.01,0-.04.01-.06.01-10.99,2.32-21.26,5.93-28.01,10.65-11.71,8.19-21.85,23.17-25.77,42.78h0c-.86,4.33-1.42,8.85-1.62,13.59.01.01,0,.01,0,.04-.06,1.36-.1,2.73-.1,4.1,0,7.83.96,16.18,3.07,24.93.99,4.1,3.74,7.53,7.55,9.4,2.01.98,4.19,1.48,6.34,1.48,2.02,0,4.03-.42,5.93-1.26,11.76-5.29,33.2-14.53,44.36-17.03,3.63-.8,7.19-1.43,10.62-2.07,13.01-2.32,24.25-4.33,30.72-14.05,2.08-3.11,3.63-8.69,4.62-15.42.27-1.85.5-3.8.69-5.81.79-8.35.8-17.75,0-26.2v.03ZM576.53,818.84c-5.55,8.35-15.55,10.14-28.21,12.42-3.47.62-7.07,1.26-10.79,2.08-10.9,2.42-30.54,10.72-45.09,17.26-2.88,1.31-6.17,1.25-9.02-.16-2.78-1.36-4.79-3.86-5.52-6.86-9.34-38.61,4.76-68.71,22.88-81.4,18.78-13.14,65.82-16.36,74.23-9.63,8.08,6.46,9.2,54.79,1.51,66.3h.01Z"/>
    <path d="M576.4,919.18c-5.67-4.55-25.58-4.39-42.41-.4-3.19.75-6.27,1.65-9.11,2.67-.06.01-.1.04-.13.04-3.96,1.43-7.47,3.13-10.24,5.06-15.08,10.54-26.86,35.37-19.2,67.03.8,3.3,3.04,6.07,6.11,7.6,1.62.79,3.39,1.19,5.14,1.19,1.62,0,3.24-.34,4.78-1.03,9.15-4.1,25.82-11.29,34.49-13.23,2.83-.63,5.58-1.13,8.25-1.61,10.24-1.84,19.08-3.41,24.23-11.12,6.46-9.68,6.46-49.53-1.89-56.21h-.01ZM575.11,973.27c-4.25,6.34-11.94,7.73-21.71,9.47-2.71.5-5.52.99-8.41,1.65-8.54,1.89-23.89,8.36-35.24,13.47-2.14.96-4.56.92-6.67-.11-2.07-1.02-3.53-2.87-4.07-5.06-7.25-29.9,3.64-53.18,17.65-63,9.66-6.76,28.88-10.14,42.64-10.14,6.96,0,12.51.88,14.69,2.61,6.21,4.96,7.02,42.22,1.09,51.1h.03Z"/>
    <path d="M585.04,850.94c-.23-1.54-.47-2.98-.73-4.33v-.04c-.9-4.53-1.95-7.91-2.93-8.88-1.79-1.79-10.26-6.99-43.89,1.42-19.54,4.89-35.98,14.99-46.3,22.64-5.81,4.28-9.31,11.12-9.38,18.28-.22,20.73,6.38,36.76,13.01,43.44,2.3,2.32,4.65,3.56,6.79,3.56,3.04,0,12.21-2.37,23.11-5.52.04,0,.07-.01.13-.04,2.94-.85,6-1.74,9.11-2.67,19.58-5.88,40.56-12.8,40.92-12.91,5.95-1.98,8.35-5.88,9.34-10.65.57-2.7.7-5.68.8-8.74,0-.27.01-.56.01-.82.1-3.23.19-6.56.69-10.03.99-7.03.44-16.8-.73-24.71h.04ZM581.98,875.11c-.53,3.69-.63,7.27-.73,10.44-.29,9.4-.75,14.42-7.55,16.7-13.84,4.61-65.03,20.95-72.08,20.95-1.08,0-2.55-.88-4.07-2.41-5.77-5.85-11.91-20.75-11.91-39.86v-.88c.06-5.98,2.98-11.68,7.82-15.25,10.07-7.43,26.03-17.27,44.95-22.01,14-3.5,23.31-4.53,29.4-4.53,4.3,0,6.99.52,8.62,1.02,1.62.52,2.18,1.03,2.18,1.03,1.56,2.18,5.19,21.85,3.36,34.79h.01Z"/>
    <path d="M585.8,1318.39c-.01-.4-.01-.8-.01-1.21v-307.94c0-1.55-.24-2.98-.73-4.3-.24-.67-.56-1.31-.93-1.91-2.96-4.85-9.93-7.83-21.08-9.08h-.29c-5.6.19-54.85,2.35-62.8,16.26-8.28,14.48-5.72,118.82-.17,139.16.5,1.85,1.22,4.59,2.12,8.02,9.5,35.88,38.35,145.1,59.86,159.45,11,7.33,16.23,9.33,19.17,9.33,1.05,0,1.79-.24,2.42-.59.16-.07.29-.17.4-.27.57-.39.99-.88,1.28-1.45.86-1.59.8-3.69.76-5.48h0ZM581.52,1322.25c-.62.33-3.7.7-17.63-8.57-13.47-9-33.08-61.91-58.28-157.27-.92-3.44-1.65-6.17-2.14-8.05-5.95-21.85-7.36-123.74-.19-136.25,5.82-10.19,44.76-13.79,59.47-14.33,17.2,1.94,19.2,7.47,19.2,11.46v307.94c0,.42,0,.86.01,1.31.01,1.31.07,3.46-.46,3.76h.01Z"/>
    <path d="M415.76,790.22c-11.61,0-23.11-1.66-30.97-7.29-9.15-6.54-34.15-32.67-36.15-52.72-1.99-19.96,8.01-72.8,8.11-73.28l3.73.82c-.85,3.86-9.86,53.89-8.03,72.08,1.79,17.99,25.05,43.2,34.56,50,13.8,9.86,42.19,6.17,57.44,4.19l3.39-.43c14.61-1.82,56.93-34.98,57.34-35.31l2.37,3c-1.78,1.39-43.59,34.15-59.24,36.1l-3.37.43c-8.03,1.05-18.65,2.41-29.18,2.41h.01Z"/>
    <path d="M471.22,815.4v.04c-.4.92-.88,1.84-1.42,2.71-2.75,4.55-6.3,9.63-10.43,13.64-1.02.99-2.08,1.94-3.17,2.77-3.06,2.35-6.36,4.02-9.81,4.45-4.05.5-9.23.93-14.99.93-12.96,0-28.85-2.2-41.76-10.82-11.91-7.93-21.85-24.42-28.35-36.83h0c-3.21-9.87-5.35-18.32-6.24-20.11-.9-1.78-4.73-11.13-8.54-20.56,2.25,5.16,8.45,19.24,11.48,25.35.4.76.88,1.79,1.48,3,5.16,10.76,17.27,35.95,32.31,45.98,17.62,11.75,41.49,10.83,54.16,9.25,8.18-1.02,15.72-10.9,20.63-19.02,3.44-5.7,3.8-12.71.93-18.74-2.84-6.05-8.28-10.09-14.85-11.06h-.17l-.42-.07.47-3.79.67.1c1.78.27,3.5.73,5.12,1.36,5.51,2.14,10.03,6.33,12.63,11.82.92,1.95,1.55,3.96,1.91,6.01h0c.82,4.59.27,9.31-1.62,13.59h-.01Z"/>
    <path d="M468.91,885.79c-1.19,2.35-3.3,4.19-6.23,5.48-1.15.52-2.41.93-3.79,1.26-2.88.73-6.28,1.09-10.13,1.09-8.18,0-18.36-1.65-29.91-4.94-17.03-4.88-31.56-21.65-42.38-48.72h0c-.33-2.21-.52-4.26-.63-6.1-.07-1.38-.23-2.73-.46-4.07l1.25-.42c10.67,31.35,25.64,50.59,43.27,55.62,27.26,7.79,42.55,5.16,45.58-.92,2.41-4.82-4.13-31.81-9.28-49.53-.27-.96-.56-1.89-.82-2.78l3.67-1.09c.1.33.22.69.33,1.1,2.93,9.86,13.34,46.38,9.54,53.99h-.01Z"/>
    <path d="M480.02,955.14c-.11.11-.23.22-.36.33-.85.67-2.04,1.19-3.59,1.51-1.51.34-3.34.52-5.47.52-9.78,0-25.42-3.67-42.45-11.52-22.47-10.37-34.91-41.59-41.58-58.36-.42-1.08-.82-2.08-1.21-3.01.1-3.47-.07-6.92-.5-10.36.96,1.84,1.87,3.79,2.77,5.87.73,1.68,1.55,3.74,2.48,6.1,6.47,16.28,18.54,46.58,39.63,56.3,25.97,11.98,45.11,12.4,47.57,9.96,3.06-3.07,3.76-16.31-4.25-36.18-3.3-8.19-11.62-20.14-14.17-23.73-.47-.65-.75-1.03-.76-1.05l3.07-2.27c.1.13.63.88,1.48,2.07,3.19,4.5,10.67,15.51,13.93,23.56,8.64,21.39,7.82,35.9,3.4,40.31v-.03Z"/>
    <path d="M484.41,1078.11c-1.32,0-1.49,0-15.71-14.92-14.45-15.16-36.3-38.09-48.49-46.63-19.45-13.62-25.41-36.38-29.47-56.66-3.83-19.15-2.02-50.79-1.95-52.12l3.82.23c-.01.32-1.85,32.5,1.88,51.15,3.9,19.54,9.61,41.46,27.9,54.27,12.51,8.75,34.52,31.85,49.08,47.13,4.65,4.88,9.11,9.57,11.68,12.08,1.09-14,1.22-74.88-.6-84.04-1.91-9.55-6.69-32.62-6.69-32.62l3.74-.77s4.78,23.08,6.7,32.65c1,4.99,1.46,27.22,1.48,47.03.03,40.27-1.29,41.88-1.78,42.48l-.57.7-.99.06h-.03Z"/>
    <path d="M492.38,1253.22c-.52-.76-51.88-76.84-72.67-107.1-21.97-31.95-27.32-55.69-30.92-77.27-3.83-23.01,6.8-85.72,7.25-88.38l3.77.65c-.11.65-10.98,64.73-7.25,87.1,3.53,21.16,8.77,44.43,30.29,75.74,14.92,21.69,45.55,66.97,61.88,91.13-5.28-14.68-10.62-35.39-6-50.44,7.47-24.29,5.67-107.57,5.65-108.42l3.82-.09c.09,3.44,1.84,84.75-5.82,109.62-7.33,23.84,13.07,65.11,13.27,65.52l-3.29,1.92h.01Z"/>
    <path d="M549.28,1325.12c-4.62-5.52-8.98-10.72-11.65-14.73-7.03-10.53-37.37-52.81-42.11-59.4-.01-.01-.04-.06-.04-.07-.36-.5-.57-.75-.59-.79l-3.1,2.24s.16.23.4.57c.01.04.06.07.1.11.04.06.07.1.11.16,4.65,6.46,35.06,48.81,42.05,59.3,2.78,4.19,7.22,9.48,11.91,15.08,7.42,8.85,16.64,19.86,16.64,24.07,0,2.41-.23,8.28-.63,16.05,1.39-9.58,2.47-15.61,2.47-15.61,0,0,.63.62,1.95,1.42.01-.82.04-1.45.04-1.85,0-5.22-6.93-13.89-17.53-26.54h-.03ZM555.55,1451.38c-3.64-9.8-10.76-42.74-14.79-61.46-2.02-9.4-3.76-17.52-4.78-21.55-4.07-16.26-32.77-82.82-48.12-103.96-10.04-13.79-21.97-42.73-28.77-60.41h0s0-.04-.01-.06c-3.33-8.64-5.42-14.58-5.48-14.75l-3.59,1.26s.06.13.1.27h.01s.01.06.01.07c1.74,4.96,19.81,55.46,34.63,75.87,14.81,20.34,43.6,86.99,47.52,102.61.99,3.97,2.73,12.08,4.76,21.43,10.93,50.74,14.76,65.05,17.88,66.54.27.13.57.22.86.22.04-2.84.06-5.44.07-7.78-.11.62-.22,1.19-.3,1.68h-.01Z"/>
    <path d="M528.39,1703.6l-3.82-.14c.01-.53,1.84-53.54-3.77-75.97-1.21-4.83-3.54-15.25-6.79-29.67-12.4-55.26-35.47-158.12-50.52-195.76-19.01-47.52-40.1-243.91-40.99-252.25l3.74-.72c.13.43,12.44,44.2,35.14,125.51,30.3,108.59,52.81,181.89,66.89,217.86,17.1,43.69,23.01,84.17,23.07,84.57l-3.79.55c-.06-.4-5.91-40.47-22.84-83.73-14.12-36.08-36.66-109.5-67-218.22-13.24-47.43-22.94-82.08-28.75-102.81,6.36,54.96,23.16,190.44,38.11,227.83,15.18,37.93,38.28,140.99,50.7,196.35,3.23,14.39,5.57,24.79,6.76,29.58,5.74,22.96,3.96,74.83,3.87,77.04v-.03Z"/>
    <path d="M431.54,1202.59c-.06.07-.98,1.16-2.55,3.07-11.18,13.64-55.81,70.06-68.97,117.76-7.99,28.94-17.1,50.27-23.97,64-.99,1.97-1.92,3.79-2.83,5.45-4.71,8.85-7.83,13.29-7.91,13.39l-1.16-.85c.01-1.49.04-2.98.06-4.43,5.25-8.46,20-34.5,32.15-78.58,14.68-53.21,67.62-116.77,72.01-121.96.17-.22.27-.33.29-.34l2.9,2.48h-.01Z"/>
    <path d="M425.38,1717.88c-10.24,0-17.89-6.33-24.56-13-10.23-10.23-15.05-36.87-23.04-80.99-1.32-7.32-2.73-15.08-4.26-23.28-10.6-57.01-41.03-211.47-41.33-213.02l3.74-.75c.3,1.55,30.75,156.04,41.35,213.07,1.54,8.22,2.94,15.98,4.26,23.3,7.59,41.91,12.61,69.6,21.99,78.98,11.36,11.36,23.5,19.9,47.14-.11,24.06-20.36,49.8-162.11,50.06-163.54l3.76.67c-1.06,5.9-26.24,144.54-51.35,165.78-11.12,9.4-20.14,12.88-27.75,12.88h-.01Z"/>
    <path d="M370.48,1831.02l-.13-3.82c8.78-.3,16.01-3.93,21.48-10.79,23.93-29.99,8.62-111.69,8.46-112.51l3.76-.72c.66,3.43,15.8,84.24-9.23,115.62-6.2,7.76-14.39,11.88-24.33,12.22h-.01Z"/>
    <path d="M511.82,1804.66h0c-.13.86-.27,1.65-.4,2.47-4.09,1.84-16.87,7.09-29.74,7.09-6.92,0-13.84-1.51-19.47-5.88-14.76-11.48-6.05-83.17-1.76-112.65.82-5.67,1.48-9.78,1.78-11.59l3.76.63s-.01.1-.01.16c0,0,0,.01-.01.04-4.94,30.14-14.76,110.01-1.42,120.4,16.07,12.5,46.2-2.08,46.5-2.24l.79,1.59h0Z"/>
    <path d="M507.98,2111.83c-.29.99-.57,2.01-.86,3.04l-1.45.79c-13.29-24.69-22.6-59.44-28.52-94.4-.99-5.88-1.89-11.75-2.71-17.59h0c-4.53-32.71-6.13-64.1-5.34-85.98,1.92-51.86,34.56-80.89,34.89-81.17l2.04,2.32.47.53s-.27.24-.7.67c-4.71,4.49-31.18,31.85-32.88,77.77-1.85,49.9,9.33,144.29,35.06,194.01h0Z"/>
    <path d="M483.17,2241.71h0c-.07,3.16-.13,6.34-.17,9.61l-1.72.36c-18.51-85.09-7.49-239.03-6.84-248.03.01-.23.04-.36.04-.4l3.82.3c-.01.33-.52,6.8-1.15,17.69-2.42,42.17-6.86,150.3,6.01,220.45h.01Z"/>
    <path d="M457.15,2254.82c-.33-33.82-2.71-102.25-14.85-180.53-19.53-126.05-57.82-222.53-71.32-230.93-.44-.27-.86-.47-1.28-.59,0,1.43-.01,2.87-.04,4.3,3.99,3.51,14.75,21.51,29.38,64.06,9.58,27.86,27.47,86.17,39.5,163.76,20.75,134,15.22,249.36,10.49,258.07-1.65.13-6.11-.99-11.19-2.48-1.39-.4-2.83-.82-4.26-1.26-1.78-.56-3.56-1.09-5.25-1.62-14.05-4.36-29.94-9.3-37.89-8.18l-11.85,1.68-1.55.23.52,3.64v.13l13.41-1.91c7.09-1.03,23.26,4.02,36.23,8.05,11.16,3.46,17.93,5.49,21.61,5.49.7,0,1.31-.07,1.79-.23,1.39-.47,3.52-1.16,5.18-24.03,1.1-15.15,1.61-35.61,1.38-57.66h0Z"/>
    <path d="M438.1,2331.55l-3.69.93c-.04-.11-.33-1.26-.85-3.27-5.78-22.7-40.04-156.81-50.46-196.77-9.78-37.55-19.99-171.16-22.74-209.11.5-3.44.99-6.86,1.49-10.26l1.61-.11c.13,1.76,12.04,175.19,23.33,218.5,10.85,41.61,47.5,185.19,51.03,199.01.16.65.24.99.27,1.08Z"/>
    <path d="M585.67,366.61c-1.21-.16-29.73-4.19-54.75-27.29l2.6-2.81c24.1,22.24,52.38,26.27,52.65,26.3l-.5,3.79h0Z"/>
    <path d="M494.58,492.94l-.1.29-1.1,3.34s-2.6-.86-7.66-2.53h-.04c-8.35-2.73-23.54-7.65-45.84-14.68-35.78-11.31-117.56-25.31-118.38-25.47v-.1c2.04-.93,4.09-1.85,6.11-2.71,19,3.34,82.8,14.96,113.43,24.63,35.94,11.35,53.4,17.16,53.57,17.22h.01Z"/>
    <path d="M817.8,2527.14c-19.11,0-37.52-.99-45.39-2.96-1.92-.47-3.74-.86-5.49-1.23-12.31-2.6-22.04-4.65-30.87-31.15-2.55-7.69-5.05-16.5-7.69-25.82-5.57-19.67-13.97-49.38-20.59-50.47-8.05-1.35-27.62-8.32-36.73-21.29-4.09-5.82-5.57-12.09-4.38-18.64,2.9-16.04,5.16-20.44,7.58-25.11,1.89-3.67,3.86-7.49,6.41-18.56,4.13-18.02,3.86-62.31,3.56-80.53-.03-2.24-.07-4.45-.11-6.61l-.06-3c-.36-13.82-.95-26.87-1.56-34.89-1.19-15.64-13.29-59.54-22.27-91.2l-.11-.42c-.24-.88-.49-1.74-.75-2.58l-3.16-11.09c-3.36-11.78-6.01-21.09-6.97-25.05-5.95-24.43-13.29-58.41-14.42-81.46-1.39-27.76,4.29-49.34,9.3-68.39.52-1.99,1.03-3.96,1.54-5.9.85-3.29,2.34-7.83,4.07-13.1,6.26-19.02,15.7-47.78,11.85-66.71l-.14-.73c-.06-.29-.13-.6-.19-.92-1.31-6.92-3.66-21.09-5.39-31.75l-.04-.24c-.13-.76-.24-1.52-.36-2.31-5.12-31.63-11.74-74.93-13.01-86.37-.39-3.6-1.18-8.35-2.4-14.53-.42-2.01-.85-4.12-1.32-6.28l-.07-.34c-2.87-13.29-6.67-28.25-9.45-39.2-.75-2.93-1.42-5.57-1.98-7.82-4.13-16.51-7.58-41.09-10.26-73.05l-.66-7.47h.04c-3.84-49.53-4.71-98.42-4.89-112.44-.06-2.74-.07-5.28-.09-7.56v-.23c-.01-1.94-.01-3.66-.01-5.19,0-27.7-4.05-59.71-6.47-76.31l-.03-.3c-.67-4.65-1.28-8.46-1.72-11.12-3.49,1.71-9.56,3.72-18.41,3.33l-1.13-.06.29-5.72,1.03.06c9.02.39,14.49-1.97,16.93-3.41.99-.59,1.49-1.02,1.49-1.02l3.82-3.34.9,4.98s1.09,6.17,2.48,15.7l.03.3c2.97,20.47,6.5,50.36,6.5,76.94,0,1.52,0,3.23.01,5.15v.23c.01,2.27.04,4.78.1,7.52.17,14.25,1.08,64.4,5.06,114.6l.46.95-.33.55.3,3.41c2.65,31.68,6.05,55.95,10.11,72.16.56,2.24,1.23,4.86,1.97,7.79,2.81,11.08,6.67,26.24,9.57,39.7l.06.33c.46,2.08.88,4.12,1.28,6.08,1.26,6.37,2.07,11.28,2.47,15.04,1.28,11.33,7.88,54.5,13,86.15.11.82.23,1.54.34,2.27l.07.44c2.47,15.12,4.32,25.98,5.34,31.42.06.29.1.52.14.75l.14.86h.01c4.15,20.34-5.6,49.97-12.04,69.57-1.69,5.16-3.17,9.63-3.97,12.74-.5,1.95-1.02,3.92-1.55,5.93-4.91,18.64-10.46,39.77-9.12,66.64,1.12,22.61,8.38,56.2,14.28,80.4.93,3.85,3.57,13.11,6.92,24.83l3.14,11.03c.3.96.59,1.99.89,3.06l.1.39c9.8,34.52,21.16,76.04,22.37,91.95.62,8.11,1.21,21.28,1.58,35.19l.06,3c.04,2.18.09,4.4.11,6.64.32,18.41.57,63.26-3.7,81.89-2.73,11.78-4.85,15.91-6.92,19.9-2.2,4.28-4.28,8.31-7.03,23.5-.9,4.98.24,9.8,3.41,14.32,7.99,11.38,26,17.76,32.98,18.92,9.51,1.56,15.85,21.66,25.16,54.56,2.63,9.27,5.09,18.02,7.62,25.58,7.8,23.39,14.89,24.88,26.63,27.36,1.81.39,3.7.79,5.7,1.28,14.85,3.72,71.75,3.7,92.24-.04,14-2.54,33.07-14.66,35.38-25.21.82-3.76-.7-6.93-4.65-9.68-18.65-13.08-64.8-53.63-80.5-88.92-10.26-23.06-20.56-47.37-26.51-69.05l-.1-.4c-.32-1.18-.63-2.35-.92-3.5-1.38-5.44-2.44-10.52-3.21-15.52-3.99-25.87,4.19-89.95,9.6-108.07,5.49-18.22,20.92-158.73,18.97-206.98-.57-14.65-2.9-36.51-6.89-65.03h0l-.07-.53c-.09-.63-.19-1.28-.27-1.91l-.2-1.42h0c-.42-2.96-.85-5.91-1.28-8.82-1.51-10.14-2.98-19.7-4.39-28.42-2.01-12.45-3.17-25.22-3.44-37.93-.01-1.49-.04-2.91-.04-4.36-.1-18.48,1.69-37.09,5.31-55.28,6.64-33.37,16.99-82.82,28.54-128.98,15.21-60.85,13.26-168.63,11.82-247.33l-.16-10.14c-.42-23.11-.79-47.13-.3-64.29,1.98-71.92-24.4-150.71-33.8-172.65-2.5-5.84-5.58-12.22-8.84-19-10.83-22.5-23.07-47.93-22.65-69.88l-.03-.03.07-1.28v-.34c.1-1.58.23-2.93.4-4.19,1.74-13.07-.6-28.39-2.86-43.21-2.12-13.95-4.15-27.12-2.45-37.17l.04-.29c.39-2.17.92-4.07,1.64-5.85,2.55-6.34,3.29-20.52,3.82-34.49l.16-4.46c.2-5.91.42-12.02.73-17.55v-.24c.23-4.22.5-7.82.83-10.83.19-1.69.6-3.96,1.03-6.37.75-4.06,1.58-8.67,1.58-11.74s-.11-6.1-.33-8.77c-.1-1.29-.16-2.6-.19-3.87-.11-3.44.04-7,.49-10.57v-.14c.65-5.29,1.84-10.6,3.59-15.78l.66-1.99c.3-.89.6-1.81.92-2.77,1.48-4.4,2.55-8.98,3.21-13.56l.03-.22c.29-2.08.5-4.03.6-5.82.09-1.45.24-2.91.49-4.35.79-5.28,2.48-10.37,5.02-15.11,2.98-5.55,5.95-12.93,9.1-22.51l.13-.4c1.49-4.61,2.75-8.91,3.77-12.35,1.38-4.66,2.05-6.94,2.63-8.08.7-1.43,3.95-9.24,8.42-20.34.13-.3.2-.43.24-.57,2.71-6.7,5.35-13.23,6.92-17.16.69-1.68,2.38-2.64,4.15-2.37,1.75.27,3.07,1.71,3.2,3.47,1.35,12.94,5.29,46.02,12.9,71.79,2.08,7.14,4.81,16.18,8.08,26.86l.62,2.01c.85,2.8,1.72,5.62,2.6,8.48,4.69,15.28,10.46,33.86,16.67,53.73l.23.75c.67,2.15,1.23,4.32,1.65,6.44l.06.3c.56,2.84.95,5.65,1.16,8.62,2.94,41.79,13.8,101.6,35.49,144.1,12.85,25.22,70.66,150.66,74.65,168.53,2.97,13.41,1.55,28.97-4.23,46.23-1.41,4.25-4.07,8.21-6.64,12.04-2.51,3.74-5.11,7.6-6.51,11.68l-.62,1.78c-3.26,9.37-6.61,19.05-2.05,30.42,2.7,6.77,3.06,11.78,3.57,18.71.26,3.62.56,7.72,1.26,12.96,1.08,8.13,3.9,14.06,7.39,15.45,1.99.8,4.36.11,7.06-2.04,3.69-2.96,3.69-16.21,3.69-26.86,0-14.68,0-26.27,6.57-28.89,13.43-5.38,40.87,32.94,43.57,37.46,4.35,7.25-4.4,27.43-22.08,62.14-3.04,5.98-5.45,10.7-6.31,12.85-.99,2.51,0,3.16.43,3.44,2.37,1.55,8.88.93,13.34-3.53,6.1-6.1,53.08-76.83,51.29-98.02-1.02-12.41-11.62-34.99-21.88-56.83-7.16-15.24-14.56-31-18.64-43.26l-.14-.49c-.11-.26-.2-.5-.29-.82-.3-.98-.62-1.98-.92-2.98-1.88-6.59-7.06-54.13-13.04-109.17-7.55-69.31-16.93-155.58-20.76-167.07-7.7-23.13-28.65-58.45-28.87-58.81-3.43-5.21-6.27-28.06-9.41-76.33-.17-2.5-.34-5.04-.5-7.58-.79-12.41-1.52-25.08-2.22-37.14-1.42-24.36-2.64-45.39-3.86-57.59-2.35-23.41-9.25-43.51-13.16-53.41-2.48-6.28-4.33-12.9-5.51-19.67l-.04-.27c-.66-3.79-1.09-7.45-1.29-11.15-.1-1.35-.16-2.74-.17-4.13-.49-27.62-6.03-57.46-10.59-77.65-3.77-16.66-11.35-32.34-21.88-45.38-15.38-19.01-35.12-34.23-58.69-45.21-1.88-.89-3.83-1.76-5.98-2.67-17.66-7.53-37.49-12.94-60.6-16.5-1.29-.22-2.54-.4-3.74-.57-5.44-.79-10.37-1.41-14.73-1.94l-3.74-.46c-16.05-2.01-57.53-18.31-78.74-32.45h0l-.75-.5c-2.31-1.58-4.3-3.08-5.95-4.5h-1.78v-1.65c-2.37-2.32-3.79-4.42-4.35-6.4-1.32-4.68-1.51-16.01-.56-36.76.33-7.5.76-15.21,1.15-22.41.39-7.02.75-13.63.98-18.94l.04-.92.56-.73c.73-.93,1.43-1.88,2.12-2.83,8.62-11.61,15.37-23.27,19.01-32.87,13.07-34.25,2.7-155.72-5.81-189.03-7.89-30.93-30.57-68.75-93.76-73.2-.11,0-1.88-.19-4.95-.22h-.5v-5.72h.53c3.39.04,5.34.23,5.41.24,66.5,4.69,90.46,44.73,98.81,77.49,8.64,33.8,19.01,157.37,5.61,192.49-3.83,10.07-10.85,22.22-19.76,34.22-.53.73-1.09,1.48-1.65,2.22-.22,5.18-.57,11.48-.93,18.11-.4,7.17-.82,14.86-1.15,22.25-.33,7.29-1.31,29.15.36,35.04.19.65.9,2.11,3.62,4.62l.07.07c1.49,1.33,3.39,2.81,5.62,4.36l.5.33c20,13.6,61.63,30.09,76.96,32.01l3.73.46c4.39.55,9.35,1.15,14.83,1.95,1.23.17,2.53.37,3.83.59,23.57,3.64,43.84,9.17,61.95,16.89,2.22.95,4.25,1.85,6.17,2.75,24.35,11.35,44.78,27.09,60.72,46.8,11.09,13.72,19.04,30.21,23.01,47.7,4.62,20.44,10.24,50.72,10.73,78.82.01,1.29.07,2.57.17,3.86.2,3.6.62,7.12,1.26,10.76l.04.29c1.1,6.3,2.84,12.45,5.15,18.31,4.02,10.17,11.1,30.85,13.53,54.95,1.23,12.32,2.47,33.41,3.87,57.83.7,12.05,1.43,24.72,2.22,37.13.16,2.54.33,5.05.5,7.55,2.91,44.69,5.8,69.47,8.55,73.67.95,1.58,21.55,36.33,29.44,60.03,4.02,12.08,13.06,95.05,21.02,168.26,5.71,52.51,11.1,102.11,12.85,108.19.27.93.57,1.91.89,2.93.06.2.1.27.16.37l.39.8v.4c4,11.88,11.25,27.29,18.25,42.19,10.95,23.33,21.31,45.35,22.41,58.78,2.02,24.07-46.93,96.53-52.95,102.55-5.81,5.81-15.21,7.78-20.54,4.28-3.34-2.2-4.3-6.07-2.6-10.36.96-2.4,3.41-7.23,6.53-13.34,4.86-9.55,11.52-22.63,16.34-34.05,7.65-18.13,6.28-21.97,5.93-22.55-7.32-12.3-30.36-37.55-36.53-35.08-2.97,1.19-2.97,15.21-2.97,23.57,0,13.72,0,26.66-5.84,31.33-5.51,4.4-9.99,4-12.77,2.88-5.64-2.27-9.51-9.37-10.93-20.01-.72-5.39-1.02-9.58-1.29-13.3-.49-6.66-.8-11.05-3.17-16.99-5.37-13.36-1.48-24.55,1.97-34.43l.62-1.76c1.64-4.78,4.45-8.97,7.17-13.01,2.47-3.67,4.81-7.14,5.97-10.65,5.44-16.26,6.8-30.77,4.06-43.17-3.69-16.57-60.52-140.44-74.14-167.17-22.08-43.27-33.13-103.94-36.11-146.3-.2-2.8-.57-5.48-1.12-8.18l-.06-.3c-.39-1.84-.88-3.72-1.45-5.6l-.07-.22c-.06-.19-.11-.37-.19-.57l-.04-.14c-6.2-19.81-11.95-38.32-16.61-53.56-.88-2.86-1.75-5.7-2.6-8.49l-.62-1.99c-3.27-10.69-6-19.76-8.09-26.91-6.53-22.12-10.4-49.41-12.27-65.32-1.23,3.07-2.64,6.53-4.05,10.01-.07.19-.19.46-.34.8-2.15,5.34-7.4,18.31-8.55,20.63-.37.73-1.32,3.97-2.25,7.13-.99,3.39-2.22,7.56-3.69,12.08h0l-.14.46c-3.29,10.1-6.43,17.9-9.63,23.83-2.22,4.15-3.7,8.62-4.4,13.3-.22,1.28-.36,2.54-.43,3.79-.11,1.89-.33,3.93-.63,6.07l-.03.24c-.7,4.99-1.88,9.97-3.49,14.78-.33.95-.63,1.87-.92,2.74l-.67,2.01c-1.59,4.75-2.7,9.61-3.29,14.46v.2c-.43,3.33-.59,6.64-.47,9.86.01,1.23.07,2.41.16,3.57.23,2.81.36,5.93.36,9.23,0,3.6-.89,8.46-1.68,12.77-.42,2.3-.82,4.48-.98,5.97-.32,2.93-.59,6.41-.8,10.37v.24c-.3,5.62-.52,11.71-.72,17.59l-.16,4.45c-.57,15.11-1.32,29.24-4.22,36.43-.55,1.36-.96,2.86-1.28,4.58l-.03.16c-1.59,9.17.36,21.99,2.44,35.57,2.32,15.22,4.72,30.95,2.87,44.85-.11.86-.22,1.78-.29,2.81l.36.36-.44,1.33c-.63,20.82,11.42,45.85,22.07,67.98,3.29,6.81,6.38,13.27,8.94,19.22,9.53,22.24,36.27,102.12,34.26,175.06-.47,17.04-.11,40.99.3,64.04l.16,10.13c1.43,79.02,3.4,187.23-11.99,248.82-11.52,46.04-21.85,95.41-28.48,128.71-3.54,17.82-5.29,36.02-5.19,54.15,0,1.43.01,2.84.04,4.26.26,12.45,1.39,24.95,3.37,37.14,1.41,8.75,2.88,18.34,4.4,28.51.47,3.27.96,6.59,1.42,9.89l.6,1.46-.36.36c4.12,29.21,6.5,51.63,7.09,66.64,1.97,48.61-13.66,190.44-19.21,208.86-5.93,19.84-13.08,81.83-9.43,105.55.75,4.82,1.76,9.73,3.1,14.98.32,1.25.66,2.54,1,3.8l.1.37c5.87,21.22,16.01,45.15,26.13,67.86,15.21,34.2,60.3,73.76,78.55,86.55,7.45,5.19,7.89,11.36,6.96,15.61-2.87,13.13-23.83,26.7-39.94,29.61-10.69,1.95-30.31,2.93-49.27,2.93v-.06ZM665.11,1840.07l-.76.17,1.56-.19h-.8ZM829.74,734.44v.09-.09Z"/>
    <path d="M837.7,565.81c-19.05-23.63-40.83-35.65-82.42-53.69-23.31-10.1-48.06-15.61-70.86-18.09-2.98-.33-5.93-.59-8.82-.82-27.32-2.09-51.05.04-64.98,3.52-17.7,4.43-17.65,30.57-17.59,53.63.01,9.21.06,17.9-1.03,24.42-1.49,8.87-3.3,26.6-4.85,45.87v.16c-.8,10.04-1.54,20.6-2.09,30.46-.19,3.52-.36,6.96-.52,10.27-.67,14.5-.86,26.6-.22,32.37.04.39.1.79.17,1.19.11.93.3,1.94.56,2.98.46,1.99,1.1,4.07,1.97,6.33v.07c5.95,15.72,22.14,36.53,56.45,43.94,1.19.24,2.38.47,3.62.7,5.12.93,10.44,1.78,15.9,2.5,2.48.34,5.01.65,7.53.96,13.34,1.54,27.2,2.42,40.5,2.42,25.98,0,49.84-3.39,63.66-11.88,18.44-11.33,30.06-49.9,36.58-76.5.8-3.29,1.54-6.34,2.2-9.2v-.04c.53-2.38,1.05-4.59,1.49-6.57.69-3.06,1.25-5.58,1.69-7.36,1.15-4.61,4.99-12.57,11.05-23.16h0c.76-1.32,1.55-2.64,2.35-4.02,2.42-4.09,5.14-8.48,8.11-13.2.42-.65.86-1.32,1.28-1.99.27-.44.53-.88.79-1.32,6.23-10.87,5.28-24.35-2.48-33.97h-.03ZM836.18,599.03c-9.28,14.56-20.86,33.92-23.26,43.49-.46,1.82-1.03,4.36-1.72,7.45-5.18,22.98-17.29,76.8-38.55,89.9-23.21,14.29-80.4,13.56-124.89,5.48-40.34-7.33-57.77-35.04-59.64-51.89-1.91-17.22,4.03-96.38,7.65-118.05,1.15-6.84,1.1-15.68,1.09-25.05-.06-21.66-.11-46.21,14.69-49.93,9.91-2.47,24.89-4.26,42.61-4.26,29.22,0,65.94,4.88,99.64,19.47,20.5,8.88,36.11,16.28,48.91,24.32,12.78,8.05,22.77,16.76,32.04,28.23,7.04,8.77,7.65,21.15,1.45,30.83h-.01Z"/>
    <path d="M968.34,815.69c-.27-.37-6.83-9.17-15.65-26.47-3.33-6.53-7.56-20.63-12.94-38.51-8.21-27.33-18.44-61.33-31.08-87.76-20.43-42.73-71.05-60.04-71.56-60.21l1.21-3.63c.52.17,52.65,17.98,73.8,62.19,12.77,26.7,23.04,60.86,31.29,88.32,5.31,17.69,9.51,31.66,12.68,37.88,8.67,17,15.24,25.82,15.29,25.91l-3.06,2.3h.01Z"/>
    <path d="M942.88,639.66v.04c-1.84,19.8-5.82,61.33-8.68,79.91,0,.06-.01.1-.01.16l-3.79-.59c.36-2.31.73-4.99,1.1-7.93,3.7-28.35,8.48-82.19,8.54-82.78l1.54.13c.22,3.73.65,7.39,1.31,11.06h0Z"/>
    <path d="M671.17,309.59c-7.49,5.29-31.61,22.48-34.81,27.12-.1.13-.17.27-.23.39-.27.52-1.13,2.96-2.5,6.99-5.25,15.39-17.85,54.02-32.35,98.58-6.3,19.4-11.29,34.69-13.07,40.03-.39,1.13-.67,2.11-.88,3.07v.07c-.53,2.41-.53,4.38,0,5.82v.07c.42,1.16,1.19,2.01,2.3,2.53.63.27,1.31.4,2.02.4,5.77,0,14.46-8.45,19.57-17.36,1.99-3.46,4.79-7.96,8.05-13.18,6.87-11.02,15.71-25.16,24.59-41.81.65-1.22,1.31-2.42,1.95-3.69h0c6.5-12.45,12.96-26.23,18.61-41.06,1.54-4.05,3.29-14.23,4.88-25.42v-.1c.65-14.68,1.68-30.52,2.12-41.26.75-.96,1.48-1.94,2.18-2.9l-2.41,1.72h-.03ZM660.85,376.18c-13.82,36.24-32.47,66.12-44.81,85.89-3.29,5.25-6.11,9.78-8.12,13.31-5.9,10.32-14.62,16.31-16.71,15.37-.3-.13-1.08-1.71.65-6.87,1.78-5.34,6.76-20.66,13.07-40.04,13.26-40.72,33.28-102.24,34.63-105.05,1.21-2.14,15.82-13.26,30.37-23.66-1.42,13.07-5.87,52.54-9.1,61.05h.01Z"/>
    <path d="M781.23,434.4c-.42,3.23-3.69,14.28-28.32,18.25-3.33.56-6.76.82-10.26.82-4.36,0-8.85-.42-13.4-1.26-10.62-1.97-20.21-7.19-27.72-15.11-2.96-3.13-6.38-7.42-9.86-12.34-1.21-1.68-2.41-3.46-3.59-5.28-5.34-8.12-10.44-17.29-13.89-25.54,1.76,1.59,3.96,3.27,6.5,5.01h.01c6.61,13.47,16.6,28.16,23.6,35.54,6.96,7.32,15.82,12.15,25.64,13.96,7.78,1.43,15.28,1.59,22.35.44,22.77-3.69,24.95-13.47,25.14-15.05,1.22.17,2.5.36,3.79.57h0Z"/>
    <path d="M690.54,468.45c-6.31,0-28.16-18.74-35.09-28.02-6.47-8.68-12.47-19.68-12.73-20.14l3.36-1.82c.06.11,6.13,11.23,12.44,19.68,7.4,9.93,26.63,25.08,31.33,26.4.67-4.59-.67-25.8-2.5-44.99l3.8-.36c.96,10.19,3.95,43.73,1.95,47.73-.43.88-1.29,1.42-2.32,1.52h-.26.01Z"/>
    <path d="M960.72,797.04c-.04.46-.27,2.47-.73,5.61-1.13,7.79-3.76,22.51-8.98,37.73-2.2,6.41-4.88,12.91-8.08,19.01-6.13,11.68-14.28,21.89-24.99,27.24-3.93,1.97-7.99,2.96-12.08,2.96-3.21,0-6.44-.62-9.7-1.81-17.98-6.69-32.29-30.26-39.28-43.89-1.09-3.53-2.15-7.04-3.21-10.49l2.07-.86c.19.42,18.11,42.85,41.76,51.66,5.11,1.89,10.16,2.07,15.08.5,1.25-.39,2.47-.88,3.67-1.49.11-.06.23-.11.34-.19,15.27-7.83,25.02-26.91,31.1-45.16.63-1.79,1.19-3.59,1.72-5.37,5.18-17.24,7.13-32.62,7.45-35.41.04-.27.06-.4.06-.44l3.8.39Z"/>
    <path d="M916.68,886.88c-8.88,0-14.59-27.72-23.73-75.87-3.29-17.29-6.67-35.16-10.23-49.96-11.31-47.09-56.14-143.1-56.58-144.07l3.46-1.62c.46.96,45.45,97.34,56.84,144.79,3.57,14.88,6.97,32.8,10.27,50.13,3.73,19.64,7.25,38.19,10.89,52.02,5.47,20.76,8.84,20.79,9.18,20.73l.63,3.77c-.24.04-.49.06-.73.06h0Z"/>
    <path d="M1041.42,1233.02c-.5,0-12.41-.22-37.5-19.53-25.92-19.94-64.02-92.11-77.21-163.74-13.31-72.25,21.94-215.91,22.3-217.36l3.72.92c-.36,1.43-35.41,144.3-22.24,215.75,13.04,70.79,50.41,141.88,75.79,161.4,23.8,18.31,35.08,18.72,35.19,18.72v3.82h-.04Z"/>
    <path d="M928.99,974.13l-3.7.92s-.01-.06-.01-.07c-4.28-17-37.92-56.7-49.88-70.4h0c-.42-2.08-.96-4.15-1.58-6.17-.07-.24-.16-.46-.23-.73h0l.46-.42c1.81,2.02,40.2,44.82,51.98,69.18,1.42,2.84,2.42,5.45,2.98,7.7h-.01Z"/>
    <path d="M698.86,815.47h0c-.19-4.79-.76-9.37-1.62-13.7h0c-3.93-19.6-14.07-34.55-25.77-42.74-6.74-4.72-17.03-8.31-28.01-10.65-20.72-4.39-43.94-4.32-50.79,1.16-2.53,2.01-4.43,6.4-5.77,12.09v.07c-.85,3.53-1.48,7.5-1.87,11.81-.8,8.45-.79,17.85,0,26.2.4,4.19.99,8.12,1.79,11.53v.16c.92,4.07,2.09,7.37,3.53,9.54,6.47,9.7,17.7,11.71,30.72,14.05,3.44.63,6.99,1.26,10.62,2.07,11.13,2.48,32.57,11.74,44.36,17.03,1.89.85,3.9,1.26,5.9,1.26,2.18,0,4.33-.5,6.34-1.48,1.91-.93,3.56-2.25,4.85-3.86,1.28-1.61,2.21-3.47,2.71-5.54,2.48-10.3,3.36-20,2.98-29h.01ZM692.16,843.58c-.7,3-2.73,5.51-5.52,6.86-2.83,1.39-6.11,1.45-9,.16-14.56-6.53-34.2-14.82-45.11-17.26-3.7-.82-7.3-1.48-10.77-2.08-12.65-2.27-22.64-4.07-28.22-12.42-7.66-11.51-6.56-59.84,1.54-66.3,2.83-2.27,10.1-3.41,19.2-3.41,17.79,0,42.58,4.36,55.01,13.06,18.13,12.68,32.25,42.8,22.88,81.4h0Z"/>
    <path d="M655.59,926.56c-2.75-1.92-6.27-3.62-10.2-5.05-.06,0-.11-.01-.17-.06-2.84-1.03-5.93-1.94-9.11-2.67-16.86-3.99-36.74-4.15-42.41.4-8.36,6.69-8.35,46.53-1.89,56.21,5.14,7.7,13.99,9.28,24.2,11.12,2.67.47,5.45.98,8.28,1.61,8.65,1.92,25.31,9.11,34.49,13.23,1.54.69,3.16,1.03,4.78,1.03,1.76,0,3.5-.4,5.12-1.19,3.1-1.54,5.31-4.3,6.11-7.6,7.66-31.66-4.1-56.47-19.18-67.03h-.01ZM671.07,992.68c-.53,2.2-2.02,4.05-4.09,5.06-2.08,1.03-4.53,1.08-6.64.11-11.36-5.11-26.69-11.58-35.24-13.47-2.9-.65-5.71-1.15-8.41-1.65-9.76-1.74-17.47-3.13-21.72-9.47-5.93-8.88-5.12-46.14,1.09-51.1,2.18-1.74,7.73-2.61,14.71-2.61,13.73,0,32.97,3.39,42.62,10.14,10.93,7.65,19.99,23.51,19.99,44.32,0,5.87-.73,12.11-2.31,18.67h0Z"/>
    <path d="M678.88,861.73c-10.33-7.65-26.74-17.75-46.3-22.64-33.64-8.41-42.11-3.21-43.9-1.42-.63.63-1.28,2.24-1.91,4.53-.63,2.32-1.25,5.37-1.74,8.74-.29,2.05-.56,4.22-.75,6.46-.57,6.13-.7,12.63-.01,17.75.01.17.04.33.06.5.5,3.47.59,6.8.69,10.03,0,.27.01.56.04.82.11,4.2.3,8.25,1.62,11.65,1.33,3.41,3.8,6.15,8.51,7.72.36.11,21.33,7.03,40.92,12.91,3.1.93,6.17,1.84,9.11,2.67.06.04.11.06.17.06,10.87,3.16,20.04,5.51,23.06,5.51,2.15,0,4.5-1.22,6.8-3.56,6.51-6.59,13-22.22,13-42.47v-.98c-.06-7.16-3.57-14-9.37-18.28h0ZM672.54,920.79c-1.54,1.54-3,2.41-4.09,2.41-7.03,0-58.22-16.34-72.06-20.95-6.81-2.27-7.27-7.3-7.55-16.7-.1-3.17-.22-6.76-.73-10.44-1.85-12.94,1.79-32.61,3.29-34.73.04-.01,2.25-2.09,10.9-2.09,6.1,0,15.39,1.03,29.34,4.53,18.94,4.73,34.91,14.58,44.95,22.01,2.42,1.79,4.36,4.1,5.7,6.73,1.36,2.61,2.08,5.54,2.12,8.52.22,19.53-6.01,34.79-11.88,40.73h.01Z"/>
    <path d="M670.11,1010.22c-7.95-13.9-57.2-16.07-62.78-16.26h-.29c-10.53,1.16-17.33,3.9-20.54,8.29-.63.85-1.1,1.74-1.45,2.7-.5,1.32-.75,2.75-.75,4.3v307.94c0,.4-.01.8-.01,1.21-.04,1.79-.1,3.9.75,5.48.24.46.56.86.96,1.21.22.19.46.36.73.52.63.34,1.39.59,2.42.59,2.96,0,8.18-1.99,19.17-9.33,21.53-14.35,50.39-123.57,59.86-159.47.92-3.41,1.62-6.15,2.14-8.01,5.54-20.34,8.11-124.67-.19-139.16h-.01ZM666.61,1148.38c-.52,1.88-1.25,4.61-2.14,8.05-25.19,95.38-44.81,148.27-58.29,157.27-13.93,9.28-17,8.88-17.62,8.57-.56-.3-.5-2.47-.46-3.76,0-.44.01-.88.01-1.31v-307.94c0-3.99,1.98-9.53,19.2-11.46,14.71.53,53.64,4.15,59.47,14.33,7.14,12.54,5.77,114.4-.19,136.25h.01Z"/>
    <path d="M754.33,790.22c-10.53,0-21.15-1.38-29.18-2.41l-3.37-.43c-15.65-1.95-57.46-34.71-59.24-36.1l2.37-3c.43.33,42.74,33.49,57.34,35.31l3.39.43c15.25,1.98,43.64,5.67,57.44-4.19,9.53-6.8,32.77-32.02,34.56-50,1.82-18.25-7.19-68.22-8.03-72.08l3.73-.82c.1.49,10.11,53.26,8.11,73.28-2.01,20.07-26.99,46.18-36.15,52.72-7.88,5.62-19.38,7.29-30.97,7.29h.01Z"/>
    <path d="M823.58,751.63c-3.8,9.43-7.65,18.78-8.52,20.56-.9,1.78-3.04,10.2-6.23,20.03h0c-6.47,12.45-16.46,28.98-28.39,36.93-12.9,8.62-28.81,10.82-41.76,10.82-5.75,0-10.93-.44-14.99-.93-3.46-.44-6.76-2.09-9.81-4.45-1.09-.85-2.14-1.78-3.17-2.77-4.13-4.02-7.68-9.1-10.43-13.64-.53-.86-.99-1.76-1.39-2.67h0c-1.91-4.33-2.47-9.1-1.62-13.7h0c.34-2.07.98-4.05,1.89-5.98,2.6-5.51,7.14-9.68,12.65-11.82,1.62-.63,3.33-1.09,5.11-1.36l.69-.1.47,3.79-.42.06-.19.04c-6.57.96-11.98,4.99-14.85,11.05-2.84,6.04-2.5,13.06.93,18.74,4.91,8.12,12.48,18.02,20.63,19.02,12.67,1.59,36.54,2.5,54.16-9.25,15.04-10.03,27.14-35.21,32.32-45.98.57-1.21,1.08-2.21,1.45-3,3.06-6.11,9.23-20.2,11.48-25.35h-.01Z"/>
    <path d="M794.7,829.83c-.23,1.33-.39,2.7-.46,4.05-.11,1.82-.33,3.86-.63,6.04v.04c-10.82,27.09-25.37,43.87-42.38,48.74-11.56,3.29-21.74,4.94-29.91,4.94-3.84,0-7.25-.36-10.13-1.09-1.39-.33-2.65-.76-3.8-1.26-2.93-1.32-5.02-3.13-6.21-5.48-3.8-7.6,6.59-44.13,9.51-53.99.13-.42.24-.79.34-1.1l3.64,1.09c-.27.9-.53,1.84-.82,2.78-5.16,17.7-11.68,44.7-9.27,49.53,3.04,6.07,18.31,8.71,45.58.92,17.62-5.02,32.57-24.26,43.26-55.62l1.26.44h.01Z"/>
    <path d="M785.22,874.19c-.42,3.4-.59,6.86-.47,10.3,0,0,.01,0,0,.01-.39.96-.8,1.99-1.25,3.1-6.67,16.77-19.08,47.99-41.58,58.36-17.03,7.85-32.67,11.52-42.45,11.52-2.09,0-3.92-.17-5.45-.52-1.54-.33-2.75-.82-3.59-1.49h0c-.13-.11-.27-.23-.39-.34-4.42-4.42-5.24-18.91,3.4-40.31,3.24-8.05,10.73-19.05,13.93-23.56.85-1.19,1.38-1.94,1.48-2.07l3.07,2.27s-.29.4-.75,1.05c-2.55,3.59-10.89,15.54-14.17,23.73-8.02,19.87-7.32,33.11-4.26,36.18,2.47,2.44,21.61,2.02,47.59-9.96,21.08-9.73,33.13-40.03,39.63-56.3.93-2.35,1.76-4.42,2.47-6.1.9-2.08,1.84-4.05,2.78-5.9h.01Z"/>
    <path d="M685.67,1078.11h-.9l-.66-.75c-.5-.6-1.81-2.21-1.78-42.48,0-19.81.47-42.05,1.48-47.03,1.91-9.57,6.7-32.65,6.7-32.65l3.74.77s-4.78,23.07-6.69,32.62c-1.84,9.15-1.71,70.04-.6,84.04,2.57-2.51,7.03-7.2,11.69-12.08,14.56-15.28,36.56-38.36,49.07-47.12,18.31-12.81,24-34.73,27.9-54.27,3.73-18.67,1.89-50.83,1.88-51.15l3.82-.23c.09,1.33,1.88,32.98-1.95,52.12-4.06,20.27-10.01,43.04-29.47,56.66-12.19,8.54-34.05,31.46-48.49,46.63-14.22,14.92-14.39,14.92-15.72,14.92h-.01Z"/>
    <path d="M780.73,1069.77c-.19,1.42-.3,2.84-.39,4.3.01.01,0,.04,0,.06-3.64,20.2-9.8,42.64-30,72.01-.9,1.31-1.85,2.7-2.84,4.15-2.08,3.04-4.38,6.4-6.84,10.01-6.18,9.08-13.39,19.68-20.67,30.42-3.01,4.45-6.05,8.92-9.04,13.34-15.61,23.03-29.71,43.9-32.68,48.32-.01.01-.07.11-.17.27-.24.36-.39.56-.4.59h-.04l-3.27-1.91s.06-.13.16-.33c.01-.01.04-.06.04-.07,2.09-4.33,20.04-42.55,13.08-65.13-7.66-24.88-5.9-106.18-5.82-109.62l1.79.04,2.02.06c0,.07-.01.7-.04,1.85-.22,12.45-1.15,84.29,5.7,106.55,4.65,15.05-.7,35.77-5.98,50.44,16.31-24.17,46.96-69.42,61.88-91.12,21.51-31.32,26.77-54.59,30.29-75.75,2.98-17.88-3.39-62.44-6.1-79.91-.67-4.38-1.13-7.04-1.15-7.19l3.76-.63c.01.1.04.24.07.47.22,1.16.69,4.1,1.33,8.25h0c-3.47,19.94,8.77,54.45,5.29,80.54h.03Z"/>
    <path d="M675.18,1250.12s-.23.29-.59.79c0,.01-.01.06-.04.07-4.73,6.59-35.08,48.87-42.11,59.4-2.65,4.02-7.03,9.21-11.65,14.73-10.59,12.65-17.53,21.32-17.53,26.54,0,.39.01.99.04,1.79,1.32-.79,1.95-1.36,1.95-1.36,0,0,1.08,6.01,2.47,15.61-.4-7.78-.63-13.64-.63-16.05,0-4.22,9.23-15.22,16.64-24.07,4.71-5.6,9.14-10.89,11.92-15.08,6.99-10.49,37.39-52.84,42.04-59.3.19-.24.33-.44.44-.57.1-.16.16-.24.17-.27l-3.1-2.24h-.03ZM716.48,1189.19c-.06.17-2.18,6.17-5.52,14.85-6.8,17.69-18.71,46.58-28.75,60.37-15.37,21.13-44.06,87.69-48.11,103.96-1.02,4.02-2.77,12.14-4.79,21.53-4.03,18.74-11.12,51.68-14.79,61.48-.1-.5-.19-1.08-.3-1.68.01,2.32.04,4.94.1,7.78.29,0,.59-.07.86-.22,3.1-1.49,6.96-15.8,17.88-66.57,2.02-9.35,3.76-17.45,4.76-21.42,3.9-15.62,32.71-82.27,47.5-102.61,14.92-20.52,33.11-71.5,34.69-75.97.06-.11.07-.19.1-.24l-3.62-1.26h-.01Z"/>
    <path d="M747.57,1149.8c-.01.11-.04.29-.06.47-.42,3.99-2.53,23.49-5.77,50.17-.22,1.72-.42,3.46-.65,5.24-7.88,64.1-21.66,164.24-34.52,196.37-10.59,26.46-25.12,85.12-37.14,136.81h0c-.7,3.16-1.43,6.27-2.14,9.34-4.25,18.39-8.08,35.55-11.23,49.64-3.23,14.4-5.58,24.82-6.79,29.66-5.6,22.42-3.79,75.45-3.76,75.97l-2.65.11c-.42-2.05-.86-4.16-1.33-6.34v-.04c-.3-14.99-.56-52.18,4.05-70.63,1.21-4.78,3.53-15.16,6.76-29.55,12.42-55.36,35.52-158.45,50.7-196.37,14.96-37.39,31.74-172.87,38.09-227.83-5.81,20.73-15.51,55.39-28.75,102.81-30.34,108.71-52.88,182.13-67,218.22-16.93,43.27-22.77,83.34-22.83,83.74l-2.73-.39-1.05-.16c0-.07.23-1.56.67-4.22.01,0,0-.04,0-.04,2.01-11.52,8.52-44.88,22.4-80.31,14.07-35.98,36.57-109.28,66.87-217.86,16.11-57.7,26.97-96.48,31.98-114.3,2.07-7.32,3.11-11.1,3.16-11.22l3.74.73h-.03Z"/>
    <path d="M845.96,1405.43l-1.19.85c-.07-.11-3.21-4.55-7.91-13.37-.88-1.66-1.84-3.5-2.83-5.48-6.87-13.73-16-35.04-23.97-63.99-13.14-47.69-57.73-104.09-68.97-117.74-1.56-1.92-2.48-3.01-2.55-3.1l2.9-2.48s.11.13.3.34c4.38,5.19,57.32,68.76,72.01,121.96,12.15,44.07,26.89,70.11,32.15,78.58.01,1.45.04,2.94.06,4.43h0Z"/>
    <path d="M744.7,1717.88c-7.6,0-16.63-3.49-27.75-12.88-25.11-21.23-50.29-159.88-51.35-165.78l3.76-.67c.26,1.43,26,143.18,50.06,163.54,23.63,20,35.78,11.46,47.14.11,9.38-9.38,14.4-37.07,21.99-78.98,1.32-7.32,2.73-15.09,4.26-23.3,10.6-57.03,41.03-211.52,41.35-213.07l3.74.75c-.3,1.55-30.73,156.02-41.33,213.02-1.52,8.21-2.93,15.98-4.26,23.28-7.99,44.13-12.81,70.77-23.04,81-6.67,6.67-14.32,13-24.56,13v-.03Z"/>
    <path d="M799.61,1831.02c-9.96-.34-18.13-4.45-24.33-12.22-25.02-31.36-9.89-112.19-9.23-115.62l3.76.72c-.16.82-15.47,82.52,8.46,112.51,5.47,6.86,12.7,10.47,21.48,10.79l-.13,3.82h-.01Z"/>
    <path d="M688.41,1814.21c-15.14,0-30.14-7.27-31.05-7.72l1.69-3.43c.3.14,30.43,14.72,46.48,2.24,13.39-10.42,3.49-90.59-1.45-120.6l3.77-.62c1.85,11.28,17.63,110.54.03,124.23-5.62,4.38-12.57,5.9-19.48,5.9h0Z"/>
    <path d="M695.64,2003.71h0v.04c-.8,5.81-1.71,11.68-2.71,17.55v.04c-5.93,34.92-15.25,69.65-28.52,94.32l-1.43-.76h0c-.29-1.05-.57-2.07-.88-3.06,25.74-49.73,36.91-144.09,35.06-194.01-1.71-45.95-28.11-73.23-32.84-77.75h0c-.44-.44-.69-.67-.73-.69l.47-.56,2.02-2.32c.34.29,32.97,29.31,34.89,81.17.8,21.89-.8,53.33-5.34,86.04h0Z"/>
    <path d="M688.79,2251.68l-1.72-.36c-.04-3.27-.11-6.47-.17-9.61,12.88-70.14,8.45-178.23,6.01-220.43-.62-10.9-1.1-17.4-1.13-17.73l3.8-.3s.01.19.04.46h0c.73,9.78,11.62,163.1-6.84,247.97h.01Z"/>
    <path d="M721.29,2336.74c-.72,0-1.31-.07-1.79-.24-1.39-.46-3.52-1.18-5.18-24.03-1.1-15.15-1.61-35.62-1.38-57.66.34-33.83,2.71-102.25,14.85-180.54,19.53-126.07,57.82-222.53,71.33-230.93,1.18-.73,2.3-.93,3.34-.6l-1.15,3.64c.1.03.17.03.2.03-2.73.47-14.19,17.42-30.47,64.72-9.58,27.85-27.46,86.17-39.48,163.74-20.76,134-15.22,249.38-10.5,258.07,2.64.24,12.61-2.84,20.7-5.37,14.03-4.36,29.96-9.31,37.9-8.16l13.39,1.91-.55,3.79-13.39-1.91c-7.1-1.02-23.24,4-36.23,8.03-11.16,3.47-17.95,5.51-21.61,5.51h0Z"/>
    <path d="M735.68,2332.48l-3.7-.95c.4-1.56,39.96-156.57,51.3-200.07,11.31-43.31,23.21-216.77,23.33-218.52l3.82.26c-.11,1.75-12.05,175.55-23.44,219.22-11.35,43.49-50.9,198.49-51.29,200.04h-.01Z"/>
    <path d="M583.96,366.61l-.5-3.79c.29-.04,29-4.06,53.1-26.3l2.6,2.81c-25.02,23.1-53.97,27.13-55.19,27.29h0Z"/>
    <path d="M848.62,453.92c-.82.16-82.57,14.16-118.38,25.47-22.3,7.03-37.49,11.94-45.81,14.65-5.11,1.66-7.65,2.5-7.7,2.54l-1.13-3.36-.1-.27c.17-.06,17.65-5.87,53.59-17.22,30.63-9.67,94.42-21.28,113.43-24.63,2.02.86,4.05,1.76,6.07,2.71v.1h.04Z"/>
  </g>
</svg>